%TF.GenerationSoftware,KiCad,Pcbnew,9.0.4*%
%TF.CreationDate,2026-05-03T18:57:54+09:00*%
%TF.ProjectId,MD_Stable,4d445f53-7461-4626-9c65-2e6b69636164,rev?*%
%TF.SameCoordinates,Original*%
%TF.FileFunction,Soldermask,Bot*%
%TF.FilePolarity,Negative*%
%FSLAX46Y46*%
G04 Gerber Fmt 4.6, Leading zero omitted, Abs format (unit mm)*
G04 Created by KiCad (PCBNEW 9.0.4) date 2026-05-03 18:57:54*
%MOMM*%
%LPD*%
G01*
G04 APERTURE LIST*
G04 Aperture macros list*
%AMRoundRect*
0 Rectangle with rounded corners*
0 $1 Rounding radius*
0 $2 $3 $4 $5 $6 $7 $8 $9 X,Y pos of 4 corners*
0 Add a 4 corners polygon primitive as box body*
4,1,4,$2,$3,$4,$5,$6,$7,$8,$9,$2,$3,0*
0 Add four circle primitives for the rounded corners*
1,1,$1+$1,$2,$3*
1,1,$1+$1,$4,$5*
1,1,$1+$1,$6,$7*
1,1,$1+$1,$8,$9*
0 Add four rect primitives between the rounded corners*
20,1,$1+$1,$2,$3,$4,$5,0*
20,1,$1+$1,$4,$5,$6,$7,0*
20,1,$1+$1,$6,$7,$8,$9,0*
20,1,$1+$1,$8,$9,$2,$3,0*%
G04 Aperture macros list end*
%ADD10C,5.000000*%
%ADD11C,0.100000*%
%ADD12C,3.000000*%
%ADD13C,6.000000*%
%ADD14C,0.907000*%
%ADD15C,2.000000*%
%ADD16C,1.500000*%
%ADD17RoundRect,0.162500X0.825000X0.162500X-0.825000X0.162500X-0.825000X-0.162500X0.825000X-0.162500X0*%
%ADD18RoundRect,0.237500X-0.300000X-0.237500X0.300000X-0.237500X0.300000X0.237500X-0.300000X0.237500X0*%
%ADD19RoundRect,0.250000X-0.750000X0.600000X-0.750000X-0.600000X0.750000X-0.600000X0.750000X0.600000X0*%
%ADD20O,2.000000X1.700000*%
%ADD21RoundRect,0.237500X-0.237500X0.250000X-0.237500X-0.250000X0.237500X-0.250000X0.237500X0.250000X0*%
%ADD22RoundRect,0.250000X-0.550000X0.550000X-0.550000X-0.550000X0.550000X-0.550000X0.550000X0.550000X0*%
%ADD23C,1.600000*%
%ADD24RoundRect,0.250000X0.550000X0.550000X-0.550000X0.550000X-0.550000X-0.550000X0.550000X-0.550000X0*%
%ADD25C,3.200000*%
%ADD26RoundRect,0.250000X0.550000X-0.550000X0.550000X0.550000X-0.550000X0.550000X-0.550000X-0.550000X0*%
%ADD27R,2.000000X0.900000*%
%ADD28RoundRect,1.025000X-1.025000X1.025000X-1.025000X-1.025000X1.025000X-1.025000X1.025000X1.025000X0*%
%ADD29C,4.100000*%
%ADD30R,2.250000X2.250000*%
%ADD31C,2.250000*%
%ADD32C,1.800000*%
%ADD33R,0.900000X2.000000*%
%ADD34RoundRect,1.025000X1.025000X1.025000X-1.025000X1.025000X-1.025000X-1.025000X1.025000X-1.025000X0*%
%ADD35RoundRect,0.250000X-0.550000X-0.550000X0.550000X-0.550000X0.550000X0.550000X-0.550000X0.550000X0*%
%ADD36C,1.400000*%
%ADD37RoundRect,0.770000X0.980000X0.980000X-0.980000X0.980000X-0.980000X-0.980000X0.980000X-0.980000X0*%
%ADD38C,3.500000*%
%ADD39R,1.700000X1.700000*%
%ADD40C,1.700000*%
%ADD41RoundRect,0.225000X-0.225000X-0.375000X0.225000X-0.375000X0.225000X0.375000X-0.225000X0.375000X0*%
%ADD42RoundRect,0.237500X0.237500X-0.300000X0.237500X0.300000X-0.237500X0.300000X-0.237500X-0.300000X0*%
%ADD43RoundRect,0.237500X-0.237500X0.300000X-0.237500X-0.300000X0.237500X-0.300000X0.237500X0.300000X0*%
%ADD44RoundRect,0.237500X0.250000X0.237500X-0.250000X0.237500X-0.250000X-0.237500X0.250000X-0.237500X0*%
%ADD45RoundRect,0.225000X-0.375000X0.225000X-0.375000X-0.225000X0.375000X-0.225000X0.375000X0.225000X0*%
%ADD46RoundRect,0.237500X0.300000X0.237500X-0.300000X0.237500X-0.300000X-0.237500X0.300000X-0.237500X0*%
%ADD47RoundRect,0.225000X0.375000X-0.225000X0.375000X0.225000X-0.375000X0.225000X-0.375000X-0.225000X0*%
%ADD48RoundRect,0.237500X0.237500X-0.250000X0.237500X0.250000X-0.237500X0.250000X-0.237500X-0.250000X0*%
%ADD49RoundRect,0.225000X0.225000X0.375000X-0.225000X0.375000X-0.225000X-0.375000X0.225000X-0.375000X0*%
%ADD50RoundRect,0.150000X0.825000X0.150000X-0.825000X0.150000X-0.825000X-0.150000X0.825000X-0.150000X0*%
%ADD51RoundRect,0.250000X-0.350000X0.850000X-0.350000X-0.850000X0.350000X-0.850000X0.350000X0.850000X0*%
%ADD52RoundRect,0.249997X-2.650003X2.950003X-2.650003X-2.950003X2.650003X-2.950003X2.650003X2.950003X0*%
%ADD53RoundRect,0.250000X0.350000X-0.850000X0.350000X0.850000X-0.350000X0.850000X-0.350000X-0.850000X0*%
%ADD54RoundRect,0.249997X2.650003X-2.950003X2.650003X2.950003X-2.650003X2.950003X-2.650003X-2.950003X0*%
%ADD55RoundRect,0.237500X-0.250000X-0.237500X0.250000X-0.237500X0.250000X0.237500X-0.250000X0.237500X0*%
G04 APERTURE END LIST*
D10*
X193675000Y-128016000D02*
X178308000Y-128016000D01*
D11*
X178308000Y-140716000D02*
X191262000Y-140716000D01*
X191262000Y-150114000D01*
X178308000Y-150114000D01*
X178308000Y-140716000D01*
G36*
X178308000Y-140716000D02*
G01*
X191262000Y-140716000D01*
X191262000Y-150114000D01*
X178308000Y-150114000D01*
X178308000Y-140716000D01*
G37*
D10*
X191516000Y-60706000D02*
X178308000Y-60706000D01*
D12*
X183134000Y-135890000D02*
X186182000Y-132842000D01*
D10*
X193294000Y-96774000D02*
X178308000Y-96774000D01*
D13*
X193675000Y-112522000D02*
X178816000Y-112522000D01*
D10*
X191262000Y-55626000D02*
X178308000Y-55626000D01*
D13*
X193548000Y-73660000D02*
X193548000Y-68834000D01*
X193548000Y-120650000D02*
X193548000Y-127508000D01*
X191262000Y-147320000D02*
X191262000Y-137287000D01*
X193548000Y-95250000D02*
X193548000Y-100330000D01*
D10*
X193294000Y-71882000D02*
X178181000Y-71882000D01*
D11*
X199676000Y-59906000D02*
X201390000Y-59906000D01*
X201390000Y-132302000D01*
X199676000Y-132302000D01*
X199676000Y-59906000D01*
G36*
X199676000Y-59906000D02*
G01*
X201390000Y-59906000D01*
X201390000Y-132302000D01*
X199676000Y-132302000D01*
X199676000Y-59906000D01*
G37*
D13*
X193802000Y-86868000D02*
X178816000Y-86868000D01*
D14*
X200986500Y-59944000D02*
G75*
G02*
X200079500Y-59944000I-453500J0D01*
G01*
X200079500Y-59944000D02*
G75*
G02*
X200986500Y-59944000I453500J0D01*
G01*
D10*
X191262000Y-55626000D02*
X194310000Y-62230000D01*
X193548000Y-94742000D02*
X178308000Y-94742000D01*
D13*
X178816000Y-101346000D02*
X178816000Y-96774000D01*
D10*
X193929000Y-124460000D02*
X178435000Y-124460000D01*
X194056000Y-68326000D02*
X178308000Y-68326000D01*
D13*
X178562000Y-81915000D02*
X178562000Y-86868000D01*
X178816000Y-114046000D02*
X178816000Y-109474000D01*
D10*
X193294000Y-74168000D02*
X178181000Y-74168000D01*
D14*
X200986500Y-132334000D02*
G75*
G02*
X200079500Y-132334000I-453500J0D01*
G01*
X200079500Y-132334000D02*
G75*
G02*
X200986500Y-132334000I453500J0D01*
G01*
D10*
X193548000Y-108204000D02*
X178308000Y-108204000D01*
D13*
X194056000Y-81788000D02*
X194056000Y-86614000D01*
D10*
X194056000Y-83312000D02*
X178308000Y-83312000D01*
D15*
X186182000Y-132588000D02*
X200406000Y-132588000D01*
D13*
X178562000Y-73660000D02*
X178562000Y-68834000D01*
D10*
X193548000Y-121412000D02*
X178308000Y-121412000D01*
X191516000Y-58420000D02*
X178308000Y-58420000D01*
D13*
X193548000Y-100330000D02*
X178816000Y-100330000D01*
X193802000Y-108712000D02*
X193802000Y-112522000D01*
X178816000Y-127762000D02*
X178816000Y-121920000D01*
X178816000Y-60706000D02*
X178816000Y-56134000D01*
D10*
X193294000Y-110236000D02*
X178308000Y-110236000D01*
X194056000Y-81280000D02*
X178308000Y-81280000D01*
D16*
%TO.C,Y1*%
X114862000Y-92202000D03*
X109982000Y-92202000D03*
%TD*%
D17*
%TO.C,U23*%
X118618000Y-82042000D03*
X118618000Y-83312000D03*
X118618000Y-84582000D03*
X118618000Y-85852000D03*
X113543000Y-85852000D03*
X113543000Y-84582000D03*
X113543000Y-83312000D03*
X113543000Y-82042000D03*
%TD*%
D18*
%TO.C,C3*%
X108003000Y-88646000D03*
X109728000Y-88646000D03*
%TD*%
%TO.C,C1*%
X113083000Y-88646000D03*
X114808000Y-88646000D03*
%TD*%
D19*
%TO.C,J11*%
X108966000Y-82550000D03*
D20*
X108966000Y-85050000D03*
%TD*%
D21*
%TO.C,R77*%
X111252000Y-82804000D03*
X111252000Y-84629000D03*
%TD*%
D22*
%TO.C,C20*%
X135382000Y-138430000D03*
D23*
X135382000Y-140430000D03*
%TD*%
D24*
%TO.C,C13*%
X175768000Y-135382000D03*
D23*
X172268000Y-135382000D03*
%TD*%
D25*
%TO.C,REF\u002A\u002A*%
X198600000Y-148054000D03*
%TD*%
D26*
%TO.C,SW2*%
X119380000Y-132080000D03*
D23*
X121920000Y-132080000D03*
X124460000Y-132080000D03*
X124460000Y-124460000D03*
X121920000Y-124460000D03*
X119380000Y-124460000D03*
%TD*%
D27*
%TO.C,J6*%
X200406000Y-109538000D03*
X200406000Y-123038000D03*
D28*
X194406000Y-119888000D03*
D29*
X194406000Y-112688000D03*
%TD*%
D25*
%TO.C,REF\u002A\u002A*%
X104600000Y-148054000D03*
%TD*%
D30*
%TO.C,SW8*%
X123952000Y-70358000D03*
D31*
X123952000Y-76858000D03*
%TD*%
D26*
%TO.C,C19*%
X160274000Y-137721000D03*
D23*
X160274000Y-135721000D03*
%TD*%
D27*
%TO.C,J8*%
X200406000Y-59290000D03*
X200406000Y-72790000D03*
D28*
X194406000Y-69640000D03*
D29*
X194406000Y-62440000D03*
%TD*%
D22*
%TO.C,C12*%
X136144000Y-144780000D03*
D23*
X136144000Y-148280000D03*
%TD*%
D30*
%TO.C,SW4*%
X118618000Y-70358000D03*
D31*
X118618000Y-76858000D03*
%TD*%
D30*
%TO.C,SW6*%
X137414000Y-70358000D03*
D31*
X137414000Y-76858000D03*
%TD*%
D32*
%TO.C,J3*%
X115062000Y-141224000D03*
X115062000Y-138684000D03*
X115062000Y-136144000D03*
X115062000Y-133604000D03*
X115062000Y-131064000D03*
%TD*%
D30*
%TO.C,SW7*%
X114554000Y-70358000D03*
D31*
X114554000Y-76858000D03*
%TD*%
D30*
%TO.C,SW3*%
X130810000Y-124968000D03*
D31*
X130810000Y-131468000D03*
%TD*%
D32*
%TO.C,J4*%
X115062000Y-124968000D03*
X115062000Y-122428000D03*
X115062000Y-119888000D03*
X115062000Y-117348000D03*
X115062000Y-114808000D03*
%TD*%
D22*
%TO.C,C8*%
X119634000Y-145542000D03*
D23*
X119634000Y-147542000D03*
%TD*%
D30*
%TO.C,SW5*%
X128016000Y-70358000D03*
D31*
X128016000Y-76858000D03*
%TD*%
D25*
%TO.C,REF\u002A\u002A*%
X198600000Y-54054000D03*
%TD*%
D33*
%TO.C,J2*%
X193440000Y-142106000D03*
X179940000Y-142106000D03*
D34*
X190290000Y-136106000D03*
D29*
X183090000Y-136106000D03*
%TD*%
D30*
%TO.C,SW9*%
X133350000Y-70358000D03*
D31*
X133350000Y-76858000D03*
%TD*%
D30*
%TO.C,SW1*%
X137414000Y-124968000D03*
D31*
X137414000Y-131468000D03*
%TD*%
D35*
%TO.C,C6*%
X164370000Y-134366000D03*
D23*
X166370000Y-134366000D03*
%TD*%
D27*
%TO.C,J7*%
X200406000Y-84392000D03*
X200406000Y-97892000D03*
D28*
X194406000Y-94742000D03*
D29*
X194406000Y-87542000D03*
%TD*%
D36*
%TO.C,J1*%
X153542000Y-149359000D03*
X142542000Y-149359000D03*
D37*
X145542000Y-139359000D03*
D38*
X150542000Y-139359000D03*
%TD*%
D39*
%TO.C,J9*%
X130048000Y-64262000D03*
D40*
X130048000Y-61722000D03*
X127508000Y-64262000D03*
X127508000Y-61722000D03*
X124968000Y-64262000D03*
X124968000Y-61722000D03*
X122428000Y-64262000D03*
X122428000Y-61722000D03*
X119888000Y-64262000D03*
X119888000Y-61722000D03*
X117348000Y-64262000D03*
X117348000Y-61722000D03*
%TD*%
D25*
%TO.C,REF\u002A\u002A*%
X104600000Y-54054000D03*
%TD*%
D39*
%TO.C,J10*%
X108458000Y-77216000D03*
D40*
X108458000Y-74676000D03*
X108458000Y-72136000D03*
X108458000Y-69596000D03*
X108458000Y-67056000D03*
X108458000Y-64516000D03*
X108458000Y-61976000D03*
X108458000Y-59436000D03*
%TD*%
D41*
%TO.C,D29*%
X147370000Y-89664000D03*
X150670000Y-89664000D03*
%TD*%
D42*
%TO.C,C21*%
X127508000Y-114046000D03*
X127508000Y-112321000D03*
%TD*%
%TO.C,C9*%
X139954000Y-142594500D03*
X139954000Y-140869500D03*
%TD*%
D43*
%TO.C,C55*%
X197601427Y-88900000D03*
X197601427Y-90625000D03*
%TD*%
D44*
%TO.C,R23*%
X112823000Y-98552000D03*
X110998000Y-98552000D03*
%TD*%
D43*
%TO.C,C71*%
X155242000Y-77726000D03*
X155242000Y-79451000D03*
%TD*%
D41*
%TO.C,D9*%
X123888000Y-136597000D03*
X127188000Y-136597000D03*
%TD*%
D45*
%TO.C,D59*%
X155242000Y-126494000D03*
X155242000Y-129794000D03*
%TD*%
D46*
%TO.C,C33*%
X159048000Y-113032000D03*
X157323000Y-113032000D03*
%TD*%
%TO.C,C76*%
X159052000Y-99570000D03*
X157327000Y-99570000D03*
%TD*%
D47*
%TO.C,D60*%
X152700000Y-129796000D03*
X152700000Y-126496000D03*
%TD*%
D48*
%TO.C,R53*%
X197866000Y-68627000D03*
X197866000Y-66802000D03*
%TD*%
D18*
%TO.C,C64*%
X134874000Y-89154000D03*
X136599000Y-89154000D03*
%TD*%
D44*
%TO.C,R21*%
X112823000Y-131064000D03*
X110998000Y-131064000D03*
%TD*%
D42*
%TO.C,C67*%
X149654000Y-127764000D03*
X149654000Y-126039000D03*
%TD*%
D46*
%TO.C,C78*%
X158951000Y-72898000D03*
X157226000Y-72898000D03*
%TD*%
%TO.C,C17*%
X110998000Y-101092000D03*
X109273000Y-101092000D03*
%TD*%
D21*
%TO.C,R54*%
X134874000Y-90805000D03*
X134874000Y-92630000D03*
%TD*%
D45*
%TO.C,D27*%
X155242000Y-86362000D03*
X155242000Y-89662000D03*
%TD*%
D46*
%TO.C,C74*%
X158997000Y-126494000D03*
X157272000Y-126494000D03*
%TD*%
D42*
%TO.C,C39*%
X149908000Y-114302000D03*
X149908000Y-112577000D03*
%TD*%
D44*
%TO.C,R16*%
X112823000Y-136144000D03*
X110998000Y-136144000D03*
%TD*%
D49*
%TO.C,D6*%
X166878000Y-138176000D03*
X163578000Y-138176000D03*
%TD*%
D48*
%TO.C,R4*%
X121920000Y-128270000D03*
X121920000Y-126445000D03*
%TD*%
D43*
%TO.C,C44*%
X155242000Y-91188000D03*
X155242000Y-92913000D03*
%TD*%
D49*
%TO.C,D1*%
X174498000Y-149606000D03*
X171198000Y-149606000D03*
%TD*%
D45*
%TO.C,D31*%
X155242000Y-59438000D03*
X155242000Y-62738000D03*
%TD*%
D43*
%TO.C,C54*%
X197612000Y-113585000D03*
X197612000Y-115310000D03*
%TD*%
%TO.C,C36*%
X147368000Y-85854000D03*
X147368000Y-87579000D03*
%TD*%
%TO.C,C66*%
X152702000Y-131320000D03*
X152702000Y-133045000D03*
%TD*%
D42*
%TO.C,C70*%
X149654000Y-100840000D03*
X149654000Y-99115000D03*
%TD*%
D44*
%TO.C,R18*%
X112823000Y-103632000D03*
X110998000Y-103632000D03*
%TD*%
D43*
%TO.C,C42*%
X155238000Y-117858000D03*
X155238000Y-119583000D03*
%TD*%
D45*
%TO.C,D63*%
X155242000Y-99570000D03*
X155242000Y-102870000D03*
%TD*%
D46*
%TO.C,C35*%
X159052000Y-86362000D03*
X157327000Y-86362000D03*
%TD*%
D42*
%TO.C,C40*%
X149654000Y-87579000D03*
X149654000Y-85854000D03*
%TD*%
D43*
%TO.C,C45*%
X152702000Y-91188000D03*
X152702000Y-92913000D03*
%TD*%
%TO.C,C75*%
X147366000Y-125986000D03*
X147366000Y-127711000D03*
%TD*%
%TO.C,C2*%
X177292000Y-147574000D03*
X177292000Y-149299000D03*
%TD*%
D47*
%TO.C,D28*%
X152702000Y-89664000D03*
X152702000Y-86364000D03*
%TD*%
D43*
%TO.C,C79*%
X147368000Y-72392000D03*
X147368000Y-74117000D03*
%TD*%
D44*
%TO.C,R22*%
X112823000Y-114808000D03*
X110998000Y-114808000D03*
%TD*%
D41*
%TO.C,D22*%
X157272000Y-116334000D03*
X160572000Y-116334000D03*
%TD*%
%TO.C,D26*%
X157274000Y-89664000D03*
X160574000Y-89664000D03*
%TD*%
D46*
%TO.C,C37*%
X158951000Y-59438000D03*
X157226000Y-59438000D03*
%TD*%
D43*
%TO.C,C65*%
X155240000Y-131320000D03*
X155240000Y-133045000D03*
%TD*%
D41*
%TO.C,D65*%
X147368000Y-102872000D03*
X150668000Y-102872000D03*
%TD*%
D43*
%TO.C,C56*%
X197866000Y-63547000D03*
X197866000Y-65272000D03*
%TD*%
D47*
%TO.C,D24*%
X152700000Y-116334000D03*
X152700000Y-113034000D03*
%TD*%
D41*
%TO.C,D69*%
X147368000Y-76202000D03*
X150668000Y-76202000D03*
%TD*%
D43*
%TO.C,C69*%
X152702000Y-104396000D03*
X152702000Y-106121000D03*
%TD*%
%TO.C,C77*%
X147368000Y-99060000D03*
X147368000Y-100785000D03*
%TD*%
D41*
%TO.C,D62*%
X157274000Y-102872000D03*
X160574000Y-102872000D03*
%TD*%
D46*
%TO.C,C16*%
X110998000Y-117348000D03*
X109273000Y-117348000D03*
%TD*%
D41*
%TO.C,D30*%
X157274000Y-62740000D03*
X160574000Y-62740000D03*
%TD*%
D48*
%TO.C,R5*%
X119380000Y-128312500D03*
X119380000Y-126487500D03*
%TD*%
D41*
%TO.C,D66*%
X157274000Y-76202000D03*
X160574000Y-76202000D03*
%TD*%
D42*
%TO.C,C86*%
X110998000Y-77216000D03*
X110998000Y-75491000D03*
%TD*%
D46*
%TO.C,C5*%
X168656000Y-147320000D03*
X166931000Y-147320000D03*
%TD*%
D42*
%TO.C,C73*%
X149908000Y-74117000D03*
X149908000Y-72392000D03*
%TD*%
D41*
%TO.C,D61*%
X147368000Y-129796000D03*
X150668000Y-129796000D03*
%TD*%
D43*
%TO.C,C47*%
X152702000Y-64264000D03*
X152702000Y-65989000D03*
%TD*%
D18*
%TO.C,C22*%
X127000000Y-88646000D03*
X128725000Y-88646000D03*
%TD*%
D43*
%TO.C,C18*%
X129730000Y-139137000D03*
X129730000Y-140862000D03*
%TD*%
D44*
%TO.C,R17*%
X112823000Y-119888000D03*
X110998000Y-119888000D03*
%TD*%
D46*
%TO.C,C15*%
X110998000Y-133604000D03*
X109273000Y-133604000D03*
%TD*%
D43*
%TO.C,C43*%
X152698000Y-117858000D03*
X152698000Y-119583000D03*
%TD*%
%TO.C,C68*%
X155242000Y-104396000D03*
X155242000Y-106121000D03*
%TD*%
D50*
%TO.C,U16*%
X141986000Y-92837000D03*
X141986000Y-94107000D03*
X141986000Y-95377000D03*
X141986000Y-96647000D03*
X137036000Y-96647000D03*
X137036000Y-95377000D03*
X137036000Y-94107000D03*
X137036000Y-92837000D03*
%TD*%
D48*
%TO.C,R3*%
X124460000Y-128270000D03*
X124460000Y-126445000D03*
%TD*%
D51*
%TO.C,U5*%
X123126000Y-139137000D03*
D52*
X125406000Y-145437000D03*
D51*
X127686000Y-139137000D03*
%TD*%
D48*
%TO.C,R51*%
X197612000Y-118665000D03*
X197612000Y-116840000D03*
%TD*%
D41*
%TO.C,D33*%
X147368000Y-62740000D03*
X150668000Y-62740000D03*
%TD*%
D47*
%TO.C,D32*%
X152702000Y-62740000D03*
X152702000Y-59440000D03*
%TD*%
D53*
%TO.C,U1*%
X175260000Y-147066000D03*
D54*
X172980000Y-140766000D03*
D53*
X170700000Y-147066000D03*
%TD*%
D55*
%TO.C,R41*%
X140970000Y-98298000D03*
X142795000Y-98298000D03*
%TD*%
D43*
%TO.C,C46*%
X155242000Y-64264000D03*
X155242000Y-65989000D03*
%TD*%
%TO.C,C10*%
X180086000Y-137668000D03*
X180086000Y-139393000D03*
%TD*%
D41*
%TO.C,D58*%
X157274000Y-129796000D03*
X160574000Y-129796000D03*
%TD*%
D43*
%TO.C,C72*%
X152702000Y-77726000D03*
X152702000Y-79451000D03*
%TD*%
D45*
%TO.C,D21*%
X137414000Y-138684000D03*
X137414000Y-141984000D03*
%TD*%
D47*
%TO.C,D64*%
X152702000Y-102872000D03*
X152702000Y-99572000D03*
%TD*%
D43*
%TO.C,C38*%
X147368000Y-58930000D03*
X147368000Y-60655000D03*
%TD*%
D48*
%TO.C,R52*%
X197612000Y-94027000D03*
X197612000Y-92202000D03*
%TD*%
D21*
%TO.C,R55*%
X134874000Y-94361000D03*
X134874000Y-96186000D03*
%TD*%
D42*
%TO.C,C41*%
X149654000Y-60655000D03*
X149654000Y-58930000D03*
%TD*%
D45*
%TO.C,D67*%
X155242000Y-72900000D03*
X155242000Y-76200000D03*
%TD*%
%TO.C,D23*%
X155238000Y-113032000D03*
X155238000Y-116332000D03*
%TD*%
D47*
%TO.C,D68*%
X152702000Y-76202000D03*
X152702000Y-72902000D03*
%TD*%
D43*
%TO.C,C34*%
X147366000Y-112524000D03*
X147366000Y-114249000D03*
%TD*%
D18*
%TO.C,C57*%
X140107500Y-91313000D03*
X141832500Y-91313000D03*
%TD*%
D41*
%TO.C,D25*%
X147368000Y-116336000D03*
X150668000Y-116336000D03*
%TD*%
D32*
%TO.C,J5*%
X115062000Y-108712000D03*
X115062000Y-106172000D03*
X115062000Y-103632000D03*
X115062000Y-101092000D03*
X115062000Y-98552000D03*
%TD*%
M02*
