%TF.GenerationSoftware,KiCad,Pcbnew,9.0.4*%
%TF.CreationDate,2026-05-03T18:57:54+09:00*%
%TF.ProjectId,MD_Stable,4d445f53-7461-4626-9c65-2e6b69636164,rev?*%
%TF.SameCoordinates,Original*%
%TF.FileFunction,Paste,Top*%
%TF.FilePolarity,Positive*%
%FSLAX46Y46*%
G04 Gerber Fmt 4.6, Leading zero omitted, Abs format (unit mm)*
G04 Created by KiCad (PCBNEW 9.0.4) date 2026-05-03 18:57:54*
%MOMM*%
%LPD*%
G01*
G04 APERTURE LIST*
G04 Aperture macros list*
%AMRoundRect*
0 Rectangle with rounded corners*
0 $1 Rounding radius*
0 $2 $3 $4 $5 $6 $7 $8 $9 X,Y pos of 4 corners*
0 Add a 4 corners polygon primitive as box body*
4,1,4,$2,$3,$4,$5,$6,$7,$8,$9,$2,$3,0*
0 Add four circle primitives for the rounded corners*
1,1,$1+$1,$2,$3*
1,1,$1+$1,$4,$5*
1,1,$1+$1,$6,$7*
1,1,$1+$1,$8,$9*
0 Add four rect primitives between the rounded corners*
20,1,$1+$1,$2,$3,$4,$5,0*
20,1,$1+$1,$4,$5,$6,$7,0*
20,1,$1+$1,$6,$7,$8,$9,0*
20,1,$1+$1,$8,$9,$2,$3,0*%
G04 Aperture macros list end*
%ADD10RoundRect,0.225000X0.375000X-0.225000X0.375000X0.225000X-0.375000X0.225000X-0.375000X-0.225000X0*%
%ADD11RoundRect,0.237500X-0.237500X0.300000X-0.237500X-0.300000X0.237500X-0.300000X0.237500X0.300000X0*%
%ADD12R,0.600000X0.900000*%
%ADD13R,0.900000X0.600000*%
%ADD14RoundRect,0.150000X0.375000X-0.150000X0.375000X0.150000X-0.375000X0.150000X-0.375000X-0.150000X0*%
%ADD15RoundRect,0.225000X-0.225000X-0.375000X0.225000X-0.375000X0.225000X0.375000X-0.225000X0.375000X0*%
%ADD16RoundRect,0.150000X-0.825000X-0.150000X0.825000X-0.150000X0.825000X0.150000X-0.825000X0.150000X0*%
%ADD17RoundRect,0.162500X-0.617500X-0.162500X0.617500X-0.162500X0.617500X0.162500X-0.617500X0.162500X0*%
%ADD18RoundRect,0.237500X0.237500X-0.250000X0.237500X0.250000X-0.237500X0.250000X-0.237500X-0.250000X0*%
%ADD19RoundRect,0.237500X0.300000X0.237500X-0.300000X0.237500X-0.300000X-0.237500X0.300000X-0.237500X0*%
%ADD20RoundRect,0.225000X-0.375000X0.225000X-0.375000X-0.225000X0.375000X-0.225000X0.375000X0.225000X0*%
%ADD21RoundRect,0.225000X0.225000X0.375000X-0.225000X0.375000X-0.225000X-0.375000X0.225000X-0.375000X0*%
%ADD22RoundRect,0.250000X-1.125000X1.275000X-1.125000X-1.275000X1.125000X-1.275000X1.125000X1.275000X0*%
%ADD23RoundRect,0.250000X-0.350000X0.850000X-0.350000X-0.850000X0.350000X-0.850000X0.350000X0.850000X0*%
%ADD24RoundRect,0.237500X-0.300000X-0.237500X0.300000X-0.237500X0.300000X0.237500X-0.300000X0.237500X0*%
%ADD25RoundRect,0.237500X-0.250000X-0.237500X0.250000X-0.237500X0.250000X0.237500X-0.250000X0.237500X0*%
%ADD26RoundRect,0.237500X0.250000X0.237500X-0.250000X0.237500X-0.250000X-0.237500X0.250000X-0.237500X0*%
%ADD27RoundRect,0.150000X-0.875000X-0.150000X0.875000X-0.150000X0.875000X0.150000X-0.875000X0.150000X0*%
%ADD28RoundRect,0.237500X0.237500X-0.287500X0.237500X0.287500X-0.237500X0.287500X-0.237500X-0.287500X0*%
%ADD29RoundRect,0.237500X0.287500X0.237500X-0.287500X0.237500X-0.287500X-0.237500X0.287500X-0.237500X0*%
%ADD30RoundRect,0.237500X-0.237500X0.250000X-0.237500X-0.250000X0.237500X-0.250000X0.237500X0.250000X0*%
%ADD31RoundRect,0.237500X-0.237500X0.287500X-0.237500X-0.287500X0.237500X-0.287500X0.237500X0.287500X0*%
%ADD32RoundRect,0.400000X0.400000X-0.600000X0.400000X0.600000X-0.400000X0.600000X-0.400000X-0.600000X0*%
%ADD33RoundRect,0.237500X0.237500X-0.300000X0.237500X0.300000X-0.237500X0.300000X-0.237500X-0.300000X0*%
%ADD34RoundRect,0.237500X-0.287500X-0.237500X0.287500X-0.237500X0.287500X0.237500X-0.287500X0.237500X0*%
%ADD35RoundRect,0.125000X-0.625000X-0.125000X0.625000X-0.125000X0.625000X0.125000X-0.625000X0.125000X0*%
%ADD36RoundRect,0.125000X-0.125000X-0.625000X0.125000X-0.625000X0.125000X0.625000X-0.125000X0.625000X0*%
G04 APERTURE END LIST*
D10*
%TO.C,D73*%
X119126000Y-79398000D03*
X119126000Y-82698000D03*
%TD*%
D11*
%TO.C,C85*%
X116078000Y-85852000D03*
X116078000Y-87577000D03*
%TD*%
%TO.C,C83*%
X113538000Y-85852000D03*
X113538000Y-87577000D03*
%TD*%
D12*
%TO.C,Q3*%
X185222000Y-83686000D03*
X185222000Y-84836000D03*
X185222000Y-85986000D03*
X186072000Y-83686000D03*
X186072000Y-84836000D03*
X186072000Y-85986000D03*
X186922000Y-83686000D03*
X186922000Y-84836000D03*
X186922000Y-85986000D03*
X187772000Y-83686000D03*
X187772000Y-84836000D03*
X187772000Y-85986000D03*
D13*
X188772000Y-82931000D03*
X188772000Y-84201000D03*
X188772000Y-85471000D03*
X188772000Y-86741000D03*
D14*
X183047000Y-82931000D03*
X183047000Y-84201000D03*
X183047000Y-85471000D03*
X183047000Y-86741000D03*
%TD*%
D12*
%TO.C,Q6*%
X176332000Y-56635000D03*
X176332000Y-57785000D03*
X176332000Y-58935000D03*
X177182000Y-56635000D03*
X177182000Y-57785000D03*
X177182000Y-58935000D03*
X178032000Y-56635000D03*
X178032000Y-57785000D03*
X178032000Y-58935000D03*
X178882000Y-56635000D03*
X178882000Y-57785000D03*
X178882000Y-58935000D03*
D13*
X179882000Y-55880000D03*
X179882000Y-57150000D03*
X179882000Y-58420000D03*
X179882000Y-59690000D03*
D14*
X174157000Y-55880000D03*
X174157000Y-57150000D03*
X174157000Y-58420000D03*
X174157000Y-59690000D03*
%TD*%
D15*
%TO.C,D55*%
X153972000Y-122430000D03*
X157272000Y-122430000D03*
%TD*%
D16*
%TO.C,U13*%
X146942000Y-112268000D03*
X146942000Y-113538000D03*
X146942000Y-114808000D03*
X146942000Y-116078000D03*
X151892000Y-116078000D03*
X151892000Y-114808000D03*
X151892000Y-113538000D03*
X151892000Y-112268000D03*
%TD*%
D17*
%TO.C,U12*%
X141224000Y-60452000D03*
X141224000Y-61402000D03*
X141224000Y-62352000D03*
X143924000Y-62352000D03*
X143924000Y-60452000D03*
%TD*%
D15*
%TO.C,D57*%
X153972000Y-69090000D03*
X157272000Y-69090000D03*
%TD*%
D18*
%TO.C,R24*%
X136040500Y-114601000D03*
X136040500Y-112776000D03*
%TD*%
D19*
%TO.C,C24*%
X181811000Y-104902000D03*
X180086000Y-104902000D03*
%TD*%
%TO.C,C26*%
X180848000Y-52324000D03*
X179123000Y-52324000D03*
%TD*%
D16*
%TO.C,U15*%
X146942000Y-58928000D03*
X146942000Y-60198000D03*
X146942000Y-61468000D03*
X146942000Y-62738000D03*
X151892000Y-62738000D03*
X151892000Y-61468000D03*
X151892000Y-60198000D03*
X151892000Y-58928000D03*
%TD*%
D18*
%TO.C,R25*%
X134516500Y-119173000D03*
X134516500Y-117348000D03*
%TD*%
D12*
%TO.C,Q1*%
X185222000Y-110356000D03*
X185222000Y-111506000D03*
X185222000Y-112656000D03*
X186072000Y-110356000D03*
X186072000Y-111506000D03*
X186072000Y-112656000D03*
X186922000Y-110356000D03*
X186922000Y-111506000D03*
X186922000Y-112656000D03*
X187772000Y-110356000D03*
X187772000Y-111506000D03*
X187772000Y-112656000D03*
D13*
X188772000Y-109601000D03*
X188772000Y-110871000D03*
X188772000Y-112141000D03*
X188772000Y-113411000D03*
D14*
X183047000Y-109601000D03*
X183047000Y-110871000D03*
X183047000Y-112141000D03*
X183047000Y-113411000D03*
%TD*%
D10*
%TO.C,D70*%
X116586000Y-82698000D03*
X116586000Y-79398000D03*
%TD*%
D15*
%TO.C,D34*%
X153907000Y-109095000D03*
X157207000Y-109095000D03*
%TD*%
%TO.C,D49*%
X153972000Y-124970000D03*
X157272000Y-124970000D03*
%TD*%
D18*
%TO.C,R6*%
X124968000Y-103933000D03*
X124968000Y-102108000D03*
%TD*%
D20*
%TO.C,D4*%
X127000000Y-102110000D03*
X127000000Y-105410000D03*
%TD*%
D10*
%TO.C,D74*%
X127254000Y-82698000D03*
X127254000Y-79398000D03*
%TD*%
D21*
%TO.C,D3*%
X127762000Y-135128000D03*
X124462000Y-135128000D03*
%TD*%
D22*
%TO.C,U4*%
X167393000Y-145648000D03*
X164343000Y-145648000D03*
X167393000Y-148998000D03*
X164343000Y-148998000D03*
D23*
X168148000Y-141023000D03*
X163588000Y-141023000D03*
%TD*%
D24*
%TO.C,C62*%
X184912000Y-67564000D03*
X186637000Y-67564000D03*
%TD*%
D18*
%TO.C,R1*%
X137414000Y-122729000D03*
X137414000Y-120904000D03*
%TD*%
D25*
%TO.C,R50*%
X198073000Y-77724000D03*
X199898000Y-77724000D03*
%TD*%
%TO.C,R28*%
X142748000Y-64262000D03*
X144573000Y-64262000D03*
%TD*%
D26*
%TO.C,R59*%
X176169500Y-94234000D03*
X174344500Y-94234000D03*
%TD*%
D19*
%TO.C,C25*%
X181557000Y-78232000D03*
X179832000Y-78232000D03*
%TD*%
D27*
%TO.C,U6*%
X127000000Y-89916000D03*
X127000000Y-91186000D03*
X127000000Y-92456000D03*
X127000000Y-93726000D03*
X127000000Y-94996000D03*
X127000000Y-96266000D03*
X127000000Y-97536000D03*
X127000000Y-98806000D03*
X136300000Y-98806000D03*
X136300000Y-97536000D03*
X136300000Y-96266000D03*
X136300000Y-94996000D03*
X136300000Y-93726000D03*
X136300000Y-92456000D03*
X136300000Y-91186000D03*
X136300000Y-89916000D03*
%TD*%
D12*
%TO.C,Q2*%
X176332000Y-110356000D03*
X176332000Y-111506000D03*
X176332000Y-112656000D03*
X177182000Y-110356000D03*
X177182000Y-111506000D03*
X177182000Y-112656000D03*
X178032000Y-110356000D03*
X178032000Y-111506000D03*
X178032000Y-112656000D03*
X178882000Y-110356000D03*
X178882000Y-111506000D03*
X178882000Y-112656000D03*
D13*
X179882000Y-109601000D03*
X179882000Y-110871000D03*
X179882000Y-112141000D03*
X179882000Y-113411000D03*
D14*
X174157000Y-109601000D03*
X174157000Y-110871000D03*
X174157000Y-112141000D03*
X174157000Y-113411000D03*
%TD*%
D25*
%TO.C,R69*%
X153972000Y-100332000D03*
X155797000Y-100332000D03*
%TD*%
D28*
%TO.C,D10*%
X130556000Y-149832000D03*
X130556000Y-148082000D03*
%TD*%
D12*
%TO.C,Q7*%
X185222000Y-123818000D03*
X185222000Y-124968000D03*
X185222000Y-126118000D03*
X186072000Y-123818000D03*
X186072000Y-124968000D03*
X186072000Y-126118000D03*
X186922000Y-123818000D03*
X186922000Y-124968000D03*
X186922000Y-126118000D03*
X187772000Y-123818000D03*
X187772000Y-124968000D03*
X187772000Y-126118000D03*
D13*
X188772000Y-123063000D03*
X188772000Y-124333000D03*
X188772000Y-125603000D03*
X188772000Y-126873000D03*
D14*
X183047000Y-123063000D03*
X183047000Y-124333000D03*
X183047000Y-125603000D03*
X183047000Y-126873000D03*
%TD*%
D11*
%TO.C,C14*%
X161290000Y-140515000D03*
X161290000Y-142240000D03*
%TD*%
D29*
%TO.C,D17*%
X139211000Y-135382000D03*
X137461000Y-135382000D03*
%TD*%
D12*
%TO.C,Q11*%
X185222000Y-70224000D03*
X185222000Y-71374000D03*
X185222000Y-72524000D03*
X186072000Y-70224000D03*
X186072000Y-71374000D03*
X186072000Y-72524000D03*
X186922000Y-70224000D03*
X186922000Y-71374000D03*
X186922000Y-72524000D03*
X187772000Y-70224000D03*
X187772000Y-71374000D03*
X187772000Y-72524000D03*
D13*
X188772000Y-69469000D03*
X188772000Y-70739000D03*
X188772000Y-72009000D03*
X188772000Y-73279000D03*
D14*
X183047000Y-69469000D03*
X183047000Y-70739000D03*
X183047000Y-72009000D03*
X183047000Y-73279000D03*
%TD*%
D24*
%TO.C,C50*%
X185166000Y-81026000D03*
X186891000Y-81026000D03*
%TD*%
D15*
%TO.C,D36*%
X153972000Y-55628000D03*
X157272000Y-55628000D03*
%TD*%
D26*
%TO.C,R58*%
X185166000Y-92710000D03*
X183341000Y-92710000D03*
%TD*%
D11*
%TO.C,C11*%
X170434000Y-142748000D03*
X170434000Y-144473000D03*
%TD*%
D26*
%TO.C,R42*%
X185166000Y-106172000D03*
X183341000Y-106172000D03*
%TD*%
D15*
%TO.C,D52*%
X153972000Y-131574000D03*
X157272000Y-131574000D03*
%TD*%
D25*
%TO.C,R27*%
X142748000Y-91186000D03*
X144573000Y-91186000D03*
%TD*%
D28*
%TO.C,D14*%
X109220000Y-149832000D03*
X109220000Y-148082000D03*
%TD*%
D19*
%TO.C,C80*%
X152400000Y-131064000D03*
X150675000Y-131064000D03*
%TD*%
D24*
%TO.C,C63*%
X172519000Y-66040000D03*
X174244000Y-66040000D03*
%TD*%
D25*
%TO.C,R68*%
X153972000Y-127002000D03*
X155797000Y-127002000D03*
%TD*%
D15*
%TO.C,D56*%
X153972000Y-95760000D03*
X157272000Y-95760000D03*
%TD*%
D25*
%TO.C,R34*%
X153972000Y-62740000D03*
X155797000Y-62740000D03*
%TD*%
D19*
%TO.C,C82*%
X152146000Y-77724000D03*
X150421000Y-77724000D03*
%TD*%
D12*
%TO.C,Q8*%
X176332000Y-123818000D03*
X176332000Y-124968000D03*
X176332000Y-126118000D03*
X177182000Y-123818000D03*
X177182000Y-124968000D03*
X177182000Y-126118000D03*
X178032000Y-123818000D03*
X178032000Y-124968000D03*
X178032000Y-126118000D03*
X178882000Y-123818000D03*
X178882000Y-124968000D03*
X178882000Y-126118000D03*
D13*
X179882000Y-123063000D03*
X179882000Y-124333000D03*
X179882000Y-125603000D03*
X179882000Y-126873000D03*
D14*
X174157000Y-123063000D03*
X174157000Y-124333000D03*
X174157000Y-125603000D03*
X174157000Y-126873000D03*
%TD*%
D30*
%TO.C,R20*%
X136040500Y-108411000D03*
X136040500Y-110236000D03*
%TD*%
D16*
%TO.C,U14*%
X146942000Y-85852000D03*
X146942000Y-87122000D03*
X146942000Y-88392000D03*
X146942000Y-89662000D03*
X151892000Y-89662000D03*
X151892000Y-88392000D03*
X151892000Y-87122000D03*
X151892000Y-85852000D03*
%TD*%
D15*
%TO.C,D38*%
X153972000Y-118112000D03*
X157272000Y-118112000D03*
%TD*%
%TO.C,D39*%
X153972000Y-85092000D03*
X157272000Y-85092000D03*
%TD*%
D18*
%TO.C,R14*%
X172212000Y-146304000D03*
X172212000Y-144479000D03*
%TD*%
%TO.C,R35*%
X158798000Y-113333000D03*
X158798000Y-111508000D03*
%TD*%
D24*
%TO.C,C53*%
X172519000Y-52578000D03*
X174244000Y-52578000D03*
%TD*%
D15*
%TO.C,D53*%
X153972000Y-104904000D03*
X157272000Y-104904000D03*
%TD*%
D31*
%TO.C,D5*%
X113284000Y-53904500D03*
X113284000Y-55654500D03*
%TD*%
D25*
%TO.C,R26*%
X142748000Y-117602000D03*
X144573000Y-117602000D03*
%TD*%
D26*
%TO.C,R74*%
X147828000Y-131064000D03*
X146003000Y-131064000D03*
%TD*%
D19*
%TO.C,C81*%
X151892000Y-104648000D03*
X150167000Y-104648000D03*
%TD*%
D32*
%TO.C,F1*%
X130810000Y-142494000D03*
X130810000Y-138494000D03*
%TD*%
D26*
%TO.C,R45*%
X176172500Y-81026000D03*
X174347500Y-81026000D03*
%TD*%
D24*
%TO.C,C49*%
X172773000Y-106172000D03*
X174498000Y-106172000D03*
%TD*%
D26*
%TO.C,R61*%
X176069000Y-67564000D03*
X174244000Y-67564000D03*
%TD*%
D15*
%TO.C,D41*%
X153972000Y-58168000D03*
X157272000Y-58168000D03*
%TD*%
D12*
%TO.C,Q4*%
X176332000Y-83686000D03*
X176332000Y-84836000D03*
X176332000Y-85986000D03*
X177182000Y-83686000D03*
X177182000Y-84836000D03*
X177182000Y-85986000D03*
X178032000Y-83686000D03*
X178032000Y-84836000D03*
X178032000Y-85986000D03*
X178882000Y-83686000D03*
X178882000Y-84836000D03*
X178882000Y-85986000D03*
D13*
X179882000Y-82931000D03*
X179882000Y-84201000D03*
X179882000Y-85471000D03*
X179882000Y-86741000D03*
D14*
X174157000Y-82931000D03*
X174157000Y-84201000D03*
X174157000Y-85471000D03*
X174157000Y-86741000D03*
%TD*%
D15*
%TO.C,D42*%
X153972000Y-64772000D03*
X157272000Y-64772000D03*
%TD*%
D17*
%TO.C,U21*%
X141224000Y-99568000D03*
X141224000Y-100518000D03*
X141224000Y-101468000D03*
X143924000Y-101468000D03*
X143924000Y-99568000D03*
%TD*%
D19*
%TO.C,C7*%
X121666000Y-137668000D03*
X119941000Y-137668000D03*
%TD*%
D17*
%TO.C,U11*%
X141224000Y-87376000D03*
X141224000Y-88326000D03*
X141224000Y-89276000D03*
X143924000Y-89276000D03*
X143924000Y-87376000D03*
%TD*%
D19*
%TO.C,C27*%
X181557000Y-64770000D03*
X179832000Y-64770000D03*
%TD*%
D29*
%TO.C,D48*%
X198092000Y-79248000D03*
X196342000Y-79248000D03*
%TD*%
D15*
%TO.C,D40*%
X153972000Y-91696000D03*
X157272000Y-91696000D03*
%TD*%
D18*
%TO.C,R39*%
X158798000Y-59993000D03*
X158798000Y-58168000D03*
%TD*%
%TO.C,R13*%
X131572000Y-103933000D03*
X131572000Y-102108000D03*
%TD*%
D26*
%TO.C,R60*%
X184912000Y-66040000D03*
X183087000Y-66040000D03*
%TD*%
D18*
%TO.C,R66*%
X158798000Y-73455000D03*
X158798000Y-71630000D03*
%TD*%
D25*
%TO.C,R33*%
X153972000Y-60200000D03*
X155797000Y-60200000D03*
%TD*%
D18*
%TO.C,R67*%
X158750000Y-78232000D03*
X158750000Y-76407000D03*
%TD*%
D20*
%TO.C,D19*%
X159004000Y-140515000D03*
X159004000Y-143815000D03*
%TD*%
D26*
%TO.C,R15*%
X135429000Y-135382000D03*
X133604000Y-135382000D03*
%TD*%
D18*
%TO.C,R65*%
X158750000Y-104902000D03*
X158750000Y-103077000D03*
%TD*%
D30*
%TO.C,R7*%
X113284000Y-57253500D03*
X113284000Y-59078500D03*
%TD*%
D15*
%TO.C,D35*%
X153972000Y-82550000D03*
X157272000Y-82550000D03*
%TD*%
D25*
%TO.C,R71*%
X153972000Y-129542000D03*
X155797000Y-129542000D03*
%TD*%
%TO.C,R72*%
X153972000Y-102872000D03*
X155797000Y-102872000D03*
%TD*%
D18*
%TO.C,R38*%
X158798000Y-91696000D03*
X158798000Y-89871000D03*
%TD*%
D26*
%TO.C,R8*%
X118872000Y-110998000D03*
X117047000Y-110998000D03*
%TD*%
D33*
%TO.C,C4*%
X130810000Y-136398000D03*
X130810000Y-134673000D03*
%TD*%
D25*
%TO.C,R48*%
X198092000Y-128524000D03*
X199917000Y-128524000D03*
%TD*%
D22*
%TO.C,U2*%
X127503000Y-142293000D03*
X124453000Y-142293000D03*
X127503000Y-145643000D03*
X124453000Y-145643000D03*
D23*
X128258000Y-137668000D03*
X123698000Y-137668000D03*
%TD*%
D34*
%TO.C,D43*%
X196342000Y-127000000D03*
X198092000Y-127000000D03*
%TD*%
D24*
%TO.C,C58*%
X184912000Y-121158000D03*
X186637000Y-121158000D03*
%TD*%
D25*
%TO.C,R9*%
X120349000Y-105410000D03*
X122174000Y-105410000D03*
%TD*%
D12*
%TO.C,Q9*%
X185222000Y-96894000D03*
X185222000Y-98044000D03*
X185222000Y-99194000D03*
X186072000Y-96894000D03*
X186072000Y-98044000D03*
X186072000Y-99194000D03*
X186922000Y-96894000D03*
X186922000Y-98044000D03*
X186922000Y-99194000D03*
X187772000Y-96894000D03*
X187772000Y-98044000D03*
X187772000Y-99194000D03*
D13*
X188772000Y-96139000D03*
X188772000Y-97409000D03*
X188772000Y-98679000D03*
X188772000Y-99949000D03*
D14*
X183047000Y-96139000D03*
X183047000Y-97409000D03*
X183047000Y-98679000D03*
X183047000Y-99949000D03*
%TD*%
D15*
%TO.C,D50*%
X153972000Y-98300000D03*
X157272000Y-98300000D03*
%TD*%
D28*
%TO.C,D20*%
X161290000Y-149860000D03*
X161290000Y-148110000D03*
%TD*%
D21*
%TO.C,D18*%
X134514500Y-115316000D03*
X131214500Y-115316000D03*
%TD*%
D17*
%TO.C,U22*%
X141224000Y-72644000D03*
X141224000Y-73594000D03*
X141224000Y-74544000D03*
X143924000Y-74544000D03*
X143924000Y-72644000D03*
%TD*%
D19*
%TO.C,C30*%
X152400000Y-117602000D03*
X150675000Y-117602000D03*
%TD*%
D25*
%TO.C,R30*%
X153972000Y-116080000D03*
X155797000Y-116080000D03*
%TD*%
D18*
%TO.C,R40*%
X158750000Y-64770000D03*
X158750000Y-62945000D03*
%TD*%
D25*
%TO.C,R76*%
X142748000Y-77724000D03*
X144573000Y-77724000D03*
%TD*%
D18*
%TO.C,R19*%
X161290000Y-146558000D03*
X161290000Y-144733000D03*
%TD*%
D25*
%TO.C,R73*%
X153972000Y-76202000D03*
X155797000Y-76202000D03*
%TD*%
D21*
%TO.C,D11*%
X134514500Y-110236000D03*
X131214500Y-110236000D03*
%TD*%
D24*
%TO.C,C61*%
X172619500Y-92710000D03*
X174344500Y-92710000D03*
%TD*%
D34*
%TO.C,D47*%
X196370000Y-76200000D03*
X198120000Y-76200000D03*
%TD*%
D12*
%TO.C,Q5*%
X185222000Y-56635000D03*
X185222000Y-57785000D03*
X185222000Y-58935000D03*
X186072000Y-56635000D03*
X186072000Y-57785000D03*
X186072000Y-58935000D03*
X186922000Y-56635000D03*
X186922000Y-57785000D03*
X186922000Y-58935000D03*
X187772000Y-56635000D03*
X187772000Y-57785000D03*
X187772000Y-58935000D03*
D13*
X188772000Y-55880000D03*
X188772000Y-57150000D03*
X188772000Y-58420000D03*
X188772000Y-59690000D03*
D14*
X183047000Y-55880000D03*
X183047000Y-57150000D03*
X183047000Y-58420000D03*
X183047000Y-59690000D03*
%TD*%
D26*
%TO.C,R56*%
X184912000Y-119634000D03*
X183087000Y-119634000D03*
%TD*%
D17*
%TO.C,U8*%
X141224000Y-83566000D03*
X141224000Y-84516000D03*
X141224000Y-85466000D03*
X143924000Y-85466000D03*
X143924000Y-83566000D03*
%TD*%
%TO.C,U20*%
X141224000Y-125984000D03*
X141224000Y-126934000D03*
X141224000Y-127884000D03*
X143924000Y-127884000D03*
X143924000Y-125984000D03*
%TD*%
D10*
%TO.C,D71*%
X124714000Y-82698000D03*
X124714000Y-79398000D03*
%TD*%
D28*
%TO.C,D12*%
X196088000Y-138938000D03*
X196088000Y-137188000D03*
%TD*%
D25*
%TO.C,R31*%
X153972000Y-87124000D03*
X155797000Y-87124000D03*
%TD*%
D20*
%TO.C,D7*%
X115316000Y-145542000D03*
X115316000Y-148842000D03*
%TD*%
%TO.C,D13*%
X129540000Y-102110000D03*
X129540000Y-105410000D03*
%TD*%
D16*
%TO.C,U19*%
X146942000Y-72390000D03*
X146942000Y-73660000D03*
X146942000Y-74930000D03*
X146942000Y-76200000D03*
X151892000Y-76200000D03*
X151892000Y-74930000D03*
X151892000Y-73660000D03*
X151892000Y-72390000D03*
%TD*%
D25*
%TO.C,R70*%
X153972000Y-73662000D03*
X155797000Y-73662000D03*
%TD*%
D18*
%TO.C,R64*%
X158798000Y-100125000D03*
X158798000Y-98300000D03*
%TD*%
%TO.C,R37*%
X158798000Y-86917000D03*
X158798000Y-85092000D03*
%TD*%
D26*
%TO.C,R57*%
X176069000Y-121158000D03*
X174244000Y-121158000D03*
%TD*%
D21*
%TO.C,D2*%
X128674500Y-118110000D03*
X125374500Y-118110000D03*
%TD*%
D25*
%TO.C,R32*%
X153972000Y-89664000D03*
X155797000Y-89664000D03*
%TD*%
D18*
%TO.C,R62*%
X158798000Y-126795000D03*
X158798000Y-124970000D03*
%TD*%
D26*
%TO.C,R43*%
X176323000Y-107696000D03*
X174498000Y-107696000D03*
%TD*%
D19*
%TO.C,C32*%
X152146000Y-64262000D03*
X150421000Y-64262000D03*
%TD*%
D16*
%TO.C,U18*%
X146942000Y-99060000D03*
X146942000Y-100330000D03*
X146942000Y-101600000D03*
X146942000Y-102870000D03*
X151892000Y-102870000D03*
X151892000Y-101600000D03*
X151892000Y-100330000D03*
X151892000Y-99060000D03*
%TD*%
D28*
%TO.C,D16*%
X172212000Y-149860000D03*
X172212000Y-148110000D03*
%TD*%
D34*
%TO.C,D45*%
X196342000Y-102108000D03*
X198092000Y-102108000D03*
%TD*%
D19*
%TO.C,C31*%
X152146000Y-91186000D03*
X150421000Y-91186000D03*
%TD*%
D29*
%TO.C,D46*%
X198092000Y-105156000D03*
X196342000Y-105156000D03*
%TD*%
D25*
%TO.C,R2*%
X126849500Y-120142000D03*
X128674500Y-120142000D03*
%TD*%
D15*
%TO.C,D54*%
X153972000Y-78234000D03*
X157272000Y-78234000D03*
%TD*%
D17*
%TO.C,U9*%
X141224000Y-56642000D03*
X141224000Y-57592000D03*
X141224000Y-58542000D03*
X143924000Y-58542000D03*
X143924000Y-56642000D03*
%TD*%
D24*
%TO.C,C60*%
X185166000Y-94234000D03*
X186891000Y-94234000D03*
%TD*%
D16*
%TO.C,U17*%
X146850000Y-125700000D03*
X146850000Y-126970000D03*
X146850000Y-128240000D03*
X146850000Y-129510000D03*
X151800000Y-129510000D03*
X151800000Y-128240000D03*
X151800000Y-126970000D03*
X151800000Y-125700000D03*
%TD*%
D18*
%TO.C,R63*%
X158798000Y-131574000D03*
X158798000Y-129749000D03*
%TD*%
%TO.C,R12*%
X110744000Y-148082000D03*
X110744000Y-146257000D03*
%TD*%
D24*
%TO.C,C52*%
X184912000Y-54102000D03*
X186637000Y-54102000D03*
%TD*%
D18*
%TO.C,R11*%
X196088000Y-135532500D03*
X196088000Y-133707500D03*
%TD*%
D33*
%TO.C,C23*%
X136398000Y-88138000D03*
X136398000Y-86413000D03*
%TD*%
D29*
%TO.C,D44*%
X198092000Y-130048000D03*
X196342000Y-130048000D03*
%TD*%
D21*
%TO.C,D15*%
X134366000Y-112776000D03*
X131066000Y-112776000D03*
%TD*%
D10*
%TO.C,D75*%
X135382000Y-82698000D03*
X135382000Y-79398000D03*
%TD*%
D26*
%TO.C,R47*%
X176069000Y-54102000D03*
X174244000Y-54102000D03*
%TD*%
D12*
%TO.C,Q12*%
X176332000Y-70224000D03*
X176332000Y-71374000D03*
X176332000Y-72524000D03*
X177182000Y-70224000D03*
X177182000Y-71374000D03*
X177182000Y-72524000D03*
X178032000Y-70224000D03*
X178032000Y-71374000D03*
X178032000Y-72524000D03*
X178882000Y-70224000D03*
X178882000Y-71374000D03*
X178882000Y-72524000D03*
D13*
X179882000Y-69469000D03*
X179882000Y-70739000D03*
X179882000Y-72009000D03*
X179882000Y-73279000D03*
D14*
X174157000Y-69469000D03*
X174157000Y-70739000D03*
X174157000Y-72009000D03*
X174157000Y-73279000D03*
%TD*%
D25*
%TO.C,R75*%
X142748000Y-104394000D03*
X144573000Y-104394000D03*
%TD*%
D26*
%TO.C,R44*%
X185166000Y-79502000D03*
X183341000Y-79502000D03*
%TD*%
D24*
%TO.C,C51*%
X172622500Y-79502000D03*
X174347500Y-79502000D03*
%TD*%
D19*
%TO.C,C29*%
X181557000Y-91440000D03*
X179832000Y-91440000D03*
%TD*%
D15*
%TO.C,D51*%
X153972000Y-71630000D03*
X157272000Y-71630000D03*
%TD*%
D21*
%TO.C,D8*%
X167386000Y-138430000D03*
X164086000Y-138430000D03*
%TD*%
D24*
%TO.C,C84*%
X132842000Y-64262000D03*
X134567000Y-64262000D03*
%TD*%
D25*
%TO.C,R49*%
X198092000Y-103632000D03*
X199917000Y-103632000D03*
%TD*%
D18*
%TO.C,R10*%
X130556000Y-146351000D03*
X130556000Y-144526000D03*
%TD*%
D24*
%TO.C,C59*%
X172519000Y-119634000D03*
X174244000Y-119634000D03*
%TD*%
D26*
%TO.C,R46*%
X184912000Y-52578000D03*
X183087000Y-52578000D03*
%TD*%
D17*
%TO.C,U10*%
X141224000Y-113792000D03*
X141224000Y-114742000D03*
X141224000Y-115692000D03*
X143924000Y-115692000D03*
X143924000Y-113792000D03*
%TD*%
D19*
%TO.C,C28*%
X181557000Y-118364000D03*
X179832000Y-118364000D03*
%TD*%
D24*
%TO.C,C48*%
X185166000Y-107696000D03*
X186891000Y-107696000D03*
%TD*%
D18*
%TO.C,R36*%
X158798000Y-118157000D03*
X158798000Y-116332000D03*
%TD*%
D12*
%TO.C,Q10*%
X176332000Y-96894000D03*
X176332000Y-98044000D03*
X176332000Y-99194000D03*
X177182000Y-96894000D03*
X177182000Y-98044000D03*
X177182000Y-99194000D03*
X178032000Y-96894000D03*
X178032000Y-98044000D03*
X178032000Y-99194000D03*
X178882000Y-96894000D03*
X178882000Y-98044000D03*
X178882000Y-99194000D03*
D13*
X179882000Y-96139000D03*
X179882000Y-97409000D03*
X179882000Y-98679000D03*
X179882000Y-99949000D03*
D14*
X174157000Y-96139000D03*
X174157000Y-97409000D03*
X174157000Y-98679000D03*
X174157000Y-99949000D03*
%TD*%
D25*
%TO.C,R29*%
X153972000Y-113540000D03*
X155797000Y-113540000D03*
%TD*%
D15*
%TO.C,D37*%
X153972000Y-111508000D03*
X157272000Y-111508000D03*
%TD*%
D10*
%TO.C,D72*%
X132842000Y-82698000D03*
X132842000Y-79398000D03*
%TD*%
D17*
%TO.C,U7*%
X141224000Y-109982000D03*
X141224000Y-110932000D03*
X141224000Y-111882000D03*
X143924000Y-111882000D03*
X143924000Y-109982000D03*
%TD*%
D35*
%TO.C,U3*%
X120800500Y-108706000D03*
X120800500Y-109506000D03*
X120800500Y-110306000D03*
X120800500Y-111106000D03*
X120800500Y-111906000D03*
X120800500Y-112706000D03*
X120800500Y-113506000D03*
X120800500Y-114306000D03*
D36*
X122175500Y-115681000D03*
X122975500Y-115681000D03*
X123775500Y-115681000D03*
X124575500Y-115681000D03*
X125375500Y-115681000D03*
X126175500Y-115681000D03*
X126975500Y-115681000D03*
X127775500Y-115681000D03*
D35*
X129150500Y-114306000D03*
X129150500Y-113506000D03*
X129150500Y-112706000D03*
X129150500Y-111906000D03*
X129150500Y-111106000D03*
X129150500Y-110306000D03*
X129150500Y-109506000D03*
X129150500Y-108706000D03*
D36*
X127775500Y-107331000D03*
X126975500Y-107331000D03*
X126175500Y-107331000D03*
X125375500Y-107331000D03*
X124575500Y-107331000D03*
X123775500Y-107331000D03*
X122975500Y-107331000D03*
X122175500Y-107331000D03*
%TD*%
M02*
