M48
; DRILL file {KiCad 9.0.4} date 2026-05-03T18:57:47+0900
; FORMAT={-:-/ absolute / metric / decimal}
; #@! TF.CreationDate,2026-05-03T18:57:47+09:00
; #@! TF.GenerationSoftware,Kicad,Pcbnew,9.0.4
; #@! TF.FileFunction,MixedPlating,1,2
FMAT,2
METRIC
; #@! TA.AperFunction,Plated,PTH,ViaDrill
T1C0.300
; #@! TA.AperFunction,Plated,PTH,ViaDrill
T2C0.400
; #@! TA.AperFunction,Plated,PTH,ComponentDrill
T3C0.600
; #@! TA.AperFunction,Plated,PTH,ComponentDrill
T4C0.800
; #@! TA.AperFunction,Plated,PTH,ComponentDrill
T5C1.000
; #@! TA.AperFunction,Plated,PTH,ComponentDrill
T6C1.100
; #@! TA.AperFunction,Plated,PTH,ComponentDrill
T7C1.300
; #@! TA.AperFunction,Plated,PTH,ComponentDrill
T8C1.900
; #@! TA.AperFunction,Plated,PTH,ComponentDrill
T9C2.700
; #@! TA.AperFunction,NonPlated,NPTH,ComponentDrill
T10C3.200
%
G90
G05
T1
X101.854Y-62.738
X101.854Y-64.516
X101.854Y-67.056
X101.854Y-69.596
X101.854Y-72.136
X101.854Y-74.93
X101.854Y-78.232
X101.854Y-82.042
X101.854Y-86.614
X101.854Y-90.17
X101.854Y-93.218
X101.854Y-97.028
X101.854Y-100.838
X102.108Y-57.404
X102.108Y-110.998
X102.77Y-60.179
X102.77Y-116.748
X102.77Y-120.283
X102.77Y-123.819
X102.77Y-127.354
X102.77Y-130.89
X102.77Y-134.426
X102.77Y-137.961
X102.77Y-141.497
X104.537Y-58.412
X104.537Y-97.302
X104.537Y-100.838
X104.537Y-114.98
X104.537Y-118.516
X104.537Y-122.051
X104.537Y-125.587
X104.537Y-129.122
X104.537Y-132.658
X104.537Y-136.193
X104.537Y-139.729
X104.537Y-143.264
X104.648Y-62.738
X104.648Y-64.516
X104.648Y-67.056
X104.648Y-69.596
X104.648Y-72.136
X104.648Y-74.93
X104.648Y-78.232
X104.648Y-82.042
X104.648Y-86.614
X104.648Y-90.932
X104.648Y-94.488
X104.648Y-104.394
X104.902Y-107.696
X105.918Y-111.76
X106.305Y-113.212
X106.305Y-116.748
X106.305Y-120.283
X106.305Y-123.819
X106.305Y-127.354
X106.305Y-130.89
X106.305Y-134.426
X106.305Y-137.961
X106.305Y-141.497
X106.426Y-77.216
X106.426Y-101.854
X106.426Y-105.664
X106.934Y-62.992
X106.934Y-65.786
X107.188Y-59.944
X107.188Y-73.406
X107.442Y-70.866
X107.95Y-88.646
X108.073Y-51.341
X108.073Y-104.374
X108.073Y-114.98
X108.073Y-118.516
X108.073Y-122.051
X108.073Y-125.587
X108.073Y-129.122
X108.073Y-132.658
X108.073Y-136.193
X108.073Y-139.729
X108.073Y-143.264
X108.073Y-150.335
X108.204Y-81.026
X108.204Y-95.25
X108.204Y-97.536
X108.458Y-55.118
X108.712Y-110.744
X109.273Y-117.348
X109.273Y-133.604
X109.474Y-108.712
X109.728Y-106.426
X109.728Y-138.176
X109.841Y-53.108
X109.841Y-67.25
X109.841Y-99.07
X109.841Y-113.212
X109.841Y-123.819
X109.841Y-127.354
X109.841Y-130.89
X109.841Y-141.497
X109.982Y-72.644
X109.982Y-74.676
X110.236Y-59.436
X110.236Y-65.024
X110.236Y-83.82
X110.49Y-95.25
X110.744Y-79.248
X110.744Y-89.408
X110.998Y-57.15
X110.998Y-70.866
X110.998Y-105.664
X111.608Y-51.341
X111.608Y-61.947
X111.608Y-69.018
X111.608Y-143.264
X111.608Y-146.8
X111.76Y-66.802
X112.014Y-113.792
X112.268Y-81.28
X112.268Y-102.362
X112.268Y-126.492
X112.268Y-129.794
X112.268Y-132.334
X112.268Y-134.62
X112.268Y-137.668
X112.522Y-99.822
X112.776Y-97.282
X112.776Y-116.078
X112.776Y-118.618
X112.776Y-121.158
X112.776Y-123.698
X113.03Y-88.646
X113.03Y-95.504
X113.03Y-108.204
X113.284Y-75.692
X113.284Y-112.268
X113.376Y-63.715
X113.376Y-106.141
X113.376Y-127.354
X113.376Y-137.961
X113.376Y-148.568
X113.538Y-67.564
X113.543Y-85.852
X113.792Y-73.66
X114.046Y-121.412
X114.554Y-57.15
X114.554Y-59.182
X114.554Y-86.868
X115.062Y-66.182
X115.062Y-83.566
X115.144Y-54.876
X115.144Y-61.947
X115.144Y-72.554
X115.144Y-129.122
X115.144Y-146.8
X115.144Y-150.335
X115.316Y-67.564
X115.57Y-74.422
X115.57Y-127.0
X115.824Y-64.77
X116.078Y-85.852
X116.078Y-89.154
X116.078Y-116.332
X116.332Y-113.506
X116.586Y-80.518
X116.586Y-99.568
X116.586Y-105.918
X116.84Y-114.808
X116.84Y-133.096
X116.912Y-53.108
X116.912Y-102.606
X116.912Y-130.89
X116.912Y-137.961
X116.912Y-141.497
X117.094Y-87.376
X117.819Y-109.801
X117.856Y-94.234
X117.856Y-108.966
X117.856Y-114.156
X118.11Y-57.15
X118.11Y-59.182
X118.11Y-97.028
X118.364Y-144.272
X118.618Y-62.992
X118.618Y-74.422
X118.618Y-133.604
X118.679Y-54.876
X118.679Y-72.554
X118.679Y-118.516
X118.679Y-122.051
X118.679Y-136.193
X118.679Y-139.729
X118.679Y-150.335
X118.872Y-110.998
X119.126Y-81.026
X119.126Y-86.868
X119.126Y-130.556
X119.38Y-88.646
X119.38Y-89.662
X119.38Y-116.586
X119.38Y-128.317
X119.581Y-96.266
X119.634Y-101.854
X119.634Y-103.378
X119.634Y-106.68
X119.888Y-92.964
X119.941Y-137.668
X120.142Y-66.04
X120.142Y-67.564
X120.349Y-105.41
X120.396Y-115.316
X120.447Y-53.108
X120.447Y-99.07
X120.447Y-120.283
X120.447Y-127.354
X120.447Y-148.568
X120.65Y-77.47
X120.65Y-125.73
X121.158Y-59.182
X121.158Y-59.182
X121.158Y-74.422
X121.158Y-107.696
X121.158Y-146.05
X121.412Y-80.518
X121.412Y-82.296
X121.412Y-84.582
X121.412Y-86.868
X121.412Y-89.154
X121.412Y-90.932
X121.412Y-94.234
X121.412Y-117.094
X121.412Y-122.936
X121.666Y-57.15
X121.92Y-134.62
X121.92Y-136.398
X122.174Y-67.564
X122.174Y-72.898
X122.215Y-54.876
X122.215Y-69.018
X122.215Y-76.089
X122.215Y-97.302
X122.215Y-100.838
X122.215Y-104.374
X122.215Y-150.335
X122.428Y-66.04
X122.428Y-114.046
X122.682Y-101.854
X122.682Y-113.03
X122.936Y-91.186
X122.936Y-96.012
X122.936Y-98.298
X122.936Y-133.096
X122.936Y-141.224
X122.936Y-145.034
X123.19Y-86.868
X123.19Y-88.646
X123.19Y-125.73
X123.19Y-129.286
X123.19Y-131.064
X123.19Y-148.082
X123.444Y-53.086
X123.444Y-99.568
X123.698Y-92.456
X123.775Y-107.331
X123.952Y-74.422
X123.983Y-56.644
X123.983Y-81.393
X123.983Y-84.928
X124.206Y-112.268
X124.46Y-114.3
X124.575Y-107.331
X124.714Y-60.198
X124.714Y-67.564
X124.714Y-88.646
X124.714Y-91.186
X124.968Y-72.898
X125.222Y-54.864
X125.222Y-141.868
X125.476Y-99.568
X125.73Y-66.04
X125.73Y-77.978
X125.73Y-110.236
X125.73Y-113.792
X125.73Y-131.064
X125.73Y-133.35
X125.75Y-51.341
X125.75Y-58.412
X125.75Y-69.018
X125.75Y-76.089
X125.75Y-86.696
X125.75Y-125.587
X125.75Y-129.122
X125.75Y-136.193
X125.75Y-139.729
X125.75Y-150.335
X125.984Y-63.246
X126.175Y-115.681
X126.238Y-119.38
X126.238Y-134.874
X126.746Y-56.388
X126.849Y-120.142
X127.0Y-88.646
X127.0Y-98.806
X127.391Y-109.728
X127.508Y-112.321
X127.508Y-117.602
X127.508Y-119.126
X127.518Y-53.108
X127.518Y-60.179
X127.518Y-74.322
X127.518Y-81.393
X127.518Y-84.928
X127.601Y-114.306
X128.016Y-123.19
X128.016Y-141.732
X128.27Y-125.476
X128.524Y-95.641
X128.524Y-99.314
X128.524Y-116.078
X128.524Y-144.78
X128.524Y-144.78
X128.778Y-58.42
X128.778Y-62.992
X128.778Y-68.58
X128.778Y-129.286
X128.778Y-131.064
X128.841Y-93.154
X129.032Y-91.186
X129.032Y-148.082
X129.15Y-109.506
X129.286Y-51.341
X129.286Y-54.876
X129.286Y-72.554
X129.286Y-83.16
X129.286Y-86.696
X129.286Y-107.909
X129.286Y-122.174
X129.501Y-99.861
X129.54Y-135.636
X129.794Y-67.056
X129.794Y-90.17
X129.794Y-117.348
X130.048Y-80.518
X130.048Y-115.062
X130.048Y-119.126
X130.556Y-60.198
X130.556Y-76.708
X130.81Y-134.673
X130.81Y-140.494
X131.054Y-53.108
X131.054Y-56.644
X131.054Y-74.322
X131.054Y-84.928
X131.054Y-127.354
X131.318Y-69.088
X131.318Y-120.396
X131.572Y-107.95
X131.572Y-111.506
X131.572Y-114.046
X131.826Y-108.966
X131.826Y-118.364
X131.826Y-122.174
X132.08Y-78.232
X132.08Y-81.28
X132.334Y-104.394
X132.334Y-115.316
X132.334Y-119.38
X132.822Y-51.341
X132.822Y-54.876
X132.822Y-58.412
X132.822Y-61.947
X132.822Y-72.554
X132.822Y-118.516
X132.822Y-129.122
X132.822Y-139.729
X132.822Y-143.264
X132.822Y-146.8
X132.842Y-95.504
X133.096Y-66.802
X133.096Y-75.184
X133.35Y-68.58
X133.35Y-96.266
X133.35Y-134.366
X133.35Y-136.398
X133.858Y-63.246
X133.858Y-89.154
X133.858Y-89.916
X133.858Y-91.694
X133.858Y-93.472
X133.858Y-103.886
X133.858Y-106.172
X133.858Y-127.254
X134.112Y-124.714
X134.366Y-97.79
X134.517Y-119.173
X134.589Y-53.108
X134.589Y-56.644
X134.589Y-60.179
X134.589Y-74.322
X134.589Y-81.393
X134.589Y-141.497
X134.62Y-130.556
X134.874Y-98.298
X134.874Y-132.588
X135.128Y-76.2
X135.128Y-88.026
X135.128Y-113.792
X135.382Y-65.278
X135.382Y-68.834
X135.382Y-102.616
X135.382Y-109.22
X135.382Y-111.506
X135.636Y-77.978
X135.636Y-105.918
X135.636Y-116.332
X135.636Y-116.332
X136.144Y-104.14
X136.3Y-97.536
X136.357Y-51.341
X136.357Y-54.876
X136.357Y-58.412
X136.357Y-61.947
X136.357Y-72.554
X136.357Y-118.516
X136.357Y-122.051
X136.357Y-129.122
X136.357Y-143.264
X136.357Y-146.8
X136.357Y-150.335
X136.398Y-86.413
X136.652Y-80.264
X136.652Y-136.906
X137.16Y-67.056
X137.414Y-68.58
X137.414Y-84.328
X137.414Y-88.138
X137.414Y-89.154
X137.414Y-140.462
X137.668Y-98.298
X137.668Y-104.14
X137.668Y-106.172
X137.668Y-108.966
X137.668Y-111.76
X137.668Y-111.76
X137.668Y-114.554
X138.125Y-53.108
X138.125Y-56.644
X138.125Y-60.179
X138.125Y-63.715
X138.125Y-74.322
X138.125Y-116.748
X138.125Y-127.354
X138.125Y-148.568
X138.176Y-65.532
X138.763Y-100.759
X138.938Y-138.684
X139.211Y-135.382
X139.334Y-82.435
X139.334Y-89.154
X139.443Y-94.996
X139.446Y-84.328
X139.7Y-51.054
X139.7Y-55.88
X139.7Y-58.42
X139.7Y-60.706
X139.7Y-83.312
X139.893Y-132.658
X139.893Y-146.8
X139.893Y-150.335
X139.954Y-127.508
X139.954Y-129.794
X140.208Y-81.28
X140.208Y-86.36
X140.462Y-59.436
X140.462Y-63.246
X140.462Y-64.77
X140.462Y-66.294
X140.462Y-67.564
X140.462Y-108.966
X140.462Y-120.904
X140.462Y-122.174
X140.462Y-123.698
X140.462Y-124.968
X140.616Y-53.096
X140.616Y-102.594
X140.616Y-106.129
X140.616Y-116.736
X140.716Y-80.264
X140.716Y-94.742
X140.716Y-96.012
X140.716Y-104.14
X140.716Y-107.442
X140.716Y-118.364
X140.97Y-103.378
X140.97Y-129.032
X141.224Y-57.592
X141.224Y-58.542
X141.224Y-62.352
X141.224Y-74.544
X141.224Y-85.466
X141.224Y-89.276
X141.224Y-99.568
X141.224Y-101.468
X141.224Y-105.156
X141.224Y-108.204
X141.224Y-110.932
X141.224Y-111.882
X141.224Y-115.692
X141.224Y-125.984
X141.224Y-127.884
X141.478Y-117.348
X141.478Y-131.318
X141.66Y-134.426
X141.66Y-137.961
X141.66Y-141.497
X141.66Y-145.032
X141.732Y-63.5
X141.732Y-65.278
X141.732Y-66.802
X141.732Y-69.088
X141.732Y-70.866
X141.732Y-118.872
X141.986Y-79.756
X141.986Y-81.026
X142.143Y-75.946
X142.24Y-130.302
X142.383Y-51.329
X142.383Y-54.864
X142.494Y-56.388
X142.494Y-83.312
X142.498Y-73.152
X142.574Y-84.516
X143.002Y-131.064
X143.256Y-71.628
X143.428Y-136.193
X143.428Y-146.8
X143.428Y-150.335
X143.51Y-57.658
X143.51Y-69.85
X143.51Y-76.708
X143.51Y-78.486
X143.51Y-80.01
X143.51Y-93.472
X143.51Y-102.362
X143.51Y-118.364
X143.51Y-121.666
X143.764Y-65.278
X143.764Y-94.488
X143.764Y-96.266
X143.764Y-97.79
X143.764Y-107.442
X143.764Y-124.714
X144.018Y-68.834
X144.018Y-108.204
X144.151Y-53.096
X144.151Y-67.238
X144.151Y-81.381
X144.151Y-106.129
X144.151Y-120.271
X144.151Y-123.807
X144.272Y-75.438
X144.272Y-98.552
X144.272Y-108.966
X144.272Y-129.032
X144.272Y-132.08
X144.272Y-134.112
X144.526Y-79.502
X144.526Y-92.456
X144.526Y-96.774
X144.526Y-129.794
X145.196Y-145.032
X145.196Y-148.568
X145.408Y-70.104
X145.408Y-70.804
X145.408Y-82.804
X145.408Y-83.566
X145.408Y-93.4
X145.408Y-94.1
X145.408Y-96.836
X145.408Y-97.536
X145.408Y-109.474
X145.408Y-110.174
X145.408Y-123.444
X145.408Y-123.952
X145.542Y-56.642
X145.919Y-51.329
X145.919Y-54.864
X146.304Y-56.642
X146.304Y-134.112
X146.558Y-57.658
X146.558Y-64.008
X146.558Y-136.398
X146.812Y-66.04
X146.964Y-146.8
X146.964Y-150.335
X147.32Y-68.326
X147.32Y-78.486
X147.32Y-80.264
X147.32Y-84.836
X147.32Y-91.186
X147.32Y-93.726
X147.32Y-104.648
X147.32Y-106.934
X147.32Y-117.856
X147.32Y-120.396
X147.32Y-124.46
X147.574Y-82.55
X147.574Y-105.156
X147.687Y-53.096
X147.687Y-81.381
X147.687Y-95.523
X147.828Y-65.278
X147.828Y-71.12
X147.828Y-91.948
X147.828Y-98.044
X147.828Y-111.252
X147.828Y-118.618
X148.082Y-69.342
X148.082Y-94.742
X148.082Y-107.95
X148.082Y-121.412
X148.082Y-122.682
X148.336Y-125.476
X148.336Y-128.778
X148.59Y-60.96
X148.59Y-75.184
X148.59Y-87.884
X148.59Y-101.854
X148.59Y-127.762
X148.59Y-132.334
X148.59Y-136.398
X148.731Y-137.961
X148.731Y-145.032
X148.731Y-148.568
X148.844Y-67.056
X148.844Y-76.962
X148.844Y-103.886
X148.844Y-107.442
X148.844Y-115.062
X148.844Y-116.84
X149.02Y-89.664
X149.098Y-62.738
X149.098Y-109.474
X149.352Y-82.804
X149.352Y-95.758
X149.454Y-51.329
X149.454Y-54.864
X149.454Y-136.181
X149.606Y-75.946
X149.606Y-133.096
X149.86Y-56.896
X150.167Y-104.648
X150.368Y-64.262
X150.368Y-80.264
X150.368Y-97.028
X150.368Y-106.934
X150.368Y-108.966
X150.368Y-120.396
X150.368Y-121.666
X150.421Y-77.724
X150.421Y-91.186
X150.499Y-143.264
X150.499Y-146.8
X150.499Y-150.335
X150.622Y-69.088
X150.622Y-85.09
X150.622Y-93.726
X150.622Y-110.236
X150.622Y-111.506
X150.622Y-117.602
X150.622Y-122.936
X150.622Y-124.46
X150.622Y-131.064
X150.876Y-83.566
X150.876Y-118.618
X151.13Y-70.358
X151.13Y-136.652
X151.222Y-53.096
X151.222Y-56.632
X151.222Y-67.238
X151.222Y-81.381
X151.222Y-95.523
X151.222Y-109.665
X151.222Y-123.807
X151.384Y-58.93
X151.384Y-68.58
X151.384Y-72.392
X151.384Y-85.854
X151.384Y-112.27
X151.384Y-125.732
X151.563Y-99.115
X151.638Y-97.028
X151.638Y-106.934
X151.638Y-108.204
X151.638Y-133.096
X151.81Y-61.47
X151.81Y-74.932
X151.81Y-88.394
X151.81Y-101.602
X151.81Y-114.81
X151.81Y-128.272
X151.892Y-69.85
X151.892Y-93.726
X152.146Y-83.058
X152.146Y-94.742
X152.146Y-122.936
X152.267Y-141.497
X152.267Y-145.032
X152.267Y-148.568
X152.4Y-109.22
X152.654Y-67.818
X152.908Y-58.166
X152.908Y-71.628
X152.908Y-80.772
X152.908Y-85.09
X152.908Y-95.504
X152.908Y-111.506
X152.908Y-121.158
X152.908Y-124.714
X152.908Y-137.16
X152.99Y-51.329
X152.99Y-54.864
X152.99Y-69.006
X152.99Y-107.897
X152.99Y-136.181
X153.67Y-93.726
X153.924Y-56.896
X153.924Y-97.028
X153.924Y-106.934
X153.924Y-120.396
X154.035Y-143.264
X154.035Y-146.8
X154.178Y-61.468
X154.178Y-70.358
X154.178Y-74.676
X154.178Y-80.264
X154.178Y-83.82
X154.178Y-101.6
X154.178Y-110.236
X154.178Y-114.808
X154.432Y-128.27
X154.432Y-138.938
X154.686Y-88.392
X154.686Y-136.398
X154.758Y-53.096
X154.758Y-67.238
X154.758Y-81.381
X154.758Y-123.807
X154.758Y-137.949
X154.94Y-93.98
X154.94Y-94.996
X154.94Y-107.95
X154.94Y-112.014
X154.94Y-121.158
X155.194Y-69.088
X155.194Y-98.552
X155.194Y-109.728
X155.194Y-111.508
X155.194Y-122.428
X155.194Y-124.714
X155.194Y-125.476
X155.448Y-71.882
X155.448Y-97.028
X155.622Y-55.628
X155.622Y-56.896
X155.622Y-58.168
X155.622Y-82.552
X155.622Y-95.76
X155.702Y-108.712
X155.702Y-123.19
X155.702Y-137.414
X155.702Y-137.414
X155.956Y-70.866
X155.956Y-85.09
X155.956Y-111.506
X155.956Y-120.904
X156.21Y-65.024
X156.21Y-78.486
X156.21Y-80.518
X156.21Y-91.948
X156.21Y-94.996
X156.21Y-105.41
X156.21Y-106.68
X156.21Y-110.236
X156.21Y-118.364
X156.21Y-121.92
X156.21Y-124.714
X156.21Y-131.572
X156.21Y-133.604
X156.21Y-140.716
X156.464Y-61.468
X156.464Y-66.04
X156.464Y-74.676
X156.464Y-101.6
X156.464Y-114.808
X156.464Y-119.126
X156.464Y-123.698
X156.464Y-138.938
X156.525Y-51.329
X156.525Y-79.613
X156.525Y-93.755
X156.525Y-107.897
X156.525Y-150.323
X156.718Y-127.508
X156.972Y-60.706
X156.972Y-73.914
X156.972Y-87.63
X156.972Y-100.838
X156.972Y-114.046
X156.972Y-120.142
X156.972Y-128.27
X156.972Y-132.842
X156.972Y-136.398
X156.972Y-143.256
X157.226Y-56.896
X157.226Y-88.392
X157.226Y-97.028
X157.226Y-121.158
X157.226Y-139.7
X157.226Y-146.558
X157.272Y-55.628
X157.48Y-70.358
X157.48Y-80.01
X157.48Y-81.28
X157.48Y-150.114
X157.734Y-60.706
X157.734Y-66.294
X157.734Y-67.31
X157.734Y-73.914
X157.734Y-87.376
X157.734Y-93.98
X157.734Y-100.584
X157.734Y-107.188
X157.734Y-114.046
X157.734Y-133.604
X157.988Y-127.508
X158.242Y-92.71
X158.242Y-132.588
X158.293Y-53.096
X158.293Y-81.381
X158.293Y-106.129
X158.293Y-120.271
X158.293Y-123.807
X158.293Y-137.949
X158.293Y-141.485
X158.293Y-145.02
X158.293Y-148.556
X158.496Y-68.326
X158.496Y-69.85
X158.496Y-70.612
X158.496Y-83.312
X158.496Y-109.982
X158.75Y-61.468
X158.75Y-64.77
X158.75Y-66.04
X158.75Y-91.694
X158.798Y-131.574
X159.004Y-88.392
X159.004Y-94.742
X159.025Y-114.787
X159.05Y-128.272
X159.28Y-74.908
X159.512Y-81.28
X159.512Y-90.678
X159.766Y-67.31
X159.766Y-70.104
X159.766Y-77.216
X159.766Y-120.65
X159.766Y-123.444
X160.02Y-59.944
X160.02Y-84.582
X160.02Y-92.456
X160.02Y-139.446
X160.02Y-148.844
X160.061Y-51.329
X160.061Y-54.864
X160.061Y-65.471
X160.061Y-79.613
X160.061Y-93.755
X160.061Y-97.29
X160.061Y-104.362
X160.061Y-107.897
X160.061Y-111.433
X160.061Y-118.504
X160.061Y-132.646
X160.061Y-146.788
X160.061Y-150.323
X160.274Y-71.374
X160.274Y-101.346
X160.274Y-106.172
X160.274Y-114.808
X160.274Y-124.46
X160.274Y-128.27
X160.528Y-74.93
X160.528Y-88.138
X160.76Y-60.728
X161.036Y-119.38
X161.036Y-133.35
X161.29Y-66.04
X161.29Y-78.994
X161.29Y-83.312
X161.29Y-85.852
X161.29Y-92.964
X161.29Y-96.774
X161.29Y-98.552
X161.29Y-109.982
X161.29Y-121.666
X161.29Y-123.444
X161.29Y-125.476
X161.29Y-142.24
X161.417Y-104.267
X161.544Y-63.246
X161.544Y-64.516
X161.544Y-68.326
X161.544Y-69.85
X161.544Y-72.898
X161.544Y-77.724
X161.544Y-81.534
X161.544Y-90.678
X161.544Y-94.742
X161.544Y-106.934
X161.544Y-117.094
X161.544Y-130.81
X161.544Y-132.334
X161.798Y-135.382
X161.829Y-53.096
X161.829Y-56.632
X162.56Y-136.144
X162.56Y-138.43
X162.56Y-138.43
X162.56Y-139.7
X162.56Y-139.7
X162.814Y-131.943
X162.94Y-117.01
X162.97Y-61.1
X162.99Y-74.87
X163.0Y-77.35
X163.02Y-63.22
X163.068Y-88.392
X163.068Y-102.108
X163.068Y-127.762
X163.322Y-52.324
X163.322Y-52.832
X163.322Y-53.34
X163.322Y-53.848
X163.322Y-54.356
X163.322Y-54.864
X163.322Y-55.372
X163.322Y-55.88
X163.322Y-56.388
X163.322Y-56.896
X163.322Y-57.404
X163.322Y-57.912
X163.322Y-58.42
X163.322Y-58.928
X163.576Y-65.278
X163.576Y-65.786
X163.576Y-66.294
X163.576Y-66.802
X163.576Y-67.31
X163.576Y-67.818
X163.576Y-68.326
X163.576Y-68.834
X163.576Y-69.342
X163.576Y-69.85
X163.576Y-70.358
X163.576Y-70.866
X163.576Y-71.374
X163.576Y-71.882
X163.576Y-72.39
X163.576Y-78.994
X163.576Y-79.502
X163.576Y-80.01
X163.576Y-80.518
X163.576Y-81.026
X163.576Y-81.534
X163.576Y-82.042
X163.576Y-82.55
X163.576Y-83.058
X163.576Y-83.566
X163.576Y-84.074
X163.576Y-84.582
X163.576Y-85.09
X163.576Y-85.598
X163.576Y-86.106
X163.576Y-92.202
X163.576Y-92.71
X163.576Y-93.218
X163.576Y-93.726
X163.576Y-94.234
X163.576Y-94.742
X163.576Y-95.25
X163.576Y-95.758
X163.576Y-96.266
X163.576Y-96.774
X163.576Y-97.282
X163.576Y-97.79
X163.576Y-98.298
X163.576Y-98.806
X163.576Y-99.314
X163.576Y-106.172
X163.576Y-106.68
X163.576Y-107.188
X163.576Y-107.696
X163.576Y-108.204
X163.576Y-108.712
X163.576Y-109.22
X163.576Y-109.728
X163.576Y-110.236
X163.576Y-110.744
X163.576Y-111.252
X163.576Y-111.76
X163.576Y-112.268
X163.576Y-112.776
X163.576Y-118.872
X163.576Y-119.38
X163.576Y-119.888
X163.576Y-120.396
X163.576Y-120.904
X163.576Y-121.412
X163.576Y-121.92
X163.576Y-122.428
X163.576Y-122.936
X163.576Y-123.444
X163.576Y-123.952
X163.576Y-124.46
X163.576Y-124.968
X163.576Y-125.476
X163.576Y-125.984
X163.596Y-100.826
X163.596Y-104.362
X163.596Y-114.968
X163.596Y-129.11
X163.596Y-136.181
X163.83Y-52.324
X163.83Y-52.832
X163.83Y-53.34
X163.83Y-53.848
X163.83Y-54.356
X163.83Y-54.864
X163.83Y-55.372
X163.83Y-55.88
X163.83Y-56.388
X163.83Y-56.896
X163.83Y-57.404
X163.83Y-57.912
X163.83Y-58.42
X163.83Y-58.928
X163.83Y-143.51
X164.084Y-65.278
X164.084Y-65.786
X164.084Y-66.294
X164.084Y-66.802
X164.084Y-67.31
X164.084Y-67.818
X164.084Y-68.326
X164.084Y-68.834
X164.084Y-69.342
X164.084Y-69.85
X164.084Y-70.358
X164.084Y-70.866
X164.084Y-71.374
X164.084Y-71.882
X164.084Y-72.39
X164.084Y-78.994
X164.084Y-79.502
X164.084Y-80.01
X164.084Y-80.518
X164.084Y-81.026
X164.084Y-81.534
X164.084Y-82.042
X164.084Y-82.55
X164.084Y-83.058
X164.084Y-83.566
X164.084Y-84.074
X164.084Y-84.582
X164.084Y-85.09
X164.084Y-85.598
X164.084Y-86.106
X164.084Y-92.202
X164.084Y-92.71
X164.084Y-93.218
X164.084Y-93.726
X164.084Y-94.234
X164.084Y-94.742
X164.084Y-95.25
X164.084Y-95.758
X164.084Y-96.266
X164.084Y-96.774
X164.084Y-97.282
X164.084Y-97.79
X164.084Y-98.298
X164.084Y-98.806
X164.084Y-99.314
X164.084Y-106.172
X164.084Y-106.68
X164.084Y-107.188
X164.084Y-107.696
X164.084Y-108.204
X164.084Y-108.712
X164.084Y-109.22
X164.084Y-109.728
X164.084Y-110.236
X164.084Y-110.744
X164.084Y-111.252
X164.084Y-111.76
X164.084Y-112.268
X164.084Y-112.776
X164.084Y-118.872
X164.084Y-119.38
X164.084Y-119.888
X164.084Y-120.396
X164.084Y-120.904
X164.084Y-121.412
X164.084Y-121.92
X164.084Y-122.428
X164.084Y-122.936
X164.084Y-123.444
X164.084Y-123.952
X164.084Y-124.46
X164.084Y-124.968
X164.084Y-125.476
X164.084Y-125.984
X164.338Y-52.07
X164.338Y-52.578
X164.592Y-65.278
X164.592Y-65.786
X164.592Y-66.294
X164.592Y-66.802
X164.592Y-67.31
X164.592Y-67.818
X164.592Y-68.326
X164.592Y-68.834
X164.592Y-69.342
X164.592Y-69.85
X164.592Y-70.358
X164.592Y-70.866
X164.592Y-71.374
X164.592Y-71.882
X164.592Y-72.39
X164.592Y-78.994
X164.592Y-79.502
X164.592Y-80.01
X164.592Y-80.518
X164.592Y-81.026
X164.592Y-81.534
X164.592Y-82.042
X164.592Y-82.55
X164.592Y-83.058
X164.592Y-83.566
X164.592Y-84.074
X164.592Y-84.582
X164.592Y-85.09
X164.592Y-85.598
X164.592Y-86.106
X164.592Y-92.202
X164.592Y-92.71
X164.592Y-93.218
X164.592Y-93.726
X164.592Y-94.234
X164.592Y-94.742
X164.592Y-95.25
X164.592Y-95.758
X164.592Y-96.266
X164.592Y-96.774
X164.592Y-97.282
X164.592Y-97.79
X164.592Y-98.298
X164.592Y-98.806
X164.592Y-99.314
X164.592Y-106.172
X164.592Y-106.68
X164.592Y-107.188
X164.592Y-107.696
X164.592Y-108.204
X164.592Y-108.712
X164.592Y-109.22
X164.592Y-109.728
X164.592Y-110.236
X164.592Y-110.744
X164.592Y-111.252
X164.592Y-111.76
X164.592Y-112.268
X164.592Y-112.776
X164.592Y-118.872
X164.592Y-119.38
X164.592Y-119.888
X164.592Y-120.396
X164.592Y-120.904
X164.592Y-121.412
X164.592Y-121.92
X164.592Y-122.428
X164.592Y-122.936
X164.592Y-123.444
X164.592Y-123.952
X164.592Y-124.46
X164.592Y-124.968
X164.592Y-125.476
X164.592Y-125.984
X164.846Y-52.07
X164.846Y-52.578
X165.1Y-65.278
X165.1Y-65.786
X165.1Y-66.294
X165.1Y-66.802
X165.1Y-67.31
X165.1Y-67.818
X165.1Y-68.326
X165.1Y-68.834
X165.1Y-69.342
X165.1Y-69.85
X165.1Y-70.358
X165.1Y-70.866
X165.1Y-71.374
X165.1Y-71.882
X165.1Y-72.39
X165.1Y-78.994
X165.1Y-79.502
X165.1Y-80.01
X165.1Y-80.518
X165.1Y-81.026
X165.1Y-81.534
X165.1Y-82.042
X165.1Y-82.55
X165.1Y-83.058
X165.1Y-83.566
X165.1Y-84.074
X165.1Y-84.582
X165.1Y-85.09
X165.1Y-85.598
X165.1Y-86.106
X165.1Y-92.202
X165.1Y-92.71
X165.1Y-93.218
X165.1Y-93.726
X165.1Y-94.234
X165.1Y-94.742
X165.1Y-95.25
X165.1Y-95.758
X165.1Y-96.266
X165.1Y-96.774
X165.1Y-97.282
X165.1Y-97.79
X165.1Y-98.298
X165.1Y-98.806
X165.1Y-99.314
X165.1Y-106.172
X165.1Y-106.68
X165.1Y-107.188
X165.1Y-107.696
X165.1Y-108.204
X165.1Y-108.712
X165.1Y-109.22
X165.1Y-109.728
X165.1Y-110.236
X165.1Y-110.744
X165.1Y-111.252
X165.1Y-111.76
X165.1Y-112.268
X165.1Y-112.776
X165.1Y-118.872
X165.1Y-119.38
X165.1Y-119.888
X165.1Y-120.396
X165.1Y-120.904
X165.1Y-121.412
X165.1Y-121.92
X165.1Y-122.428
X165.1Y-122.936
X165.1Y-123.444
X165.1Y-123.952
X165.1Y-124.46
X165.1Y-124.968
X165.1Y-125.476
X165.1Y-125.984
X165.354Y-52.07
X165.354Y-52.578
X165.354Y-90.678
X165.354Y-127.762
X165.364Y-53.096
X165.364Y-56.632
X165.364Y-74.31
X165.364Y-88.452
X165.608Y-130.556
X165.862Y-52.07
X165.862Y-52.578
X165.862Y-60.96
X165.868Y-147.323
X166.37Y-52.07
X166.37Y-52.578
X166.624Y-135.636
X166.878Y-52.07
X166.878Y-52.578
X166.878Y-118.618
X167.132Y-54.864
X167.132Y-58.4
X167.132Y-65.278
X167.132Y-69.006
X167.132Y-72.542
X167.132Y-77.216
X167.132Y-79.756
X167.132Y-83.148
X167.132Y-93.755
X167.132Y-97.29
X167.132Y-100.826
X167.132Y-104.362
X167.132Y-107.897
X167.132Y-111.433
X167.132Y-114.968
X167.132Y-122.039
X167.132Y-125.575
X167.132Y-129.11
X167.132Y-135.636
X167.132Y-136.144
X167.386Y-52.07
X167.386Y-52.578
X167.386Y-63.246
X167.64Y-133.35
X167.64Y-136.144
X167.64Y-136.652
X167.894Y-52.07
X167.894Y-52.578
X168.148Y-133.35
X168.148Y-136.652
X168.148Y-137.16
X168.402Y-52.07
X168.402Y-52.578
X168.402Y-135.382
X168.402Y-137.668
X168.656Y-112.522
X168.656Y-133.35
X168.656Y-137.16
X168.9Y-53.096
X168.9Y-56.632
X168.9Y-67.238
X168.9Y-70.774
X168.9Y-74.31
X168.9Y-81.381
X168.9Y-84.916
X168.9Y-88.452
X168.9Y-95.523
X168.9Y-99.058
X168.9Y-109.665
X168.9Y-120.271
X168.9Y-123.807
X168.91Y-52.07
X168.91Y-52.578
X168.91Y-90.678
X168.91Y-106.426
X168.91Y-135.89
X168.91Y-137.668
X168.91Y-138.176
X169.164Y-60.96
X169.164Y-101.854
X169.164Y-128.016
X169.164Y-130.556
X169.164Y-133.35
X169.418Y-52.07
X169.418Y-52.578
X169.418Y-138.176
X169.418Y-138.684
X169.672Y-133.35
X169.926Y-52.07
X169.926Y-52.578
X169.926Y-138.684
X169.926Y-139.192
X170.18Y-139.7
X170.434Y-52.07
X170.434Y-52.578
X170.434Y-139.192
X170.668Y-54.864
X170.668Y-58.4
X170.668Y-69.006
X170.668Y-72.542
X170.668Y-83.148
X170.668Y-93.755
X170.668Y-97.29
X170.668Y-100.826
X170.668Y-104.362
X170.668Y-107.897
X170.668Y-111.433
X170.668Y-114.968
X170.668Y-122.039
X170.668Y-125.575
X170.668Y-129.11
X170.668Y-136.181
X170.688Y-63.246
X170.688Y-65.278
X170.688Y-79.756
X170.688Y-137.668
X170.688Y-137.668
X170.688Y-139.7
X170.688Y-140.208
X170.942Y-52.07
X170.942Y-52.578
X170.942Y-118.618
X171.196Y-140.208
X171.196Y-140.716
X171.45Y-52.07
X171.45Y-52.578
X171.704Y-140.716
X171.704Y-141.224
X171.958Y-77.216
X171.958Y-141.732
X172.212Y-101.854
X172.212Y-125.73
X172.212Y-128.016
X172.212Y-141.224
X172.435Y-56.632
X172.435Y-70.774
X172.435Y-74.31
X172.435Y-81.381
X172.435Y-84.916
X172.435Y-88.452
X172.435Y-95.523
X172.435Y-99.058
X172.435Y-109.665
X172.435Y-123.807
X172.466Y-90.678
X172.466Y-133.096
X172.466Y-141.732
X172.466Y-142.24
X172.72Y-63.246
X172.78Y-60.71
X172.974Y-114.554
X172.974Y-137.668
X172.974Y-142.24
X172.974Y-142.748
X173.228Y-139.7
X173.228Y-147.32
X173.228Y-149.098
X173.482Y-142.748
X173.482Y-143.256
X173.482Y-143.764
X173.482Y-144.272
X173.482Y-144.78
X173.482Y-145.288
X173.92Y-116.81
X173.99Y-143.256
X173.99Y-143.764
X173.99Y-144.272
X173.99Y-144.78
X173.99Y-145.288
X173.99Y-148.336
X174.132Y-59.69
X174.132Y-73.279
X174.132Y-86.741
X174.132Y-99.949
X174.132Y-113.411
X174.132Y-126.873
X174.203Y-61.935
X174.203Y-76.077
X174.203Y-90.219
X174.203Y-129.11
X174.203Y-132.646
X174.203Y-136.181
X174.244Y-134.874
X174.498Y-102.616
X174.498Y-115.57
X174.498Y-141.224
X174.498Y-143.764
X174.498Y-144.272
X174.498Y-144.78
X174.498Y-145.288
X175.006Y-143.764
X175.006Y-144.272
X175.006Y-144.78
X175.006Y-145.288
X175.514Y-53.34
X175.514Y-53.848
X175.514Y-54.356
X175.514Y-54.864
X175.514Y-55.372
X175.514Y-55.88
X175.514Y-56.388
X175.514Y-56.896
X175.514Y-57.404
X175.514Y-57.912
X175.514Y-58.42
X175.514Y-58.928
X175.514Y-59.436
X175.514Y-59.944
X175.514Y-60.452
X175.514Y-60.96
X175.514Y-61.468
X175.514Y-61.976
X175.514Y-62.484
X175.514Y-62.992
X175.514Y-63.5
X175.514Y-65.786
X175.514Y-66.294
X175.514Y-66.802
X175.514Y-67.31
X175.514Y-67.818
X175.514Y-68.326
X175.514Y-68.834
X175.514Y-69.342
X175.514Y-69.85
X175.514Y-70.358
X175.514Y-70.866
X175.514Y-71.374
X175.514Y-71.882
X175.514Y-72.39
X175.514Y-72.898
X175.514Y-73.406
X175.514Y-73.914
X175.514Y-74.422
X175.514Y-74.93
X175.514Y-75.438
X175.514Y-75.946
X175.514Y-76.454
X175.514Y-76.962
X175.514Y-77.47
X175.514Y-79.502
X175.514Y-80.01
X175.514Y-80.518
X175.514Y-81.026
X175.514Y-81.534
X175.514Y-82.042
X175.514Y-82.55
X175.514Y-83.058
X175.514Y-83.566
X175.514Y-84.074
X175.514Y-84.582
X175.514Y-85.09
X175.514Y-85.598
X175.514Y-86.106
X175.514Y-86.614
X175.514Y-87.122
X175.514Y-87.63
X175.514Y-88.138
X175.514Y-88.646
X175.514Y-89.154
X175.514Y-89.662
X175.514Y-90.17
X175.514Y-90.678
X175.514Y-92.456
X175.514Y-92.964
X175.514Y-93.472
X175.514Y-93.98
X175.514Y-94.488
X175.514Y-94.996
X175.514Y-95.504
X175.514Y-96.012
X175.514Y-96.52
X175.514Y-97.028
X175.514Y-97.536
X175.514Y-98.044
X175.514Y-98.552
X175.514Y-99.06
X175.514Y-99.568
X175.514Y-100.076
X175.514Y-100.584
X175.514Y-101.092
X175.514Y-101.6
X175.514Y-102.108
X175.514Y-102.616
X175.514Y-103.124
X175.514Y-103.632
X175.514Y-104.14
X175.514Y-107.188
X175.514Y-107.696
X175.514Y-108.204
X175.514Y-108.712
X175.514Y-109.22
X175.514Y-109.728
X175.514Y-110.236
X175.514Y-110.744
X175.514Y-111.252
X175.514Y-111.76
X175.514Y-112.268
X175.514Y-112.776
X175.514Y-113.284
X175.514Y-113.792
X175.514Y-114.3
X175.514Y-114.808
X175.514Y-115.316
X175.514Y-115.824
X175.514Y-116.332
X175.514Y-116.84
X175.514Y-119.888
X175.514Y-120.396
X175.514Y-120.904
X175.514Y-121.412
X175.514Y-121.92
X175.514Y-122.428
X175.514Y-122.936
X175.514Y-123.444
X175.514Y-123.952
X175.514Y-124.46
X175.514Y-124.968
X175.514Y-125.476
X175.514Y-125.984
X175.514Y-126.492
X175.514Y-127.0
X175.514Y-127.508
X175.514Y-128.016
X175.514Y-128.524
X175.514Y-129.032
X175.514Y-129.54
X175.514Y-130.048
X175.514Y-132.08
X175.514Y-133.858
X175.514Y-137.922
X175.514Y-140.208
X175.514Y-143.764
X175.514Y-144.272
X175.514Y-144.78
X175.514Y-145.288
X176.022Y-53.34
X176.022Y-53.848
X176.022Y-54.356
X176.022Y-54.864
X176.022Y-55.372
X176.022Y-55.88
X176.022Y-56.388
X176.022Y-56.896
X176.022Y-57.404
X176.022Y-57.912
X176.022Y-58.42
X176.022Y-58.928
X176.022Y-59.436
X176.022Y-59.944
X176.022Y-60.452
X176.022Y-60.96
X176.022Y-61.468
X176.022Y-61.976
X176.022Y-62.484
X176.022Y-62.992
X176.022Y-63.5
X176.022Y-65.786
X176.022Y-66.294
X176.022Y-66.802
X176.022Y-67.31
X176.022Y-67.818
X176.022Y-68.326
X176.022Y-68.834
X176.022Y-69.342
X176.022Y-69.85
X176.022Y-70.358
X176.022Y-70.866
X176.022Y-71.374
X176.022Y-71.882
X176.022Y-72.39
X176.022Y-72.898
X176.022Y-73.406
X176.022Y-73.914
X176.022Y-74.422
X176.022Y-74.93
X176.022Y-75.438
X176.022Y-75.946
X176.022Y-76.454
X176.022Y-76.962
X176.022Y-77.47
X176.022Y-79.502
X176.022Y-80.01
X176.022Y-80.518
X176.022Y-81.026
X176.022Y-81.534
X176.022Y-82.042
X176.022Y-82.55
X176.022Y-83.058
X176.022Y-83.566
X176.022Y-84.074
X176.022Y-84.582
X176.022Y-85.09
X176.022Y-85.598
X176.022Y-86.106
X176.022Y-86.614
X176.022Y-87.122
X176.022Y-87.63
X176.022Y-88.138
X176.022Y-88.646
X176.022Y-89.154
X176.022Y-89.662
X176.022Y-90.17
X176.022Y-90.678
X176.022Y-92.456
X176.022Y-92.964
X176.022Y-93.472
X176.022Y-93.98
X176.022Y-94.488
X176.022Y-94.996
X176.022Y-95.504
X176.022Y-96.012
X176.022Y-96.52
X176.022Y-97.028
X176.022Y-97.536
X176.022Y-98.044
X176.022Y-98.552
X176.022Y-99.06
X176.022Y-99.568
X176.022Y-100.076
X176.022Y-100.584
X176.022Y-101.092
X176.022Y-101.6
X176.022Y-102.108
X176.022Y-102.616
X176.022Y-103.124
X176.022Y-103.632
X176.022Y-104.14
X176.022Y-106.68
X176.022Y-107.188
X176.022Y-107.696
X176.022Y-108.204
X176.022Y-108.712
X176.022Y-109.22
X176.022Y-109.728
X176.022Y-110.236
X176.022Y-110.744
X176.022Y-111.252
X176.022Y-111.76
X176.022Y-112.268
X176.022Y-112.776
X176.022Y-113.284
X176.022Y-113.792
X176.022Y-114.3
X176.022Y-114.808
X176.022Y-115.316
X176.022Y-115.824
X176.022Y-116.332
X176.022Y-116.84
X176.022Y-119.888
X176.022Y-120.396
X176.022Y-120.904
X176.022Y-121.412
X176.022Y-121.92
X176.022Y-122.428
X176.022Y-122.936
X176.022Y-123.444
X176.022Y-123.952
X176.022Y-124.46
X176.022Y-124.968
X176.022Y-125.476
X176.022Y-125.984
X176.022Y-126.492
X176.022Y-127.0
X176.022Y-127.508
X176.022Y-128.016
X176.022Y-128.524
X176.022Y-129.032
X176.022Y-129.54
X176.022Y-130.048
X176.022Y-130.556
X176.022Y-143.764
X176.022Y-144.272
X176.022Y-144.78
X176.022Y-145.288
X176.53Y-53.34
X176.53Y-53.848
X176.53Y-54.356
X176.53Y-54.864
X176.53Y-55.372
X176.53Y-55.88
X176.53Y-56.388
X176.53Y-56.896
X176.53Y-57.404
X176.53Y-57.912
X176.53Y-58.42
X176.53Y-58.928
X176.53Y-59.436
X176.53Y-59.944
X176.53Y-60.452
X176.53Y-60.96
X176.53Y-61.468
X176.53Y-61.976
X176.53Y-62.484
X176.53Y-62.992
X176.53Y-63.5
X176.53Y-65.786
X176.53Y-66.294
X176.53Y-66.802
X176.53Y-67.31
X176.53Y-67.818
X176.53Y-68.326
X176.53Y-68.834
X176.53Y-69.342
X176.53Y-69.85
X176.53Y-70.358
X176.53Y-70.866
X176.53Y-71.374
X176.53Y-71.882
X176.53Y-72.39
X176.53Y-72.898
X176.53Y-73.406
X176.53Y-73.914
X176.53Y-74.422
X176.53Y-74.93
X176.53Y-75.438
X176.53Y-75.946
X176.53Y-76.454
X176.53Y-76.962
X176.53Y-77.47
X176.53Y-79.502
X176.53Y-80.01
X176.53Y-80.518
X176.53Y-81.026
X176.53Y-81.534
X176.53Y-82.042
X176.53Y-82.55
X176.53Y-83.058
X176.53Y-83.566
X176.53Y-84.074
X176.53Y-84.582
X176.53Y-85.09
X176.53Y-85.598
X176.53Y-86.106
X176.53Y-86.614
X176.53Y-87.122
X176.53Y-87.63
X176.53Y-88.138
X176.53Y-88.646
X176.53Y-89.154
X176.53Y-89.662
X176.53Y-90.17
X176.53Y-90.678
X176.53Y-92.456
X176.53Y-92.964
X176.53Y-93.472
X176.53Y-93.98
X176.53Y-94.488
X176.53Y-94.996
X176.53Y-95.504
X176.53Y-96.012
X176.53Y-96.52
X176.53Y-97.028
X176.53Y-97.536
X176.53Y-98.044
X176.53Y-98.552
X176.53Y-99.06
X176.53Y-99.568
X176.53Y-100.076
X176.53Y-100.584
X176.53Y-101.092
X176.53Y-101.6
X176.53Y-102.108
X176.53Y-102.616
X176.53Y-103.124
X176.53Y-103.632
X176.53Y-104.14
X176.53Y-106.68
X176.53Y-107.188
X176.53Y-107.696
X176.53Y-108.204
X176.53Y-108.712
X176.53Y-109.22
X176.53Y-109.728
X176.53Y-110.236
X176.53Y-110.744
X176.53Y-111.252
X176.53Y-111.76
X176.53Y-112.268
X176.53Y-112.776
X176.53Y-113.284
X176.53Y-113.792
X176.53Y-114.3
X176.53Y-114.808
X176.53Y-115.316
X176.53Y-115.824
X176.53Y-116.332
X176.53Y-116.84
X176.53Y-119.888
X176.53Y-120.396
X176.53Y-120.904
X176.53Y-121.412
X176.53Y-121.92
X176.53Y-122.428
X176.53Y-122.936
X176.53Y-123.444
X176.53Y-123.952
X176.53Y-124.46
X176.53Y-124.968
X176.53Y-125.476
X176.53Y-125.984
X176.53Y-126.492
X176.53Y-127.0
X176.53Y-127.508
X176.53Y-128.016
X176.53Y-128.524
X176.53Y-129.032
X176.53Y-129.54
X176.53Y-130.048
X176.53Y-130.556
X177.038Y-53.34
X177.038Y-53.848
X177.038Y-54.356
X177.038Y-54.864
X177.038Y-55.372
X177.038Y-55.88
X177.038Y-56.388
X177.038Y-56.896
X177.038Y-57.404
X177.038Y-57.912
X177.038Y-58.42
X177.038Y-58.928
X177.038Y-59.436
X177.038Y-59.944
X177.038Y-60.452
X177.038Y-60.96
X177.038Y-61.468
X177.038Y-61.976
X177.038Y-62.484
X177.038Y-62.992
X177.038Y-63.5
X177.038Y-65.786
X177.038Y-66.294
X177.038Y-66.802
X177.038Y-67.31
X177.038Y-67.818
X177.038Y-68.326
X177.038Y-68.834
X177.038Y-69.342
X177.038Y-69.85
X177.038Y-70.358
X177.038Y-70.866
X177.038Y-71.374
X177.038Y-71.882
X177.038Y-72.39
X177.038Y-72.898
X177.038Y-73.406
X177.038Y-73.914
X177.038Y-74.422
X177.038Y-74.93
X177.038Y-75.438
X177.038Y-75.946
X177.038Y-76.454
X177.038Y-76.962
X177.038Y-77.47
X177.038Y-79.502
X177.038Y-80.01
X177.038Y-80.518
X177.038Y-81.026
X177.038Y-81.534
X177.038Y-82.042
X177.038Y-82.55
X177.038Y-83.058
X177.038Y-83.566
X177.038Y-84.074
X177.038Y-84.582
X177.038Y-85.09
X177.038Y-85.598
X177.038Y-86.106
X177.038Y-86.614
X177.038Y-87.122
X177.038Y-87.63
X177.038Y-88.138
X177.038Y-88.646
X177.038Y-89.154
X177.038Y-89.662
X177.038Y-90.17
X177.038Y-90.678
X177.038Y-92.456
X177.038Y-92.964
X177.038Y-93.472
X177.038Y-93.98
X177.038Y-94.488
X177.038Y-94.996
X177.038Y-95.504
X177.038Y-96.012
X177.038Y-96.52
X177.038Y-97.028
X177.038Y-97.536
X177.038Y-98.044
X177.038Y-98.552
X177.038Y-99.06
X177.038Y-99.568
X177.038Y-100.076
X177.038Y-100.584
X177.038Y-101.092
X177.038Y-101.6
X177.038Y-102.108
X177.038Y-102.616
X177.038Y-103.124
X177.038Y-103.632
X177.038Y-104.14
X177.038Y-106.68
X177.038Y-107.188
X177.038Y-107.696
X177.038Y-108.204
X177.038Y-108.712
X177.038Y-109.22
X177.038Y-109.728
X177.038Y-110.236
X177.038Y-110.744
X177.038Y-111.252
X177.038Y-111.76
X177.038Y-112.268
X177.038Y-112.776
X177.038Y-113.284
X177.038Y-113.792
X177.038Y-114.3
X177.038Y-114.808
X177.038Y-115.316
X177.038Y-115.824
X177.038Y-116.332
X177.038Y-116.84
X177.038Y-119.888
X177.038Y-120.396
X177.038Y-120.904
X177.038Y-121.412
X177.038Y-121.92
X177.038Y-122.428
X177.038Y-122.936
X177.038Y-123.444
X177.038Y-123.952
X177.038Y-124.46
X177.038Y-124.968
X177.038Y-125.476
X177.038Y-125.984
X177.038Y-126.492
X177.038Y-127.0
X177.038Y-127.508
X177.038Y-128.016
X177.038Y-128.524
X177.038Y-129.032
X177.038Y-129.54
X177.038Y-130.048
X177.038Y-130.556
X177.546Y-53.34
X177.546Y-53.848
X177.546Y-54.356
X177.546Y-54.864
X177.546Y-55.372
X177.546Y-55.88
X177.546Y-56.388
X177.546Y-56.896
X177.546Y-57.404
X177.546Y-57.912
X177.546Y-58.42
X177.546Y-58.928
X177.546Y-59.436
X177.546Y-59.944
X177.546Y-60.452
X177.546Y-60.96
X177.546Y-61.468
X177.546Y-61.976
X177.546Y-62.484
X177.546Y-62.992
X177.546Y-63.5
X177.546Y-65.786
X177.546Y-66.294
X177.546Y-66.802
X177.546Y-67.31
X177.546Y-67.818
X177.546Y-68.326
X177.546Y-68.834
X177.546Y-69.342
X177.546Y-69.85
X177.546Y-70.358
X177.546Y-70.866
X177.546Y-71.374
X177.546Y-71.882
X177.546Y-72.39
X177.546Y-72.898
X177.546Y-73.406
X177.546Y-73.914
X177.546Y-74.422
X177.546Y-74.93
X177.546Y-75.438
X177.546Y-75.946
X177.546Y-76.454
X177.546Y-76.962
X177.546Y-77.47
X177.546Y-79.502
X177.546Y-80.01
X177.546Y-80.518
X177.546Y-81.026
X177.546Y-81.534
X177.546Y-82.042
X177.546Y-82.55
X177.546Y-83.058
X177.546Y-83.566
X177.546Y-84.074
X177.546Y-84.582
X177.546Y-85.09
X177.546Y-85.598
X177.546Y-86.106
X177.546Y-86.614
X177.546Y-87.122
X177.546Y-87.63
X177.546Y-88.138
X177.546Y-88.646
X177.546Y-89.154
X177.546Y-89.662
X177.546Y-90.17
X177.546Y-90.678
X177.546Y-92.456
X177.546Y-92.964
X177.546Y-93.472
X177.546Y-93.98
X177.546Y-94.488
X177.546Y-94.996
X177.546Y-95.504
X177.546Y-96.012
X177.546Y-96.52
X177.546Y-97.028
X177.546Y-97.536
X177.546Y-98.044
X177.546Y-98.552
X177.546Y-99.06
X177.546Y-99.568
X177.546Y-100.076
X177.546Y-100.584
X177.546Y-101.092
X177.546Y-101.6
X177.546Y-102.108
X177.546Y-102.616
X177.546Y-103.124
X177.546Y-103.632
X177.546Y-104.14
X177.546Y-106.68
X177.546Y-107.188
X177.546Y-107.696
X177.546Y-108.204
X177.546Y-108.712
X177.546Y-109.22
X177.546Y-109.728
X177.546Y-110.236
X177.546Y-110.744
X177.546Y-111.252
X177.546Y-111.76
X177.546Y-112.268
X177.546Y-112.776
X177.546Y-113.284
X177.546Y-113.792
X177.546Y-114.3
X177.546Y-114.808
X177.546Y-115.316
X177.546Y-115.824
X177.546Y-116.332
X177.546Y-116.84
X177.546Y-119.888
X177.546Y-120.396
X177.546Y-120.904
X177.546Y-121.412
X177.546Y-121.92
X177.546Y-122.428
X177.546Y-122.936
X177.546Y-123.444
X177.546Y-123.952
X177.546Y-124.46
X177.546Y-124.968
X177.546Y-125.476
X177.546Y-125.984
X177.546Y-126.492
X177.546Y-127.0
X177.546Y-127.508
X177.546Y-128.016
X177.546Y-128.524
X177.546Y-129.032
X177.546Y-129.54
X177.546Y-130.048
X177.546Y-130.556
X177.739Y-132.646
X177.739Y-136.181
X178.054Y-53.34
X178.054Y-53.848
X178.054Y-54.356
X178.054Y-54.864
X178.054Y-55.372
X178.054Y-55.88
X178.054Y-56.388
X178.054Y-56.896
X178.054Y-57.404
X178.054Y-57.912
X178.054Y-58.42
X178.054Y-58.928
X178.054Y-59.436
X178.054Y-59.944
X178.054Y-60.452
X178.054Y-60.96
X178.054Y-61.468
X178.054Y-61.976
X178.054Y-62.484
X178.054Y-62.992
X178.054Y-63.5
X178.054Y-65.786
X178.054Y-66.294
X178.054Y-66.802
X178.054Y-67.31
X178.054Y-67.818
X178.054Y-68.326
X178.054Y-68.834
X178.054Y-69.342
X178.054Y-69.85
X178.054Y-70.358
X178.054Y-70.866
X178.054Y-71.374
X178.054Y-71.882
X178.054Y-72.39
X178.054Y-72.898
X178.054Y-73.406
X178.054Y-73.914
X178.054Y-74.422
X178.054Y-74.93
X178.054Y-75.438
X178.054Y-75.946
X178.054Y-76.454
X178.054Y-76.962
X178.054Y-77.47
X178.054Y-79.502
X178.054Y-80.01
X178.054Y-80.518
X178.054Y-81.026
X178.054Y-81.534
X178.054Y-82.042
X178.054Y-82.55
X178.054Y-83.058
X178.054Y-83.566
X178.054Y-84.074
X178.054Y-84.582
X178.054Y-85.09
X178.054Y-85.598
X178.054Y-86.106
X178.054Y-86.614
X178.054Y-87.122
X178.054Y-87.63
X178.054Y-88.138
X178.054Y-88.646
X178.054Y-89.154
X178.054Y-89.662
X178.054Y-90.17
X178.054Y-90.678
X178.054Y-92.456
X178.054Y-92.964
X178.054Y-93.472
X178.054Y-93.98
X178.054Y-94.488
X178.054Y-94.996
X178.054Y-95.504
X178.054Y-96.012
X178.054Y-96.52
X178.054Y-97.028
X178.054Y-97.536
X178.054Y-98.044
X178.054Y-98.552
X178.054Y-99.06
X178.054Y-99.568
X178.054Y-100.076
X178.054Y-100.584
X178.054Y-101.092
X178.054Y-101.6
X178.054Y-102.108
X178.054Y-102.616
X178.054Y-103.124
X178.054Y-103.632
X178.054Y-104.14
X178.054Y-106.68
X178.054Y-107.188
X178.054Y-107.696
X178.054Y-108.204
X178.054Y-108.712
X178.054Y-109.22
X178.054Y-109.728
X178.054Y-110.236
X178.054Y-110.744
X178.054Y-111.252
X178.054Y-111.76
X178.054Y-112.268
X178.054Y-112.776
X178.054Y-113.284
X178.054Y-113.792
X178.054Y-114.3
X178.054Y-114.808
X178.054Y-115.316
X178.054Y-115.824
X178.054Y-116.332
X178.054Y-116.84
X178.054Y-119.888
X178.054Y-120.396
X178.054Y-120.904
X178.054Y-121.412
X178.054Y-121.92
X178.054Y-122.428
X178.054Y-122.936
X178.054Y-123.444
X178.054Y-123.952
X178.054Y-124.46
X178.054Y-124.968
X178.054Y-125.476
X178.054Y-125.984
X178.054Y-126.492
X178.054Y-127.0
X178.054Y-127.508
X178.054Y-128.016
X178.054Y-128.524
X178.054Y-129.032
X178.054Y-129.54
X178.054Y-130.048
X178.054Y-130.556
X178.054Y-138.684
X178.562Y-53.34
X178.562Y-53.848
X178.562Y-54.356
X178.562Y-54.864
X178.562Y-55.372
X178.562Y-55.88
X178.562Y-56.388
X178.562Y-56.896
X178.562Y-57.404
X178.562Y-57.912
X178.562Y-58.42
X178.562Y-58.928
X178.562Y-59.436
X178.562Y-59.944
X178.562Y-60.452
X178.562Y-60.96
X178.562Y-61.468
X178.562Y-61.976
X178.562Y-62.484
X178.562Y-62.992
X178.562Y-63.5
X178.562Y-65.786
X178.562Y-66.294
X178.562Y-66.802
X178.562Y-67.31
X178.562Y-67.818
X178.562Y-68.326
X178.562Y-68.834
X178.562Y-69.342
X178.562Y-69.85
X178.562Y-70.358
X178.562Y-70.866
X178.562Y-71.374
X178.562Y-71.882
X178.562Y-72.39
X178.562Y-72.898
X178.562Y-73.406
X178.562Y-73.914
X178.562Y-74.422
X178.562Y-74.93
X178.562Y-75.438
X178.562Y-75.946
X178.562Y-76.454
X178.562Y-76.962
X178.562Y-77.47
X178.562Y-79.502
X178.562Y-80.01
X178.562Y-80.518
X178.562Y-81.026
X178.562Y-81.534
X178.562Y-82.042
X178.562Y-82.55
X178.562Y-83.058
X178.562Y-83.566
X178.562Y-84.074
X178.562Y-84.582
X178.562Y-85.09
X178.562Y-85.598
X178.562Y-86.106
X178.562Y-86.614
X178.562Y-87.122
X178.562Y-87.63
X178.562Y-88.138
X178.562Y-88.646
X178.562Y-89.154
X178.562Y-89.662
X178.562Y-90.17
X178.562Y-90.678
X178.562Y-92.456
X178.562Y-92.964
X178.562Y-93.472
X178.562Y-93.98
X178.562Y-94.488
X178.562Y-94.996
X178.562Y-95.504
X178.562Y-96.012
X178.562Y-96.52
X178.562Y-97.028
X178.562Y-97.536
X178.562Y-98.044
X178.562Y-98.552
X178.562Y-99.06
X178.562Y-99.568
X178.562Y-100.076
X178.562Y-100.584
X178.562Y-101.092
X178.562Y-101.6
X178.562Y-102.108
X178.562Y-102.616
X178.562Y-103.124
X178.562Y-103.632
X178.562Y-104.14
X178.562Y-106.68
X178.562Y-107.188
X178.562Y-107.696
X178.562Y-108.204
X178.562Y-108.712
X178.562Y-109.22
X178.562Y-109.728
X178.562Y-110.236
X178.562Y-110.744
X178.562Y-111.252
X178.562Y-111.76
X178.562Y-112.268
X178.562Y-112.776
X178.562Y-113.284
X178.562Y-113.792
X178.562Y-114.3
X178.562Y-114.808
X178.562Y-115.316
X178.562Y-115.824
X178.562Y-116.332
X178.562Y-116.84
X178.562Y-119.888
X178.562Y-120.396
X178.562Y-120.904
X178.562Y-121.412
X178.562Y-121.92
X178.562Y-122.428
X178.562Y-122.936
X178.562Y-123.444
X178.562Y-123.952
X178.562Y-124.46
X178.562Y-124.968
X178.562Y-125.476
X178.562Y-125.984
X178.562Y-126.492
X178.562Y-127.0
X178.562Y-127.508
X178.562Y-128.016
X178.562Y-128.524
X178.562Y-129.032
X178.562Y-129.54
X178.562Y-130.048
X178.562Y-130.556
X178.562Y-143.764
X178.562Y-144.272
X179.07Y-53.34
X179.07Y-53.848
X179.07Y-54.356
X179.07Y-54.864
X179.07Y-55.372
X179.07Y-55.88
X179.07Y-56.388
X179.07Y-56.896
X179.07Y-57.404
X179.07Y-57.912
X179.07Y-58.42
X179.07Y-58.928
X179.07Y-59.436
X179.07Y-59.944
X179.07Y-60.452
X179.07Y-60.96
X179.07Y-61.468
X179.07Y-61.976
X179.07Y-62.484
X179.07Y-62.992
X179.07Y-63.5
X179.07Y-65.786
X179.07Y-66.294
X179.07Y-66.802
X179.07Y-67.31
X179.07Y-67.818
X179.07Y-68.326
X179.07Y-68.834
X179.07Y-69.342
X179.07Y-69.85
X179.07Y-70.358
X179.07Y-70.866
X179.07Y-71.374
X179.07Y-71.882
X179.07Y-72.39
X179.07Y-72.898
X179.07Y-73.406
X179.07Y-73.914
X179.07Y-74.422
X179.07Y-74.93
X179.07Y-75.438
X179.07Y-75.946
X179.07Y-76.454
X179.07Y-76.962
X179.07Y-79.502
X179.07Y-80.01
X179.07Y-80.518
X179.07Y-81.026
X179.07Y-81.534
X179.07Y-82.042
X179.07Y-82.55
X179.07Y-83.058
X179.07Y-83.566
X179.07Y-84.074
X179.07Y-84.582
X179.07Y-85.09
X179.07Y-85.598
X179.07Y-86.106
X179.07Y-86.614
X179.07Y-87.122
X179.07Y-87.63
X179.07Y-88.138
X179.07Y-88.646
X179.07Y-89.154
X179.07Y-89.662
X179.07Y-90.17
X179.07Y-92.456
X179.07Y-92.964
X179.07Y-93.472
X179.07Y-93.98
X179.07Y-94.488
X179.07Y-94.996
X179.07Y-95.504
X179.07Y-96.012
X179.07Y-96.52
X179.07Y-97.028
X179.07Y-97.536
X179.07Y-98.044
X179.07Y-98.552
X179.07Y-99.06
X179.07Y-99.568
X179.07Y-100.076
X179.07Y-100.584
X179.07Y-101.092
X179.07Y-101.6
X179.07Y-102.108
X179.07Y-102.616
X179.07Y-103.124
X179.07Y-103.632
X179.07Y-104.14
X179.07Y-106.68
X179.07Y-107.188
X179.07Y-107.696
X179.07Y-108.204
X179.07Y-108.712
X179.07Y-109.22
X179.07Y-109.728
X179.07Y-110.236
X179.07Y-110.744
X179.07Y-111.252
X179.07Y-111.76
X179.07Y-112.268
X179.07Y-112.776
X179.07Y-113.284
X179.07Y-113.792
X179.07Y-114.3
X179.07Y-114.808
X179.07Y-115.316
X179.07Y-115.824
X179.07Y-116.332
X179.07Y-116.84
X179.07Y-119.888
X179.07Y-120.396
X179.07Y-120.904
X179.07Y-121.412
X179.07Y-121.92
X179.07Y-122.428
X179.07Y-122.936
X179.07Y-123.444
X179.07Y-123.952
X179.07Y-124.46
X179.07Y-124.968
X179.07Y-125.476
X179.07Y-125.984
X179.07Y-126.492
X179.07Y-127.0
X179.07Y-127.508
X179.07Y-128.016
X179.07Y-128.524
X179.07Y-129.032
X179.07Y-129.54
X179.07Y-130.048
X179.07Y-130.556
X179.07Y-132.08
X179.07Y-143.764
X179.07Y-144.272
X179.324Y-148.59
X179.324Y-149.098
X179.324Y-149.606
X179.324Y-150.114
X179.578Y-53.34
X179.578Y-53.848
X179.578Y-54.356
X179.578Y-54.864
X179.578Y-55.372
X179.578Y-55.88
X179.578Y-56.388
X179.578Y-56.896
X179.578Y-57.404
X179.578Y-57.912
X179.578Y-58.42
X179.578Y-58.928
X179.578Y-59.436
X179.578Y-59.944
X179.578Y-60.452
X179.578Y-60.96
X179.578Y-61.468
X179.578Y-61.976
X179.578Y-62.484
X179.578Y-62.992
X179.578Y-63.5
X179.578Y-65.786
X179.578Y-66.294
X179.578Y-66.802
X179.578Y-67.31
X179.578Y-67.818
X179.578Y-68.326
X179.578Y-68.834
X179.578Y-69.342
X179.578Y-69.85
X179.578Y-70.358
X179.578Y-70.866
X179.578Y-71.374
X179.578Y-71.882
X179.578Y-72.39
X179.578Y-72.898
X179.578Y-73.406
X179.578Y-73.914
X179.578Y-74.422
X179.578Y-74.93
X179.578Y-75.438
X179.578Y-75.946
X179.578Y-76.454
X179.578Y-76.962
X179.578Y-79.502
X179.578Y-80.01
X179.578Y-80.518
X179.578Y-81.026
X179.578Y-81.534
X179.578Y-82.042
X179.578Y-82.55
X179.578Y-83.058
X179.578Y-83.566
X179.578Y-84.074
X179.578Y-84.582
X179.578Y-85.09
X179.578Y-85.598
X179.578Y-86.106
X179.578Y-86.614
X179.578Y-87.122
X179.578Y-87.63
X179.578Y-88.138
X179.578Y-88.646
X179.578Y-89.154
X179.578Y-89.662
X179.578Y-90.17
X179.578Y-92.456
X179.578Y-92.964
X179.578Y-93.472
X179.578Y-93.98
X179.578Y-94.488
X179.578Y-94.996
X179.578Y-95.504
X179.578Y-96.012
X179.578Y-96.52
X179.578Y-97.028
X179.578Y-97.536
X179.578Y-98.044
X179.578Y-98.552
X179.578Y-99.06
X179.578Y-99.568
X179.578Y-100.076
X179.578Y-100.584
X179.578Y-101.092
X179.578Y-101.6
X179.578Y-102.108
X179.578Y-102.616
X179.578Y-103.124
X179.578Y-103.632
X179.578Y-106.68
X179.578Y-107.188
X179.578Y-107.696
X179.578Y-108.204
X179.578Y-108.712
X179.578Y-109.22
X179.578Y-109.728
X179.578Y-110.236
X179.578Y-110.744
X179.578Y-111.252
X179.578Y-111.76
X179.578Y-112.268
X179.578Y-112.776
X179.578Y-113.284
X179.578Y-113.792
X179.578Y-114.3
X179.578Y-114.808
X179.578Y-115.316
X179.578Y-115.824
X179.578Y-116.332
X179.578Y-116.84
X179.578Y-119.888
X179.578Y-120.396
X179.578Y-120.904
X179.578Y-121.412
X179.578Y-121.92
X179.578Y-122.428
X179.578Y-122.936
X179.578Y-123.444
X179.578Y-123.952
X179.578Y-124.46
X179.578Y-124.968
X179.578Y-125.476
X179.578Y-125.984
X179.578Y-126.492
X179.578Y-127.0
X179.578Y-127.508
X179.578Y-128.016
X179.578Y-128.524
X179.578Y-129.032
X179.578Y-129.54
X179.578Y-130.048
X179.578Y-130.556
X179.578Y-143.764
X179.578Y-144.272
X179.832Y-148.59
X179.832Y-149.098
X179.832Y-149.606
X179.832Y-150.114
X180.086Y-53.34
X180.086Y-53.848
X180.086Y-54.356
X180.086Y-54.864
X180.086Y-55.372
X180.086Y-55.88
X180.086Y-56.388
X180.086Y-56.896
X180.086Y-57.404
X180.086Y-57.912
X180.086Y-58.42
X180.086Y-58.928
X180.086Y-59.436
X180.086Y-59.944
X180.086Y-60.452
X180.086Y-60.96
X180.086Y-61.468
X180.086Y-61.976
X180.086Y-62.484
X180.086Y-62.992
X180.086Y-63.5
X180.086Y-65.786
X180.086Y-66.294
X180.086Y-66.802
X180.086Y-67.31
X180.086Y-67.818
X180.086Y-68.326
X180.086Y-68.834
X180.086Y-69.342
X180.086Y-69.85
X180.086Y-70.358
X180.086Y-70.866
X180.086Y-71.374
X180.086Y-71.882
X180.086Y-72.39
X180.086Y-72.898
X180.086Y-73.406
X180.086Y-73.914
X180.086Y-74.422
X180.086Y-74.93
X180.086Y-75.438
X180.086Y-75.946
X180.086Y-76.454
X180.086Y-76.962
X180.086Y-79.502
X180.086Y-80.01
X180.086Y-80.518
X180.086Y-81.026
X180.086Y-81.534
X180.086Y-82.042
X180.086Y-82.55
X180.086Y-83.058
X180.086Y-83.566
X180.086Y-84.074
X180.086Y-84.582
X180.086Y-85.09
X180.086Y-85.598
X180.086Y-86.106
X180.086Y-86.614
X180.086Y-87.122
X180.086Y-87.63
X180.086Y-88.138
X180.086Y-88.646
X180.086Y-89.154
X180.086Y-89.662
X180.086Y-90.17
X180.086Y-92.456
X180.086Y-92.964
X180.086Y-93.472
X180.086Y-93.98
X180.086Y-94.488
X180.086Y-94.996
X180.086Y-95.504
X180.086Y-96.012
X180.086Y-96.52
X180.086Y-97.028
X180.086Y-97.536
X180.086Y-98.044
X180.086Y-98.552
X180.086Y-99.06
X180.086Y-99.568
X180.086Y-100.076
X180.086Y-100.584
X180.086Y-101.092
X180.086Y-101.6
X180.086Y-102.108
X180.086Y-102.616
X180.086Y-103.124
X180.086Y-103.632
X180.086Y-106.68
X180.086Y-107.188
X180.086Y-107.696
X180.086Y-108.204
X180.086Y-108.712
X180.086Y-109.22
X180.086Y-109.728
X180.086Y-110.236
X180.086Y-110.744
X180.086Y-111.252
X180.086Y-111.76
X180.086Y-112.268
X180.086Y-112.776
X180.086Y-113.284
X180.086Y-113.792
X180.086Y-114.3
X180.086Y-114.808
X180.086Y-115.316
X180.086Y-115.824
X180.086Y-116.332
X180.086Y-116.84
X180.086Y-119.888
X180.086Y-120.396
X180.086Y-120.904
X180.086Y-121.412
X180.086Y-121.92
X180.086Y-122.428
X180.086Y-122.936
X180.086Y-123.444
X180.086Y-123.952
X180.086Y-124.46
X180.086Y-124.968
X180.086Y-125.476
X180.086Y-125.984
X180.086Y-126.492
X180.086Y-127.0
X180.086Y-127.508
X180.086Y-128.016
X180.086Y-128.524
X180.086Y-129.032
X180.086Y-129.54
X180.086Y-130.048
X180.086Y-130.556
X180.086Y-132.08
X180.086Y-132.588
X180.086Y-133.096
X180.086Y-133.604
X180.086Y-134.112
X180.086Y-134.62
X180.086Y-135.128
X180.086Y-135.636
X180.086Y-136.144
X180.086Y-136.652
X180.086Y-143.764
X180.086Y-144.272
X180.34Y-148.59
X180.34Y-149.098
X180.34Y-149.606
X180.34Y-150.114
X180.594Y-53.34
X180.594Y-53.848
X180.594Y-54.356
X180.594Y-54.864
X180.594Y-55.372
X180.594Y-55.88
X180.594Y-56.388
X180.594Y-56.896
X180.594Y-57.404
X180.594Y-57.912
X180.594Y-58.42
X180.594Y-58.928
X180.594Y-59.436
X180.594Y-59.944
X180.594Y-60.452
X180.594Y-60.96
X180.594Y-61.468
X180.594Y-61.976
X180.594Y-62.484
X180.594Y-62.992
X180.594Y-63.5
X180.594Y-65.786
X180.594Y-66.294
X180.594Y-66.802
X180.594Y-67.31
X180.594Y-67.818
X180.594Y-68.326
X180.594Y-68.834
X180.594Y-69.342
X180.594Y-69.85
X180.594Y-70.358
X180.594Y-70.866
X180.594Y-71.374
X180.594Y-71.882
X180.594Y-72.39
X180.594Y-72.898
X180.594Y-73.406
X180.594Y-73.914
X180.594Y-74.422
X180.594Y-74.93
X180.594Y-75.438
X180.594Y-75.946
X180.594Y-76.454
X180.594Y-76.962
X180.594Y-79.502
X180.594Y-80.01
X180.594Y-80.518
X180.594Y-81.026
X180.594Y-81.534
X180.594Y-82.042
X180.594Y-82.55
X180.594Y-83.058
X180.594Y-83.566
X180.594Y-84.074
X180.594Y-84.582
X180.594Y-85.09
X180.594Y-85.598
X180.594Y-86.106
X180.594Y-86.614
X180.594Y-87.122
X180.594Y-87.63
X180.594Y-88.138
X180.594Y-88.646
X180.594Y-89.154
X180.594Y-89.662
X180.594Y-90.17
X180.594Y-92.456
X180.594Y-92.964
X180.594Y-93.472
X180.594Y-93.98
X180.594Y-94.488
X180.594Y-94.996
X180.594Y-95.504
X180.594Y-96.012
X180.594Y-96.52
X180.594Y-97.028
X180.594Y-97.536
X180.594Y-98.044
X180.594Y-98.552
X180.594Y-99.06
X180.594Y-99.568
X180.594Y-100.076
X180.594Y-100.584
X180.594Y-101.092
X180.594Y-101.6
X180.594Y-102.108
X180.594Y-102.616
X180.594Y-103.124
X180.594Y-103.632
X180.594Y-106.68
X180.594Y-107.188
X180.594Y-107.696
X180.594Y-108.204
X180.594Y-108.712
X180.594Y-109.22
X180.594Y-109.728
X180.594Y-110.236
X180.594Y-110.744
X180.594Y-111.252
X180.594Y-111.76
X180.594Y-112.268
X180.594Y-112.776
X180.594Y-113.284
X180.594Y-113.792
X180.594Y-114.3
X180.594Y-114.808
X180.594Y-115.316
X180.594Y-115.824
X180.594Y-116.332
X180.594Y-116.84
X180.594Y-119.888
X180.594Y-120.396
X180.594Y-120.904
X180.594Y-121.412
X180.594Y-121.92
X180.594Y-122.428
X180.594Y-122.936
X180.594Y-123.444
X180.594Y-123.952
X180.594Y-124.46
X180.594Y-124.968
X180.594Y-125.476
X180.594Y-125.984
X180.594Y-126.492
X180.594Y-127.0
X180.594Y-127.508
X180.594Y-128.016
X180.594Y-128.524
X180.594Y-129.032
X180.594Y-129.54
X180.594Y-130.048
X180.594Y-130.556
X180.594Y-132.08
X180.594Y-132.588
X180.594Y-133.096
X180.594Y-133.604
X180.594Y-134.112
X180.594Y-134.62
X180.594Y-135.128
X180.594Y-135.636
X180.594Y-136.144
X180.594Y-136.652
X180.594Y-143.764
X180.594Y-144.272
X180.848Y-52.324
X180.848Y-148.59
X180.848Y-149.098
X180.848Y-149.606
X180.848Y-150.114
X181.102Y-53.34
X181.102Y-53.848
X181.102Y-54.356
X181.102Y-54.864
X181.102Y-55.372
X181.102Y-55.88
X181.102Y-56.388
X181.102Y-56.896
X181.102Y-57.404
X181.102Y-57.912
X181.102Y-58.42
X181.102Y-58.928
X181.102Y-59.436
X181.102Y-59.944
X181.102Y-60.452
X181.102Y-60.96
X181.102Y-61.468
X181.102Y-61.976
X181.102Y-62.484
X181.102Y-62.992
X181.102Y-63.5
X181.102Y-65.786
X181.102Y-66.294
X181.102Y-66.802
X181.102Y-67.31
X181.102Y-67.818
X181.102Y-68.326
X181.102Y-68.834
X181.102Y-69.342
X181.102Y-69.85
X181.102Y-70.358
X181.102Y-70.866
X181.102Y-71.374
X181.102Y-71.882
X181.102Y-72.39
X181.102Y-72.898
X181.102Y-73.406
X181.102Y-73.914
X181.102Y-74.422
X181.102Y-74.93
X181.102Y-75.438
X181.102Y-75.946
X181.102Y-76.454
X181.102Y-76.962
X181.102Y-79.502
X181.102Y-80.01
X181.102Y-80.518
X181.102Y-81.026
X181.102Y-81.534
X181.102Y-82.042
X181.102Y-82.55
X181.102Y-83.058
X181.102Y-83.566
X181.102Y-84.074
X181.102Y-84.582
X181.102Y-85.09
X181.102Y-85.598
X181.102Y-86.106
X181.102Y-86.614
X181.102Y-87.122
X181.102Y-87.63
X181.102Y-88.138
X181.102Y-88.646
X181.102Y-89.154
X181.102Y-89.662
X181.102Y-90.17
X181.102Y-92.456
X181.102Y-92.964
X181.102Y-93.472
X181.102Y-93.98
X181.102Y-94.488
X181.102Y-94.996
X181.102Y-95.504
X181.102Y-96.012
X181.102Y-96.52
X181.102Y-97.028
X181.102Y-97.536
X181.102Y-98.044
X181.102Y-98.552
X181.102Y-99.06
X181.102Y-99.568
X181.102Y-100.076
X181.102Y-100.584
X181.102Y-101.092
X181.102Y-101.6
X181.102Y-102.108
X181.102Y-102.616
X181.102Y-103.124
X181.102Y-103.632
X181.102Y-106.68
X181.102Y-107.188
X181.102Y-107.696
X181.102Y-108.204
X181.102Y-108.712
X181.102Y-109.22
X181.102Y-109.728
X181.102Y-110.236
X181.102Y-110.744
X181.102Y-111.252
X181.102Y-111.76
X181.102Y-112.268
X181.102Y-112.776
X181.102Y-113.284
X181.102Y-113.792
X181.102Y-114.3
X181.102Y-114.808
X181.102Y-115.316
X181.102Y-115.824
X181.102Y-116.332
X181.102Y-116.84
X181.102Y-119.888
X181.102Y-120.396
X181.102Y-120.904
X181.102Y-121.412
X181.102Y-121.92
X181.102Y-122.428
X181.102Y-122.936
X181.102Y-123.444
X181.102Y-123.952
X181.102Y-124.46
X181.102Y-124.968
X181.102Y-125.476
X181.102Y-125.984
X181.102Y-126.492
X181.102Y-127.0
X181.102Y-127.508
X181.102Y-128.016
X181.102Y-128.524
X181.102Y-129.032
X181.102Y-129.54
X181.102Y-130.048
X181.102Y-130.556
X181.102Y-131.318
X181.102Y-132.08
X181.102Y-132.588
X181.102Y-133.096
X181.102Y-133.604
X181.102Y-134.112
X181.102Y-143.764
X181.102Y-144.272
X181.274Y-143.252
X181.274Y-146.788
X181.356Y-139.192
X181.356Y-139.7
X181.356Y-140.208
X181.356Y-140.716
X181.356Y-148.59
X181.356Y-149.098
X181.356Y-149.606
X181.356Y-150.114
X181.61Y-53.34
X181.61Y-53.848
X181.61Y-54.356
X181.61Y-54.864
X181.61Y-55.372
X181.61Y-55.88
X181.61Y-56.388
X181.61Y-56.896
X181.61Y-57.404
X181.61Y-57.912
X181.61Y-58.42
X181.61Y-58.928
X181.61Y-59.436
X181.61Y-59.944
X181.61Y-60.452
X181.61Y-60.96
X181.61Y-61.468
X181.61Y-61.976
X181.61Y-62.484
X181.61Y-62.992
X181.61Y-63.5
X181.61Y-65.786
X181.61Y-66.294
X181.61Y-66.802
X181.61Y-67.31
X181.61Y-67.818
X181.61Y-68.326
X181.61Y-68.834
X181.61Y-69.342
X181.61Y-69.85
X181.61Y-70.358
X181.61Y-70.866
X181.61Y-71.374
X181.61Y-71.882
X181.61Y-72.39
X181.61Y-72.898
X181.61Y-73.406
X181.61Y-73.914
X181.61Y-74.422
X181.61Y-74.93
X181.61Y-75.438
X181.61Y-75.946
X181.61Y-76.454
X181.61Y-76.962
X181.61Y-79.502
X181.61Y-80.01
X181.61Y-80.518
X181.61Y-81.026
X181.61Y-81.534
X181.61Y-82.042
X181.61Y-82.55
X181.61Y-83.058
X181.61Y-83.566
X181.61Y-84.074
X181.61Y-84.582
X181.61Y-85.09
X181.61Y-85.598
X181.61Y-86.106
X181.61Y-86.614
X181.61Y-87.122
X181.61Y-87.63
X181.61Y-88.138
X181.61Y-88.646
X181.61Y-89.154
X181.61Y-89.662
X181.61Y-90.17
X181.61Y-92.456
X181.61Y-92.964
X181.61Y-93.472
X181.61Y-93.98
X181.61Y-94.488
X181.61Y-94.996
X181.61Y-95.504
X181.61Y-96.012
X181.61Y-96.52
X181.61Y-97.028
X181.61Y-97.536
X181.61Y-98.044
X181.61Y-98.552
X181.61Y-99.06
X181.61Y-99.568
X181.61Y-100.076
X181.61Y-100.584
X181.61Y-101.092
X181.61Y-101.6
X181.61Y-102.108
X181.61Y-102.616
X181.61Y-103.124
X181.61Y-103.632
X181.61Y-106.68
X181.61Y-107.188
X181.61Y-107.696
X181.61Y-108.204
X181.61Y-108.712
X181.61Y-109.22
X181.61Y-109.728
X181.61Y-110.236
X181.61Y-110.744
X181.61Y-111.252
X181.61Y-111.76
X181.61Y-112.268
X181.61Y-112.776
X181.61Y-113.284
X181.61Y-113.792
X181.61Y-114.3
X181.61Y-114.808
X181.61Y-115.316
X181.61Y-115.824
X181.61Y-116.332
X181.61Y-116.84
X181.61Y-119.888
X181.61Y-120.396
X181.61Y-120.904
X181.61Y-121.412
X181.61Y-121.92
X181.61Y-122.428
X181.61Y-122.936
X181.61Y-123.444
X181.61Y-123.952
X181.61Y-124.46
X181.61Y-124.968
X181.61Y-125.476
X181.61Y-125.984
X181.61Y-126.492
X181.61Y-127.0
X181.61Y-127.508
X181.61Y-128.016
X181.61Y-128.524
X181.61Y-129.032
X181.61Y-129.54
X181.61Y-130.048
X181.61Y-132.08
X181.61Y-132.588
X181.61Y-133.096
X181.61Y-133.604
X181.61Y-134.112
X181.61Y-143.764
X181.61Y-144.272
X181.864Y-139.192
X181.864Y-139.7
X181.864Y-140.208
X181.864Y-140.716
X181.864Y-148.59
X181.864Y-149.098
X181.864Y-149.606
X181.864Y-150.114
X182.118Y-53.34
X182.118Y-53.848
X182.118Y-54.356
X182.118Y-54.864
X182.118Y-55.372
X182.118Y-55.88
X182.118Y-56.388
X182.118Y-56.896
X182.118Y-57.404
X182.118Y-57.912
X182.118Y-58.42
X182.118Y-60.96
X182.118Y-61.468
X182.118Y-61.976
X182.118Y-62.484
X182.118Y-62.992
X182.118Y-65.786
X182.118Y-66.294
X182.118Y-66.802
X182.118Y-67.31
X182.118Y-67.818
X182.118Y-68.326
X182.118Y-68.834
X182.118Y-69.342
X182.118Y-69.85
X182.118Y-70.358
X182.118Y-70.866
X182.118Y-71.374
X182.118Y-71.882
X182.118Y-74.422
X182.118Y-74.93
X182.118Y-75.438
X182.118Y-75.946
X182.118Y-76.454
X182.118Y-79.502
X182.118Y-80.01
X182.118Y-80.518
X182.118Y-81.026
X182.118Y-81.534
X182.118Y-82.042
X182.118Y-82.55
X182.118Y-83.058
X182.118Y-83.566
X182.118Y-84.074
X182.118Y-84.582
X182.118Y-85.09
X182.118Y-85.598
X182.118Y-88.138
X182.118Y-88.646
X182.118Y-89.154
X182.118Y-89.662
X182.118Y-92.456
X182.118Y-92.964
X182.118Y-93.472
X182.118Y-93.98
X182.118Y-94.488
X182.118Y-94.996
X182.118Y-95.504
X182.118Y-96.012
X182.118Y-96.52
X182.118Y-97.028
X182.118Y-97.536
X182.118Y-98.044
X182.118Y-98.552
X182.118Y-101.092
X182.118Y-101.6
X182.118Y-102.108
X182.118Y-102.616
X182.118Y-103.124
X182.118Y-106.68
X182.118Y-107.188
X182.118Y-107.696
X182.118Y-108.204
X182.118Y-108.712
X182.118Y-109.22
X182.118Y-109.728
X182.118Y-110.236
X182.118Y-110.744
X182.118Y-111.252
X182.118Y-111.76
X182.118Y-112.268
X182.118Y-114.808
X182.118Y-115.316
X182.118Y-115.824
X182.118Y-116.332
X182.118Y-119.888
X182.118Y-120.396
X182.118Y-120.904
X182.118Y-121.412
X182.118Y-121.92
X182.118Y-122.428
X182.118Y-122.936
X182.118Y-123.444
X182.118Y-123.952
X182.118Y-124.46
X182.118Y-124.968
X182.118Y-125.476
X182.118Y-128.016
X182.118Y-128.524
X182.118Y-129.032
X182.118Y-129.54
X182.118Y-130.048
X182.118Y-143.764
X182.118Y-144.272
X182.3Y-77.257
X182.3Y-90.465
X182.3Y-103.927
X182.372Y-63.795
X182.372Y-117.094
X182.372Y-139.192
X182.372Y-139.7
X182.372Y-140.208
X182.372Y-140.716
X182.372Y-148.59
X182.372Y-149.098
X182.372Y-149.606
X182.372Y-150.114
X182.626Y-53.34
X182.626Y-53.848
X182.626Y-54.356
X182.626Y-54.864
X182.626Y-55.372
X182.626Y-55.88
X182.626Y-56.388
X182.626Y-56.896
X182.626Y-57.404
X182.626Y-57.912
X182.626Y-58.42
X182.626Y-65.786
X182.626Y-66.294
X182.626Y-66.802
X182.626Y-67.31
X182.626Y-67.818
X182.626Y-68.326
X182.626Y-68.834
X182.626Y-69.342
X182.626Y-69.85
X182.626Y-70.358
X182.626Y-70.866
X182.626Y-71.374
X182.626Y-71.882
X182.626Y-79.502
X182.626Y-80.01
X182.626Y-80.518
X182.626Y-81.026
X182.626Y-81.534
X182.626Y-82.042
X182.626Y-82.55
X182.626Y-83.058
X182.626Y-83.566
X182.626Y-84.074
X182.626Y-84.582
X182.626Y-85.09
X182.626Y-85.598
X182.626Y-92.456
X182.626Y-92.964
X182.626Y-93.472
X182.626Y-93.98
X182.626Y-94.488
X182.626Y-94.996
X182.626Y-95.504
X182.626Y-96.012
X182.626Y-96.52
X182.626Y-97.028
X182.626Y-97.536
X182.626Y-98.044
X182.626Y-98.552
X182.626Y-106.68
X182.626Y-107.188
X182.626Y-107.696
X182.626Y-108.204
X182.626Y-108.712
X182.626Y-109.22
X182.626Y-109.728
X182.626Y-110.236
X182.626Y-110.744
X182.626Y-111.252
X182.626Y-111.76
X182.626Y-112.268
X182.626Y-119.888
X182.626Y-120.396
X182.626Y-120.904
X182.626Y-121.412
X182.626Y-121.92
X182.626Y-122.428
X182.626Y-122.936
X182.626Y-123.444
X182.626Y-123.952
X182.626Y-124.46
X182.626Y-124.968
X182.626Y-125.476
X182.626Y-143.764
X182.626Y-144.272
X182.88Y-139.192
X182.88Y-139.7
X182.88Y-140.208
X182.88Y-140.716
X182.88Y-148.59
X182.88Y-149.098
X182.88Y-149.606
X182.88Y-150.114
X183.042Y-145.02
X183.134Y-53.34
X183.134Y-53.848
X183.134Y-54.356
X183.134Y-54.864
X183.134Y-55.372
X183.134Y-55.88
X183.134Y-56.388
X183.134Y-56.896
X183.134Y-57.404
X183.134Y-57.912
X183.134Y-58.42
X183.134Y-65.786
X183.134Y-66.294
X183.134Y-66.802
X183.134Y-67.31
X183.134Y-67.818
X183.134Y-68.326
X183.134Y-68.834
X183.134Y-69.342
X183.134Y-69.85
X183.134Y-70.358
X183.134Y-70.866
X183.134Y-71.374
X183.134Y-71.882
X183.134Y-79.502
X183.134Y-80.01
X183.134Y-80.518
X183.134Y-81.026
X183.134Y-81.534
X183.134Y-82.042
X183.134Y-82.55
X183.134Y-83.058
X183.134Y-83.566
X183.134Y-84.074
X183.134Y-84.582
X183.134Y-85.09
X183.134Y-85.598
X183.134Y-92.456
X183.134Y-92.964
X183.134Y-93.472
X183.134Y-93.98
X183.134Y-94.488
X183.134Y-94.996
X183.134Y-95.504
X183.134Y-96.012
X183.134Y-96.52
X183.134Y-97.028
X183.134Y-97.536
X183.134Y-98.044
X183.134Y-98.552
X183.134Y-106.68
X183.134Y-107.188
X183.134Y-107.696
X183.134Y-108.204
X183.134Y-108.712
X183.134Y-109.22
X183.134Y-109.728
X183.134Y-110.236
X183.134Y-110.744
X183.134Y-111.252
X183.134Y-111.76
X183.134Y-112.268
X183.134Y-119.888
X183.134Y-120.396
X183.134Y-120.904
X183.134Y-121.412
X183.134Y-121.92
X183.134Y-122.428
X183.134Y-122.936
X183.134Y-123.444
X183.134Y-123.952
X183.134Y-124.46
X183.134Y-124.968
X183.134Y-125.476
X183.134Y-143.764
X183.134Y-144.272
X183.388Y-139.192
X183.388Y-139.7
X183.388Y-140.208
X183.388Y-140.716
X183.388Y-148.59
X183.388Y-149.098
X183.388Y-149.606
X183.388Y-150.114
X183.642Y-53.34
X183.642Y-53.848
X183.642Y-54.356
X183.642Y-54.864
X183.642Y-55.372
X183.642Y-55.88
X183.642Y-56.388
X183.642Y-56.896
X183.642Y-57.404
X183.642Y-57.912
X183.642Y-58.42
X183.642Y-65.786
X183.642Y-66.294
X183.642Y-66.802
X183.642Y-67.31
X183.642Y-67.818
X183.642Y-68.326
X183.642Y-68.834
X183.642Y-69.342
X183.642Y-69.85
X183.642Y-70.358
X183.642Y-70.866
X183.642Y-71.374
X183.642Y-71.882
X183.642Y-143.764
X183.642Y-144.272
X183.896Y-139.192
X183.896Y-139.7
X183.896Y-140.208
X183.896Y-140.716
X183.896Y-148.59
X183.896Y-149.098
X183.896Y-149.606
X183.896Y-150.114
X184.15Y-132.08
X184.15Y-132.588
X184.15Y-133.096
X184.15Y-133.604
X184.15Y-134.112
X184.15Y-143.764
X184.15Y-144.272
X184.404Y-139.192
X184.404Y-139.7
X184.404Y-140.208
X184.404Y-140.716
X184.404Y-148.59
X184.404Y-149.098
X184.404Y-149.606
X184.404Y-150.114
X184.658Y-132.08
X184.658Y-132.588
X184.658Y-133.096
X184.658Y-133.604
X184.658Y-134.112
X184.658Y-143.764
X184.658Y-144.272
X184.81Y-143.252
X184.81Y-146.788
X184.912Y-139.192
X184.912Y-139.7
X184.912Y-140.208
X184.912Y-140.716
X184.912Y-148.59
X184.912Y-149.098
X184.912Y-149.606
X184.912Y-150.114
X185.166Y-132.08
X185.166Y-132.588
X185.166Y-133.096
X185.166Y-133.604
X185.166Y-134.112
X185.166Y-143.764
X185.166Y-144.272
X185.42Y-139.192
X185.42Y-139.7
X185.42Y-140.208
X185.42Y-140.716
X185.42Y-148.59
X185.42Y-149.098
X185.42Y-149.606
X185.42Y-150.114
X185.674Y-132.08
X185.674Y-132.588
X185.674Y-133.096
X185.674Y-133.604
X185.674Y-134.112
X185.674Y-143.764
X185.674Y-144.272
X185.928Y-139.192
X185.928Y-139.7
X185.928Y-140.208
X185.928Y-140.716
X185.928Y-148.59
X185.928Y-149.098
X185.928Y-149.606
X185.928Y-150.114
X186.182Y-132.08
X186.182Y-132.588
X186.182Y-133.096
X186.182Y-133.604
X186.182Y-134.112
X186.182Y-134.62
X186.182Y-135.128
X186.182Y-135.636
X186.182Y-136.144
X186.182Y-136.652
X186.182Y-137.16
X186.182Y-137.668
X186.182Y-138.176
X186.182Y-143.764
X186.182Y-144.272
X186.436Y-139.192
X186.436Y-139.7
X186.436Y-140.208
X186.436Y-140.716
X186.436Y-148.59
X186.436Y-149.098
X186.436Y-149.606
X186.436Y-150.114
X186.577Y-141.485
X186.577Y-145.02
X186.69Y-132.08
X186.69Y-132.588
X186.69Y-133.096
X186.69Y-133.604
X186.69Y-134.112
X186.69Y-134.62
X186.69Y-135.128
X186.69Y-135.636
X186.69Y-136.144
X186.69Y-136.652
X186.69Y-137.16
X186.69Y-137.668
X186.69Y-138.176
X186.69Y-143.764
X186.69Y-144.272
X186.944Y-139.192
X186.944Y-139.7
X186.944Y-140.208
X186.944Y-140.716
X186.944Y-148.59
X186.944Y-149.098
X186.944Y-149.606
X186.944Y-150.114
X187.198Y-132.08
X187.198Y-132.588
X187.198Y-133.096
X187.198Y-133.604
X187.198Y-134.112
X187.198Y-134.62
X187.198Y-135.128
X187.198Y-135.636
X187.198Y-136.144
X187.198Y-136.652
X187.198Y-137.16
X187.198Y-137.668
X187.198Y-143.764
X187.198Y-144.272
X187.452Y-139.192
X187.452Y-139.7
X187.452Y-140.208
X187.452Y-140.716
X187.452Y-148.59
X187.452Y-149.098
X187.452Y-149.606
X187.452Y-150.114
X187.706Y-132.08
X187.706Y-132.588
X187.706Y-133.096
X187.706Y-133.604
X187.706Y-134.112
X187.706Y-134.62
X187.706Y-135.128
X187.706Y-135.636
X187.706Y-136.144
X187.706Y-136.652
X187.706Y-137.16
X187.706Y-137.668
X187.706Y-143.764
X187.706Y-144.272
X187.96Y-139.192
X187.96Y-139.7
X187.96Y-140.208
X187.96Y-140.716
X187.96Y-148.59
X187.96Y-149.098
X187.96Y-149.606
X187.96Y-150.114
X188.214Y-143.764
X188.214Y-144.272
X188.345Y-51.329
X188.345Y-143.252
X188.345Y-146.788
X188.468Y-132.842
X188.468Y-133.35
X188.468Y-148.59
X188.468Y-149.098
X188.468Y-149.606
X188.468Y-150.114
X188.722Y-143.764
X188.722Y-144.272
X188.976Y-132.842
X188.976Y-133.35
X188.976Y-148.59
X188.976Y-149.098
X188.976Y-149.606
X188.976Y-150.114
X189.23Y-143.764
X189.23Y-144.272
X189.484Y-132.842
X189.484Y-133.35
X189.484Y-148.59
X189.484Y-149.098
X189.484Y-149.606
X189.484Y-150.114
X189.738Y-143.764
X189.738Y-144.272
X189.992Y-132.842
X189.992Y-133.35
X189.992Y-148.59
X189.992Y-149.098
X189.992Y-149.606
X189.992Y-150.114
X190.113Y-141.485
X190.113Y-145.02
X190.5Y-132.842
X190.5Y-133.35
X190.5Y-148.59
X190.5Y-149.098
X190.5Y-149.606
X190.5Y-150.114
X191.008Y-132.842
X191.008Y-133.35
X191.008Y-148.59
X191.008Y-149.098
X191.008Y-149.606
X191.008Y-150.114
X191.516Y-132.842
X191.516Y-133.35
X191.516Y-148.59
X191.516Y-149.098
X191.516Y-149.606
X191.516Y-150.114
X191.881Y-51.329
X191.881Y-143.252
X191.881Y-146.788
X192.024Y-132.842
X192.024Y-133.35
X192.024Y-138.684
X192.024Y-139.192
X192.024Y-139.7
X192.024Y-140.208
X192.024Y-140.716
X192.024Y-141.224
X192.024Y-141.732
X192.024Y-142.24
X192.024Y-142.748
X192.024Y-148.59
X192.024Y-149.098
X192.024Y-149.606
X192.024Y-150.114
X192.532Y-132.842
X192.532Y-133.35
X192.532Y-148.59
X192.532Y-149.098
X192.532Y-149.606
X192.532Y-150.114
X193.04Y-132.842
X193.04Y-133.35
X193.04Y-148.59
X193.04Y-149.098
X193.04Y-149.606
X193.04Y-150.114
X193.548Y-132.842
X193.548Y-133.35
X193.548Y-148.59
X193.548Y-149.098
X193.548Y-149.606
X193.548Y-150.114
X193.648Y-53.096
X193.648Y-134.414
X193.648Y-137.949
X193.648Y-145.02
X194.056Y-132.842
X194.056Y-133.35
X194.056Y-149.606
X194.056Y-150.114
X194.31Y-134.62
X194.31Y-135.128
X194.31Y-135.636
X194.31Y-136.144
X194.31Y-136.652
X194.31Y-137.16
X194.31Y-137.668
X194.31Y-138.176
X194.31Y-138.684
X194.31Y-139.192
X194.31Y-139.7
X194.31Y-140.208
X194.31Y-140.716
X194.31Y-141.224
X194.31Y-141.732
X194.31Y-142.24
X194.31Y-142.748
X194.31Y-143.256
X194.31Y-143.764
X194.31Y-144.272
X194.31Y-144.78
X194.31Y-145.288
X194.31Y-145.796
X194.31Y-146.304
X194.31Y-146.812
X194.31Y-147.32
X194.31Y-147.828
X194.31Y-148.336
X194.31Y-148.844
X194.818Y-134.62
X194.818Y-135.128
X194.818Y-135.636
X194.818Y-136.144
X194.818Y-136.652
X194.818Y-137.16
X194.818Y-137.668
X194.818Y-138.176
X194.818Y-138.684
X194.818Y-139.192
X194.818Y-139.7
X194.818Y-140.208
X194.818Y-140.716
X194.818Y-141.224
X194.818Y-141.732
X194.818Y-142.24
X194.818Y-142.748
X194.818Y-143.256
X194.818Y-143.764
X194.818Y-144.272
X194.818Y-144.78
X194.818Y-145.288
X194.818Y-145.796
X194.818Y-146.304
X194.818Y-146.812
X194.818Y-147.32
X194.818Y-148.844
X195.072Y-132.842
X195.072Y-133.35
X195.416Y-51.329
X195.416Y-139.717
X195.416Y-150.323
X195.58Y-132.842
X195.58Y-133.35
X196.088Y-132.842
X196.088Y-133.35
X196.342Y-102.108
X196.342Y-127.0
X196.37Y-76.2
X196.596Y-132.842
X196.596Y-133.35
X197.104Y-132.842
X197.104Y-133.35
X197.184Y-134.414
X197.184Y-137.949
X197.184Y-141.485
X197.612Y-132.842
X197.612Y-133.35
X198.12Y-132.842
X198.12Y-133.35
X198.374Y-125.222
X198.628Y-100.838
X198.628Y-132.842
X198.628Y-133.35
X198.882Y-74.676
X198.952Y-136.181
X198.952Y-139.717
X198.952Y-143.252
X199.136Y-132.842
X199.136Y-133.35
X199.644Y-132.842
X199.644Y-133.35
X200.66Y-61.214
X200.66Y-61.722
X200.66Y-62.23
X200.66Y-62.738
X200.66Y-63.246
X200.66Y-63.754
X200.66Y-64.262
X200.66Y-64.77
X200.66Y-65.278
X200.66Y-65.786
X200.66Y-66.294
X200.66Y-66.802
X200.66Y-67.31
X200.66Y-67.818
X200.66Y-68.326
X200.66Y-68.834
X200.66Y-69.342
X200.66Y-69.85
X200.66Y-70.358
X200.66Y-70.866
X200.66Y-86.106
X200.66Y-86.614
X200.66Y-87.122
X200.66Y-87.63
X200.66Y-88.138
X200.66Y-88.646
X200.66Y-89.154
X200.66Y-89.662
X200.66Y-90.17
X200.66Y-90.678
X200.66Y-91.186
X200.66Y-91.694
X200.66Y-92.202
X200.66Y-92.71
X200.66Y-93.218
X200.66Y-93.726
X200.66Y-94.234
X200.66Y-94.742
X200.66Y-95.25
X200.66Y-95.758
X200.66Y-111.506
X200.66Y-112.014
X200.66Y-112.522
X200.66Y-113.03
X200.66Y-113.538
X200.66Y-114.046
X200.66Y-114.554
X200.66Y-115.062
X200.66Y-115.57
X200.66Y-116.078
X200.66Y-116.586
X200.66Y-117.094
X200.66Y-117.602
X200.66Y-118.11
X200.66Y-118.618
X200.66Y-119.126
X200.66Y-119.634
X200.66Y-120.142
X200.66Y-120.65
X200.66Y-121.158
X200.66Y-131.318
X200.66Y-131.826
X200.66Y-132.334
X200.66Y-132.842
X200.66Y-133.35
X200.72Y-134.414
X200.72Y-137.949
X200.72Y-141.485
X200.72Y-144.78
X201.168Y-61.214
X201.168Y-61.722
X201.168Y-62.23
X201.168Y-62.738
X201.168Y-63.246
X201.168Y-63.754
X201.168Y-64.262
X201.168Y-64.77
X201.168Y-65.278
X201.168Y-65.786
X201.168Y-66.294
X201.168Y-66.802
X201.168Y-67.31
X201.168Y-67.818
X201.168Y-68.326
X201.168Y-68.834
X201.168Y-69.342
X201.168Y-69.85
X201.168Y-70.358
X201.168Y-70.866
X201.168Y-86.106
X201.168Y-86.614
X201.168Y-87.122
X201.168Y-87.63
X201.168Y-88.138
X201.168Y-88.646
X201.168Y-89.154
X201.168Y-89.662
X201.168Y-90.17
X201.168Y-90.678
X201.168Y-91.186
X201.168Y-91.694
X201.168Y-92.202
X201.168Y-92.71
X201.168Y-93.218
X201.168Y-93.726
X201.168Y-94.234
X201.168Y-94.742
X201.168Y-95.25
X201.168Y-95.758
X201.168Y-111.506
X201.168Y-112.014
X201.168Y-112.522
X201.168Y-113.03
X201.168Y-113.538
X201.168Y-114.046
X201.168Y-114.554
X201.168Y-115.062
X201.168Y-115.57
X201.168Y-116.078
X201.168Y-116.586
X201.168Y-117.094
X201.168Y-117.602
X201.168Y-118.11
X201.168Y-118.618
X201.168Y-119.126
X201.168Y-119.634
X201.168Y-120.142
X201.168Y-120.65
X201.168Y-121.158
X201.168Y-131.318
X201.168Y-131.826
X201.168Y-132.334
X201.168Y-132.842
X201.168Y-133.35
T2
X110.998Y-104.648
X110.998Y-113.792
X110.998Y-114.808
X125.575Y-144.371
T4
X109.982Y-92.202
X114.862Y-92.202
X119.38Y-124.46
X119.38Y-132.08
X119.634Y-145.542
X119.634Y-147.542
X121.92Y-124.46
X121.92Y-132.08
X124.46Y-124.46
X124.46Y-132.08
X135.382Y-138.43
X135.382Y-140.43
X136.144Y-144.78
X136.144Y-148.28
X160.274Y-135.721
X160.274Y-137.721
X164.37Y-134.366
X166.37Y-134.366
X172.268Y-135.382
X175.768Y-135.382
T5
X108.458Y-59.436
X108.458Y-61.976
X108.458Y-64.516
X108.458Y-67.056
X108.458Y-69.596
X108.458Y-72.136
X108.458Y-74.676
X108.458Y-77.216
X108.966Y-82.55
X108.966Y-85.05
X117.348Y-61.722
X117.348Y-64.262
X119.888Y-61.722
X119.888Y-64.262
X122.428Y-61.722
X122.428Y-64.262
X124.968Y-61.722
X124.968Y-64.262
X127.508Y-61.722
X127.508Y-64.262
X130.048Y-61.722
X130.048Y-64.262
X142.542Y-149.359
X153.542Y-149.359
T6
X115.062Y-98.552
X115.062Y-101.092
X115.062Y-103.632
X115.062Y-106.172
X115.062Y-108.712
X115.062Y-114.808
X115.062Y-117.348
X115.062Y-119.888
X115.062Y-122.428
X115.062Y-124.968
X115.062Y-131.064
X115.062Y-133.604
X115.062Y-136.144
X115.062Y-138.684
X115.062Y-141.224
T7
X114.554Y-70.358
X114.554Y-76.858
X118.618Y-70.358
X118.618Y-76.858
X123.952Y-70.358
X123.952Y-76.858
X128.016Y-70.358
X128.016Y-76.858
X130.81Y-124.968
X130.81Y-131.468
X133.35Y-70.358
X133.35Y-76.858
X137.414Y-70.358
X137.414Y-76.858
X137.414Y-124.968
X137.414Y-131.468
T8
X145.542Y-139.359
X150.542Y-139.359
T9
X183.09Y-136.106
X190.29Y-136.106
X194.406Y-62.44
X194.406Y-69.64
X194.406Y-87.542
X194.406Y-94.742
X194.406Y-112.688
X194.406Y-119.888
T10
X104.6Y-54.054
X104.6Y-148.054
X198.6Y-54.054
X198.6Y-148.054
T3
G00X179.94Y-142.656
M15
G01X179.94Y-141.556
M16
G05
G00X193.44Y-142.656
M15
G01X193.44Y-141.556
M16
G05
G00X200.956Y-59.29
M15
G01X199.856Y-59.29
M16
G05
G00X200.956Y-72.79
M15
G01X199.856Y-72.79
M16
G05
G00X200.956Y-84.392
M15
G01X199.856Y-84.392
M16
G05
G00X200.956Y-97.892
M15
G01X199.856Y-97.892
M16
G05
G00X200.956Y-109.538
M15
G01X199.856Y-109.538
M16
G05
G00X200.956Y-123.038
M15
G01X199.856Y-123.038
M16
G05
M30
