%TF.GenerationSoftware,KiCad,Pcbnew,9.0.4*%
%TF.CreationDate,2026-04-29T00:02:45+09:00*%
%TF.ProjectId,MD_Stable,4d445f53-7461-4626-9c65-2e6b69636164,rev?*%
%TF.SameCoordinates,Original*%
%TF.FileFunction,Soldermask,Top*%
%TF.FilePolarity,Negative*%
%FSLAX46Y46*%
G04 Gerber Fmt 4.6, Leading zero omitted, Abs format (unit mm)*
G04 Created by KiCad (PCBNEW 9.0.4) date 2026-04-29 00:02:45*
%MOMM*%
%LPD*%
G01*
G04 APERTURE LIST*
G04 Aperture macros list*
%AMRoundRect*
0 Rectangle with rounded corners*
0 $1 Rounding radius*
0 $2 $3 $4 $5 $6 $7 $8 $9 X,Y pos of 4 corners*
0 Add a 4 corners polygon primitive as box body*
4,1,4,$2,$3,$4,$5,$6,$7,$8,$9,$2,$3,0*
0 Add four circle primitives for the rounded corners*
1,1,$1+$1,$2,$3*
1,1,$1+$1,$4,$5*
1,1,$1+$1,$6,$7*
1,1,$1+$1,$8,$9*
0 Add four rect primitives between the rounded corners*
20,1,$1+$1,$2,$3,$4,$5,0*
20,1,$1+$1,$4,$5,$6,$7,0*
20,1,$1+$1,$6,$7,$8,$9,0*
20,1,$1+$1,$8,$9,$2,$3,0*%
%AMFreePoly0*
4,1,9,2.100000,-2.000000,2.350000,-2.000000,2.350000,-3.500000,-2.350000,-3.500000,-2.350000,-2.000000,-2.100000,-2.000000,-2.100000,1.100000,2.100000,1.100000,2.100000,-2.000000,2.100000,-2.000000,$1*%
G04 Aperture macros list end*
%ADD10C,3.320221*%
%ADD11C,0.100000*%
%ADD12C,4.082000*%
%ADD13C,5.000000*%
%ADD14C,2.812000*%
%ADD15C,6.000000*%
%ADD16C,4.000000*%
%ADD17C,3.200000*%
%ADD18RoundRect,0.225000X-0.225000X-0.375000X0.225000X-0.375000X0.225000X0.375000X-0.225000X0.375000X0*%
%ADD19RoundRect,0.150000X-0.825000X-0.150000X0.825000X-0.150000X0.825000X0.150000X-0.825000X0.150000X0*%
%ADD20RoundRect,0.175000X0.400000X-0.175000X0.400000X0.175000X-0.400000X0.175000X-0.400000X-0.175000X0*%
%ADD21FreePoly0,90.000000*%
%ADD22RoundRect,0.250000X-0.550000X0.550000X-0.550000X-0.550000X0.550000X-0.550000X0.550000X0.550000X0*%
%ADD23C,1.600000*%
%ADD24RoundRect,0.162500X-0.617500X-0.162500X0.617500X-0.162500X0.617500X0.162500X-0.617500X0.162500X0*%
%ADD25RoundRect,0.237500X0.237500X-0.250000X0.237500X0.250000X-0.237500X0.250000X-0.237500X-0.250000X0*%
%ADD26RoundRect,0.250000X0.550000X0.550000X-0.550000X0.550000X-0.550000X-0.550000X0.550000X-0.550000X0*%
%ADD27RoundRect,0.237500X0.300000X0.237500X-0.300000X0.237500X-0.300000X-0.237500X0.300000X-0.237500X0*%
%ADD28RoundRect,0.225000X0.375000X-0.225000X0.375000X0.225000X-0.375000X0.225000X-0.375000X-0.225000X0*%
%ADD29RoundRect,0.225000X-0.375000X0.225000X-0.375000X-0.225000X0.375000X-0.225000X0.375000X0.225000X0*%
%ADD30RoundRect,0.250000X0.550000X-0.550000X0.550000X0.550000X-0.550000X0.550000X-0.550000X-0.550000X0*%
%ADD31RoundRect,0.225000X0.225000X0.375000X-0.225000X0.375000X-0.225000X-0.375000X0.225000X-0.375000X0*%
%ADD32RoundRect,0.250000X-0.350000X0.850000X-0.350000X-0.850000X0.350000X-0.850000X0.350000X0.850000X0*%
%ADD33RoundRect,0.249997X-2.650003X2.950003X-2.650003X-2.950003X2.650003X-2.950003X2.650003X2.950003X0*%
%ADD34RoundRect,0.237500X-0.300000X-0.237500X0.300000X-0.237500X0.300000X0.237500X-0.300000X0.237500X0*%
%ADD35RoundRect,0.237500X-0.250000X-0.237500X0.250000X-0.237500X0.250000X0.237500X-0.250000X0.237500X0*%
%ADD36RoundRect,0.237500X0.250000X0.237500X-0.250000X0.237500X-0.250000X-0.237500X0.250000X-0.237500X0*%
%ADD37RoundRect,0.150000X-0.875000X-0.150000X0.875000X-0.150000X0.875000X0.150000X-0.875000X0.150000X0*%
%ADD38RoundRect,0.237500X0.237500X-0.287500X0.237500X0.287500X-0.237500X0.287500X-0.237500X-0.287500X0*%
%ADD39RoundRect,0.237500X-0.237500X0.300000X-0.237500X-0.300000X0.237500X-0.300000X0.237500X0.300000X0*%
%ADD40RoundRect,0.237500X0.287500X0.237500X-0.287500X0.237500X-0.287500X-0.237500X0.287500X-0.237500X0*%
%ADD41R,2.000000X0.900000*%
%ADD42RoundRect,1.025000X-1.025000X1.025000X-1.025000X-1.025000X1.025000X-1.025000X1.025000X1.025000X0*%
%ADD43C,4.100000*%
%ADD44RoundRect,0.237500X-0.237500X0.250000X-0.237500X-0.250000X0.237500X-0.250000X0.237500X0.250000X0*%
%ADD45R,2.250000X2.250000*%
%ADD46C,2.250000*%
%ADD47RoundRect,0.250000X-0.725000X0.600000X-0.725000X-0.600000X0.725000X-0.600000X0.725000X0.600000X0*%
%ADD48O,1.950000X1.700000*%
%ADD49RoundRect,0.237500X-0.237500X0.287500X-0.237500X-0.287500X0.237500X-0.287500X0.237500X0.287500X0*%
%ADD50RoundRect,0.400000X0.400000X-0.600000X0.400000X0.600000X-0.400000X0.600000X-0.400000X-0.600000X0*%
%ADD51RoundRect,0.125000X-0.625000X-0.125000X0.625000X-0.125000X0.625000X0.125000X-0.625000X0.125000X0*%
%ADD52RoundRect,0.125000X-0.125000X-0.625000X0.125000X-0.625000X0.125000X0.625000X-0.125000X0.625000X0*%
%ADD53RoundRect,0.237500X0.237500X-0.300000X0.237500X0.300000X-0.237500X0.300000X-0.237500X-0.300000X0*%
%ADD54C,1.800000*%
%ADD55RoundRect,0.237500X-0.287500X-0.237500X0.287500X-0.237500X0.287500X0.237500X-0.287500X0.237500X0*%
%ADD56R,0.900000X2.000000*%
%ADD57RoundRect,1.025000X1.025000X1.025000X-1.025000X1.025000X-1.025000X-1.025000X1.025000X-1.025000X0*%
%ADD58RoundRect,0.250000X-0.550000X-0.550000X0.550000X-0.550000X0.550000X0.550000X-0.550000X0.550000X0*%
%ADD59C,1.400000*%
%ADD60RoundRect,0.770000X0.980000X0.980000X-0.980000X0.980000X-0.980000X-0.980000X0.980000X-0.980000X0*%
%ADD61C,3.500000*%
%ADD62R,1.700000X1.700000*%
%ADD63C,1.700000*%
G04 APERTURE END LIST*
D10*
X190382110Y-57404000D02*
G75*
G02*
X187061890Y-57404000I-1660110J0D01*
G01*
X187061890Y-57404000D02*
G75*
G02*
X190382110Y-57404000I1660110J0D01*
G01*
D11*
X166624000Y-55118000D02*
X174752000Y-55118000D01*
X174752000Y-58928000D01*
X166624000Y-58928000D01*
X166624000Y-55118000D01*
G36*
X166624000Y-55118000D02*
G01*
X174752000Y-55118000D01*
X174752000Y-58928000D01*
X166624000Y-58928000D01*
X166624000Y-55118000D01*
G37*
D12*
X169427000Y-129794000D02*
G75*
G02*
X165345000Y-129794000I-2041000J0D01*
G01*
X165345000Y-129794000D02*
G75*
G02*
X169427000Y-129794000I2041000J0D01*
G01*
D11*
X166624000Y-108839000D02*
X174752000Y-108839000D01*
X174752000Y-112649000D01*
X166624000Y-112649000D01*
X166624000Y-108839000D01*
G36*
X166624000Y-108839000D02*
G01*
X174752000Y-108839000D01*
X174752000Y-112649000D01*
X166624000Y-112649000D01*
X166624000Y-108839000D01*
G37*
D13*
X183134000Y-135128000D02*
X187198000Y-131064000D01*
D14*
X190636000Y-130413860D02*
G75*
G02*
X187824000Y-130413860I-1406000J0D01*
G01*
X187824000Y-130413860D02*
G75*
G02*
X190636000Y-130413860I1406000J0D01*
G01*
D15*
X191516000Y-137160000D02*
X191516000Y-147320000D01*
D12*
X169427000Y-55880000D02*
G75*
G02*
X165345000Y-55880000I-2041000J0D01*
G01*
X165345000Y-55880000D02*
G75*
G02*
X169427000Y-55880000I2041000J0D01*
G01*
D11*
X175514000Y-66294000D02*
X181864000Y-66294000D01*
X181864000Y-76454000D01*
X175514000Y-76454000D01*
X175514000Y-66294000D01*
G36*
X175514000Y-66294000D02*
G01*
X181864000Y-66294000D01*
X181864000Y-76454000D01*
X175514000Y-76454000D01*
X175514000Y-66294000D01*
G37*
X181864000Y-106680000D02*
X183642000Y-106680000D01*
X183642000Y-112522000D01*
X181864000Y-112522000D01*
X181864000Y-106680000D01*
G36*
X181864000Y-106680000D02*
G01*
X183642000Y-106680000D01*
X183642000Y-112522000D01*
X181864000Y-112522000D01*
X181864000Y-106680000D01*
G37*
X175514000Y-92964000D02*
X181864000Y-92964000D01*
X181864000Y-103378000D01*
X175514000Y-103378000D01*
X175514000Y-92964000D01*
G36*
X175514000Y-92964000D02*
G01*
X181864000Y-92964000D01*
X181864000Y-103378000D01*
X175514000Y-103378000D01*
X175514000Y-92964000D01*
G37*
X166624000Y-95377000D02*
X174752000Y-95377000D01*
X174752000Y-99187000D01*
X166624000Y-99187000D01*
X166624000Y-95377000D01*
G36*
X166624000Y-95377000D02*
G01*
X174752000Y-95377000D01*
X174752000Y-99187000D01*
X166624000Y-99187000D01*
X166624000Y-95377000D01*
G37*
X175514000Y-119634000D02*
X181864000Y-119634000D01*
X181864000Y-130302000D01*
X175514000Y-130302000D01*
X175514000Y-119634000D01*
G36*
X175514000Y-119634000D02*
G01*
X181864000Y-119634000D01*
X181864000Y-130302000D01*
X175514000Y-130302000D01*
X175514000Y-119634000D01*
G37*
X181864000Y-66294000D02*
X183642000Y-66294000D01*
X183642000Y-72136000D01*
X181864000Y-72136000D01*
X181864000Y-66294000D01*
G36*
X181864000Y-66294000D02*
G01*
X183642000Y-66294000D01*
X183642000Y-72136000D01*
X181864000Y-72136000D01*
X181864000Y-66294000D01*
G37*
X175514000Y-53340000D02*
X181864000Y-53340000D01*
X181864000Y-63500000D01*
X175514000Y-63500000D01*
X175514000Y-53340000D01*
G36*
X175514000Y-53340000D02*
G01*
X181864000Y-53340000D01*
X181864000Y-63500000D01*
X175514000Y-63500000D01*
X175514000Y-53340000D01*
G37*
X181864000Y-92964000D02*
X183642000Y-92964000D01*
X183642000Y-99060000D01*
X181864000Y-99060000D01*
X181864000Y-92964000D01*
G36*
X181864000Y-92964000D02*
G01*
X183642000Y-92964000D01*
X183642000Y-99060000D01*
X181864000Y-99060000D01*
X181864000Y-92964000D01*
G37*
X163354000Y-55743000D02*
X171418000Y-55743000D01*
X171418000Y-129917000D01*
X163354000Y-129917000D01*
X163354000Y-55743000D01*
G36*
X163354000Y-55743000D02*
G01*
X171418000Y-55743000D01*
X171418000Y-129917000D01*
X163354000Y-129917000D01*
X163354000Y-55743000D01*
G37*
X175514000Y-80010000D02*
X181864000Y-80010000D01*
X181864000Y-90170000D01*
X175514000Y-90170000D01*
X175514000Y-80010000D01*
G36*
X175514000Y-80010000D02*
G01*
X181864000Y-80010000D01*
X181864000Y-90170000D01*
X175514000Y-90170000D01*
X175514000Y-80010000D01*
G37*
X166624000Y-82169000D02*
X174752000Y-82169000D01*
X174752000Y-85979000D01*
X166624000Y-85979000D01*
X166624000Y-82169000D01*
G36*
X166624000Y-82169000D02*
G01*
X174752000Y-82169000D01*
X174752000Y-85979000D01*
X166624000Y-85979000D01*
X166624000Y-82169000D01*
G37*
D16*
X167386000Y-132080000D02*
X178054000Y-142748000D01*
X178054000Y-142748000D02*
X189738000Y-142748000D01*
D11*
X181864000Y-80010000D02*
X183642000Y-80010000D01*
X183642000Y-85344000D01*
X181864000Y-85344000D01*
X181864000Y-80010000D01*
G36*
X181864000Y-80010000D02*
G01*
X183642000Y-80010000D01*
X183642000Y-85344000D01*
X181864000Y-85344000D01*
X181864000Y-80010000D01*
G37*
X166624000Y-122301000D02*
X174752000Y-122301000D01*
X174752000Y-126111000D01*
X166624000Y-126111000D01*
X166624000Y-122301000D01*
G36*
X166624000Y-122301000D02*
G01*
X174752000Y-122301000D01*
X174752000Y-126111000D01*
X166624000Y-126111000D01*
X166624000Y-122301000D01*
G37*
X175514000Y-106680000D02*
X181864000Y-106680000D01*
X181864000Y-117094000D01*
X175514000Y-117094000D01*
X175514000Y-106680000D01*
G36*
X175514000Y-106680000D02*
G01*
X181864000Y-106680000D01*
X181864000Y-117094000D01*
X175514000Y-117094000D01*
X175514000Y-106680000D01*
G37*
X185960000Y-57112000D02*
X191992000Y-57112000D01*
X191992000Y-130524000D01*
X185960000Y-130524000D01*
X185960000Y-57112000D01*
G36*
X185960000Y-57112000D02*
G01*
X191992000Y-57112000D01*
X191992000Y-130524000D01*
X185960000Y-130524000D01*
X185960000Y-57112000D01*
G37*
X166624000Y-68707000D02*
X174752000Y-68707000D01*
X174752000Y-72517000D01*
X166624000Y-72517000D01*
X166624000Y-68707000D01*
G36*
X166624000Y-68707000D02*
G01*
X174752000Y-68707000D01*
X174752000Y-72517000D01*
X166624000Y-72517000D01*
X166624000Y-68707000D01*
G37*
X178181000Y-140716000D02*
X191389000Y-140716000D01*
X191389000Y-150368000D01*
X178181000Y-150368000D01*
X178181000Y-140716000D01*
G36*
X178181000Y-140716000D02*
G01*
X191389000Y-140716000D01*
X191389000Y-150368000D01*
X178181000Y-150368000D01*
X178181000Y-140716000D01*
G37*
X181864000Y-119634000D02*
X183642000Y-119634000D01*
X183642000Y-125984000D01*
X181864000Y-125984000D01*
X181864000Y-119634000D01*
G36*
X181864000Y-119634000D02*
G01*
X183642000Y-119634000D01*
X183642000Y-125984000D01*
X181864000Y-125984000D01*
X181864000Y-119634000D01*
G37*
X181864000Y-53340000D02*
X183642000Y-53340000D01*
X183642000Y-58674000D01*
X181864000Y-58674000D01*
X181864000Y-53340000D01*
G36*
X181864000Y-53340000D02*
G01*
X183642000Y-53340000D01*
X183642000Y-58674000D01*
X181864000Y-58674000D01*
X181864000Y-53340000D01*
G37*
D17*
%TO.C,REF\u002A\u002A*%
X104600000Y-54054000D03*
%TD*%
D18*
%TO.C,D35*%
X153972000Y-82550000D03*
X157272000Y-82550000D03*
%TD*%
D19*
%TO.C,U18*%
X151892000Y-99060000D03*
X151892000Y-100330000D03*
X151892000Y-101600000D03*
X151892000Y-102870000D03*
X146942000Y-102870000D03*
X146942000Y-101600000D03*
X146942000Y-100330000D03*
X146942000Y-99060000D03*
%TD*%
D20*
%TO.C,Q3*%
X183047000Y-82931000D03*
X183047000Y-84201000D03*
X183047000Y-85471000D03*
X183047000Y-86741000D03*
D21*
X185772000Y-84836000D03*
%TD*%
D22*
%TO.C,C18*%
X135382000Y-138430000D03*
D23*
X135382000Y-140430000D03*
%TD*%
D20*
%TO.C,Q6*%
X174157000Y-55880000D03*
X174157000Y-57150000D03*
X174157000Y-58420000D03*
X174157000Y-59690000D03*
D21*
X176882000Y-57785000D03*
%TD*%
D18*
%TO.C,D55*%
X153972000Y-122430000D03*
X157272000Y-122430000D03*
%TD*%
D19*
%TO.C,U13*%
X146942000Y-112268000D03*
X146942000Y-113538000D03*
X146942000Y-114808000D03*
X146942000Y-116078000D03*
X151892000Y-116078000D03*
X151892000Y-114808000D03*
X151892000Y-113538000D03*
X151892000Y-112268000D03*
%TD*%
D24*
%TO.C,U12*%
X141224000Y-60452000D03*
X141224000Y-61402000D03*
X141224000Y-62352000D03*
X143924000Y-62352000D03*
X143924000Y-60452000D03*
%TD*%
D18*
%TO.C,D57*%
X153972000Y-69090000D03*
X157272000Y-69090000D03*
%TD*%
D25*
%TO.C,R21*%
X136040500Y-114601000D03*
X136040500Y-112776000D03*
%TD*%
D26*
%TO.C,C11*%
X175768000Y-135382000D03*
D23*
X172268000Y-135382000D03*
%TD*%
D27*
%TO.C,C22*%
X181811000Y-104902000D03*
X180086000Y-104902000D03*
%TD*%
%TO.C,C24*%
X180848000Y-52324000D03*
X179123000Y-52324000D03*
%TD*%
D19*
%TO.C,U15*%
X146942000Y-58928000D03*
X146942000Y-60198000D03*
X146942000Y-61468000D03*
X146942000Y-62738000D03*
X151892000Y-62738000D03*
X151892000Y-61468000D03*
X151892000Y-60198000D03*
X151892000Y-58928000D03*
%TD*%
D25*
%TO.C,R25*%
X134516500Y-119173000D03*
X134516500Y-117348000D03*
%TD*%
D20*
%TO.C,Q1*%
X183047000Y-109601000D03*
X183047000Y-110871000D03*
X183047000Y-112141000D03*
X183047000Y-113411000D03*
D21*
X185772000Y-111506000D03*
%TD*%
D28*
%TO.C,D70*%
X116586000Y-82698000D03*
X116586000Y-79398000D03*
%TD*%
D18*
%TO.C,D34*%
X153907000Y-109095000D03*
X157207000Y-109095000D03*
%TD*%
D17*
%TO.C,REF\u002A\u002A*%
X198600000Y-148054000D03*
%TD*%
D18*
%TO.C,D49*%
X153972000Y-124970000D03*
X157272000Y-124970000D03*
%TD*%
D28*
%TO.C,D73*%
X119126000Y-82698000D03*
X119126000Y-79398000D03*
%TD*%
D25*
%TO.C,R3*%
X124968000Y-103933000D03*
X124968000Y-102108000D03*
%TD*%
D29*
%TO.C,D3*%
X127000000Y-102110000D03*
X127000000Y-105410000D03*
%TD*%
D28*
%TO.C,D74*%
X127254000Y-82698000D03*
X127254000Y-79398000D03*
%TD*%
D30*
%TO.C,SW3*%
X119380000Y-132080000D03*
D23*
X121920000Y-132080000D03*
X124460000Y-132080000D03*
X124460000Y-124460000D03*
X121920000Y-124460000D03*
X119380000Y-124460000D03*
%TD*%
D31*
%TO.C,D4*%
X127762000Y-135128000D03*
X124462000Y-135128000D03*
%TD*%
D32*
%TO.C,U4*%
X168148000Y-141023000D03*
D33*
X165868000Y-147323000D03*
D32*
X163588000Y-141023000D03*
%TD*%
D34*
%TO.C,C60*%
X186637000Y-67564000D03*
X184912000Y-67564000D03*
%TD*%
D25*
%TO.C,R2*%
X137414000Y-122729000D03*
X137414000Y-120904000D03*
%TD*%
D35*
%TO.C,R50*%
X198073000Y-77724000D03*
X199898000Y-77724000D03*
%TD*%
%TO.C,R28*%
X142748000Y-64262000D03*
X144573000Y-64262000D03*
%TD*%
D36*
%TO.C,R59*%
X176169500Y-94234000D03*
X174344500Y-94234000D03*
%TD*%
D27*
%TO.C,C23*%
X181557000Y-78232000D03*
X179832000Y-78232000D03*
%TD*%
D37*
%TO.C,U6*%
X127000000Y-89916000D03*
X127000000Y-91186000D03*
X127000000Y-92456000D03*
X127000000Y-93726000D03*
X127000000Y-94996000D03*
X127000000Y-96266000D03*
X127000000Y-97536000D03*
X127000000Y-98806000D03*
X136300000Y-98806000D03*
X136300000Y-97536000D03*
X136300000Y-96266000D03*
X136300000Y-94996000D03*
X136300000Y-93726000D03*
X136300000Y-92456000D03*
X136300000Y-91186000D03*
X136300000Y-89916000D03*
%TD*%
D20*
%TO.C,Q2*%
X174157000Y-109601000D03*
X174157000Y-110871000D03*
X174157000Y-112141000D03*
X174157000Y-113411000D03*
D21*
X176882000Y-111506000D03*
%TD*%
D35*
%TO.C,R69*%
X153972000Y-100332000D03*
X155797000Y-100332000D03*
%TD*%
D38*
%TO.C,D11*%
X130556000Y-149832000D03*
X130556000Y-148082000D03*
%TD*%
D20*
%TO.C,Q7*%
X183047000Y-123063000D03*
X183047000Y-124333000D03*
X183047000Y-125603000D03*
X183047000Y-126873000D03*
D21*
X185772000Y-124968000D03*
%TD*%
D39*
%TO.C,C12*%
X161290000Y-140515000D03*
X161290000Y-142240000D03*
%TD*%
D40*
%TO.C,D18*%
X139211000Y-135382000D03*
X137461000Y-135382000D03*
%TD*%
D20*
%TO.C,Q11*%
X183047000Y-69469000D03*
X183047000Y-70739000D03*
X183047000Y-72009000D03*
X183047000Y-73279000D03*
D21*
X185772000Y-71374000D03*
%TD*%
D34*
%TO.C,C48*%
X185166000Y-81026000D03*
X186891000Y-81026000D03*
%TD*%
D18*
%TO.C,D36*%
X153972000Y-55628000D03*
X157272000Y-55628000D03*
%TD*%
D36*
%TO.C,R58*%
X185166000Y-92710000D03*
X183341000Y-92710000D03*
%TD*%
D39*
%TO.C,C9*%
X170434000Y-142748000D03*
X170434000Y-144473000D03*
%TD*%
D41*
%TO.C,J6*%
X200406000Y-109538000D03*
X200406000Y-123038000D03*
D42*
X194406000Y-119888000D03*
D43*
X194406000Y-112688000D03*
%TD*%
D36*
%TO.C,R42*%
X185166000Y-106172000D03*
X183341000Y-106172000D03*
%TD*%
D18*
%TO.C,D52*%
X153972000Y-131574000D03*
X157272000Y-131574000D03*
%TD*%
D35*
%TO.C,R27*%
X142748000Y-91186000D03*
X144573000Y-91186000D03*
%TD*%
D38*
%TO.C,D15*%
X109220000Y-149832000D03*
X109220000Y-148082000D03*
%TD*%
D17*
%TO.C,REF\u002A\u002A*%
X104600000Y-148054000D03*
%TD*%
D27*
%TO.C,C78*%
X150675000Y-131064000D03*
X152400000Y-131064000D03*
%TD*%
D34*
%TO.C,C61*%
X172519000Y-66040000D03*
X174244000Y-66040000D03*
%TD*%
D35*
%TO.C,R68*%
X153972000Y-127002000D03*
X155797000Y-127002000D03*
%TD*%
D18*
%TO.C,D56*%
X153972000Y-95760000D03*
X157272000Y-95760000D03*
%TD*%
D35*
%TO.C,R34*%
X153972000Y-62740000D03*
X155797000Y-62740000D03*
%TD*%
D27*
%TO.C,C80*%
X152146000Y-77724000D03*
X150421000Y-77724000D03*
%TD*%
D20*
%TO.C,Q8*%
X174157000Y-123063000D03*
X174157000Y-124333000D03*
X174157000Y-125603000D03*
X174157000Y-126873000D03*
D21*
X176882000Y-124968000D03*
%TD*%
D44*
%TO.C,R15*%
X136040500Y-108411000D03*
X136040500Y-110236000D03*
%TD*%
D19*
%TO.C,U14*%
X146942000Y-85852000D03*
X146942000Y-87122000D03*
X146942000Y-88392000D03*
X146942000Y-89662000D03*
X151892000Y-89662000D03*
X151892000Y-88392000D03*
X151892000Y-87122000D03*
X151892000Y-85852000D03*
%TD*%
D18*
%TO.C,D38*%
X153972000Y-118112000D03*
X157272000Y-118112000D03*
%TD*%
%TO.C,D39*%
X153972000Y-85092000D03*
X157272000Y-85092000D03*
%TD*%
D45*
%TO.C,SW8*%
X123952000Y-70358000D03*
D46*
X123952000Y-76858000D03*
%TD*%
D25*
%TO.C,R14*%
X172212000Y-146304000D03*
X172212000Y-144479000D03*
%TD*%
D47*
%TO.C,J11*%
X109728000Y-82296000D03*
D48*
X109728000Y-84796000D03*
X109728000Y-87296000D03*
X109728000Y-89796000D03*
X109728000Y-92296000D03*
%TD*%
D25*
%TO.C,R35*%
X158798000Y-113333000D03*
X158798000Y-111508000D03*
%TD*%
D34*
%TO.C,C51*%
X172519000Y-52578000D03*
X174244000Y-52578000D03*
%TD*%
D18*
%TO.C,D53*%
X153972000Y-104904000D03*
X157272000Y-104904000D03*
%TD*%
D49*
%TO.C,D5*%
X113284000Y-53904500D03*
X113284000Y-55654500D03*
%TD*%
D35*
%TO.C,R26*%
X144573000Y-117602000D03*
X142748000Y-117602000D03*
%TD*%
D36*
%TO.C,R74*%
X146003000Y-131064000D03*
X147828000Y-131064000D03*
%TD*%
D27*
%TO.C,C79*%
X151892000Y-104648000D03*
X150167000Y-104648000D03*
%TD*%
D50*
%TO.C,F1*%
X130810000Y-142494000D03*
X130810000Y-138494000D03*
%TD*%
D36*
%TO.C,R45*%
X176172500Y-81026000D03*
X174347500Y-81026000D03*
%TD*%
D34*
%TO.C,C47*%
X172773000Y-106172000D03*
X174498000Y-106172000D03*
%TD*%
D36*
%TO.C,R61*%
X176069000Y-67564000D03*
X174244000Y-67564000D03*
%TD*%
D18*
%TO.C,D41*%
X153972000Y-58168000D03*
X157272000Y-58168000D03*
%TD*%
D20*
%TO.C,Q4*%
X174157000Y-82931000D03*
X174157000Y-84201000D03*
X174157000Y-85471000D03*
X174157000Y-86741000D03*
D21*
X176882000Y-84836000D03*
%TD*%
D18*
%TO.C,D42*%
X153972000Y-64772000D03*
X157272000Y-64772000D03*
%TD*%
D24*
%TO.C,U21*%
X141224000Y-99568000D03*
X141224000Y-100518000D03*
X141224000Y-101468000D03*
X143924000Y-101468000D03*
X143924000Y-99568000D03*
%TD*%
D27*
%TO.C,C5*%
X121666000Y-137668000D03*
X119941000Y-137668000D03*
%TD*%
D24*
%TO.C,U11*%
X141224000Y-87376000D03*
X141224000Y-88326000D03*
X141224000Y-89276000D03*
X143924000Y-89276000D03*
X143924000Y-87376000D03*
%TD*%
D27*
%TO.C,C25*%
X179832000Y-64770000D03*
X181557000Y-64770000D03*
%TD*%
D40*
%TO.C,D48*%
X198092000Y-79248000D03*
X196342000Y-79248000D03*
%TD*%
D18*
%TO.C,D40*%
X153972000Y-91696000D03*
X157272000Y-91696000D03*
%TD*%
D25*
%TO.C,R39*%
X158798000Y-59993000D03*
X158798000Y-58168000D03*
%TD*%
D30*
%TO.C,C17*%
X160274000Y-137721000D03*
D23*
X160274000Y-135721000D03*
%TD*%
D25*
%TO.C,R11*%
X131572000Y-103933000D03*
X131572000Y-102108000D03*
%TD*%
D41*
%TO.C,J8*%
X200406000Y-59290000D03*
X200406000Y-72790000D03*
D42*
X194406000Y-69640000D03*
D43*
X194406000Y-62440000D03*
%TD*%
D36*
%TO.C,R60*%
X184912000Y-66040000D03*
X183087000Y-66040000D03*
%TD*%
D25*
%TO.C,R80*%
X116586000Y-87423000D03*
X116586000Y-85598000D03*
%TD*%
D51*
%TO.C,U3*%
X120800500Y-108706000D03*
X120800500Y-109506000D03*
X120800500Y-110306000D03*
X120800500Y-111106000D03*
X120800500Y-111906000D03*
X120800500Y-112706000D03*
X120800500Y-113506000D03*
X120800500Y-114306000D03*
D52*
X122175500Y-115681000D03*
X122975500Y-115681000D03*
X123775500Y-115681000D03*
X124575500Y-115681000D03*
X125375500Y-115681000D03*
X126175500Y-115681000D03*
X126975500Y-115681000D03*
X127775500Y-115681000D03*
D51*
X129150500Y-114306000D03*
X129150500Y-113506000D03*
X129150500Y-112706000D03*
X129150500Y-111906000D03*
X129150500Y-111106000D03*
X129150500Y-110306000D03*
X129150500Y-109506000D03*
X129150500Y-108706000D03*
D52*
X127775500Y-107331000D03*
X126975500Y-107331000D03*
X126175500Y-107331000D03*
X125375500Y-107331000D03*
X124575500Y-107331000D03*
X123775500Y-107331000D03*
X122975500Y-107331000D03*
X122175500Y-107331000D03*
%TD*%
D25*
%TO.C,R82*%
X116586000Y-94234000D03*
X116586000Y-92409000D03*
%TD*%
%TO.C,R66*%
X158798000Y-73455000D03*
X158798000Y-71630000D03*
%TD*%
D35*
%TO.C,R33*%
X153972000Y-60200000D03*
X155797000Y-60200000D03*
%TD*%
D25*
%TO.C,R67*%
X158750000Y-78232000D03*
X158750000Y-76407000D03*
%TD*%
D22*
%TO.C,C10*%
X136144000Y-144780000D03*
D23*
X136144000Y-148280000D03*
%TD*%
D29*
%TO.C,D19*%
X159004000Y-140515000D03*
X159004000Y-143815000D03*
%TD*%
D45*
%TO.C,SW4*%
X118618000Y-70358000D03*
D46*
X118618000Y-76858000D03*
%TD*%
D36*
%TO.C,R16*%
X135429000Y-135382000D03*
X133604000Y-135382000D03*
%TD*%
D25*
%TO.C,R65*%
X158750000Y-104902000D03*
X158750000Y-103077000D03*
%TD*%
D44*
%TO.C,R9*%
X113284000Y-57253500D03*
X113284000Y-59078500D03*
%TD*%
D45*
%TO.C,SW6*%
X137414000Y-70358000D03*
D46*
X137414000Y-76858000D03*
%TD*%
D35*
%TO.C,R71*%
X153972000Y-129542000D03*
X155797000Y-129542000D03*
%TD*%
%TO.C,R72*%
X153972000Y-102872000D03*
X155797000Y-102872000D03*
%TD*%
D25*
%TO.C,R38*%
X158798000Y-91696000D03*
X158798000Y-89871000D03*
%TD*%
D36*
%TO.C,R7*%
X118872000Y-110998000D03*
X117047000Y-110998000D03*
%TD*%
D53*
%TO.C,C2*%
X130810000Y-136398000D03*
X130810000Y-134673000D03*
%TD*%
D35*
%TO.C,R48*%
X198092000Y-128524000D03*
X199917000Y-128524000D03*
%TD*%
D54*
%TO.C,J3*%
X115062000Y-141224000D03*
X115062000Y-138684000D03*
X115062000Y-136144000D03*
X115062000Y-133604000D03*
X115062000Y-131064000D03*
%TD*%
D45*
%TO.C,SW7*%
X114554000Y-70358000D03*
D46*
X114554000Y-76858000D03*
%TD*%
D45*
%TO.C,SW2*%
X130810000Y-124968000D03*
D46*
X130810000Y-131468000D03*
%TD*%
D32*
%TO.C,U2*%
X128258000Y-137668000D03*
D33*
X125978000Y-143968000D03*
D32*
X123698000Y-137668000D03*
%TD*%
D55*
%TO.C,D43*%
X196342000Y-127000000D03*
X198092000Y-127000000D03*
%TD*%
D34*
%TO.C,C56*%
X184912000Y-121158000D03*
X186637000Y-121158000D03*
%TD*%
D35*
%TO.C,R8*%
X120349000Y-105410000D03*
X122174000Y-105410000D03*
%TD*%
D54*
%TO.C,J4*%
X115062000Y-124968000D03*
X115062000Y-122428000D03*
X115062000Y-119888000D03*
X115062000Y-117348000D03*
X115062000Y-114808000D03*
%TD*%
D20*
%TO.C,Q9*%
X183047000Y-96139000D03*
X183047000Y-97409000D03*
X183047000Y-98679000D03*
X183047000Y-99949000D03*
D21*
X185772000Y-98044000D03*
%TD*%
D18*
%TO.C,D50*%
X153972000Y-98300000D03*
X157272000Y-98300000D03*
%TD*%
D38*
%TO.C,D20*%
X161290000Y-149860000D03*
X161290000Y-148110000D03*
%TD*%
D25*
%TO.C,R81*%
X116586000Y-90725000D03*
X116586000Y-88900000D03*
%TD*%
D31*
%TO.C,D16*%
X134514500Y-115316000D03*
X131214500Y-115316000D03*
%TD*%
D54*
%TO.C,J5*%
X115062000Y-108712000D03*
X115062000Y-106172000D03*
X115062000Y-103632000D03*
X115062000Y-101092000D03*
X115062000Y-98552000D03*
%TD*%
D22*
%TO.C,C6*%
X119634000Y-145542000D03*
D23*
X119634000Y-147542000D03*
%TD*%
D45*
%TO.C,SW5*%
X128016000Y-70358000D03*
D46*
X128016000Y-76858000D03*
%TD*%
D24*
%TO.C,U22*%
X141224000Y-72644000D03*
X141224000Y-73594000D03*
X141224000Y-74544000D03*
X143924000Y-74544000D03*
X143924000Y-72644000D03*
%TD*%
D27*
%TO.C,C28*%
X152400000Y-117602000D03*
X150675000Y-117602000D03*
%TD*%
D56*
%TO.C,J2*%
X193440000Y-142106000D03*
X179940000Y-142106000D03*
D57*
X190290000Y-136106000D03*
D43*
X183090000Y-136106000D03*
%TD*%
D35*
%TO.C,R30*%
X153972000Y-116080000D03*
X155797000Y-116080000D03*
%TD*%
D25*
%TO.C,R40*%
X158750000Y-64770000D03*
X158750000Y-62945000D03*
%TD*%
D35*
%TO.C,R76*%
X142748000Y-77724000D03*
X144573000Y-77724000D03*
%TD*%
D25*
%TO.C,R20*%
X161290000Y-146558000D03*
X161290000Y-144733000D03*
%TD*%
D35*
%TO.C,R73*%
X153972000Y-76202000D03*
X155797000Y-76202000D03*
%TD*%
D31*
%TO.C,D9*%
X134514500Y-110236000D03*
X131214500Y-110236000D03*
%TD*%
D34*
%TO.C,C59*%
X172619500Y-92710000D03*
X174344500Y-92710000D03*
%TD*%
D55*
%TO.C,D47*%
X196370000Y-76200000D03*
X198120000Y-76200000D03*
%TD*%
D20*
%TO.C,Q5*%
X183047000Y-55880000D03*
X183047000Y-57150000D03*
X183047000Y-58420000D03*
X183047000Y-59690000D03*
D21*
X185772000Y-57785000D03*
%TD*%
D36*
%TO.C,R56*%
X184912000Y-119634000D03*
X183087000Y-119634000D03*
%TD*%
D45*
%TO.C,SW9*%
X133350000Y-70358000D03*
D46*
X133350000Y-76858000D03*
%TD*%
D24*
%TO.C,U8*%
X141224000Y-83566000D03*
X141224000Y-84516000D03*
X141224000Y-85466000D03*
X143924000Y-85466000D03*
X143924000Y-83566000D03*
%TD*%
%TO.C,U20*%
X141224000Y-125984000D03*
X141224000Y-126934000D03*
X141224000Y-127884000D03*
X143924000Y-127884000D03*
X143924000Y-125984000D03*
%TD*%
D28*
%TO.C,D71*%
X124714000Y-82698000D03*
X124714000Y-79398000D03*
%TD*%
D38*
%TO.C,D14*%
X196088000Y-138938000D03*
X196088000Y-137188000D03*
%TD*%
D45*
%TO.C,SW1*%
X137414000Y-124968000D03*
D46*
X137414000Y-131468000D03*
%TD*%
D35*
%TO.C,R31*%
X153972000Y-87124000D03*
X155797000Y-87124000D03*
%TD*%
D29*
%TO.C,D7*%
X115316000Y-145542000D03*
X115316000Y-148842000D03*
%TD*%
%TO.C,D12*%
X129540000Y-102110000D03*
X129540000Y-105410000D03*
%TD*%
D19*
%TO.C,U19*%
X146942000Y-72390000D03*
X146942000Y-73660000D03*
X146942000Y-74930000D03*
X146942000Y-76200000D03*
X151892000Y-76200000D03*
X151892000Y-74930000D03*
X151892000Y-73660000D03*
X151892000Y-72390000D03*
%TD*%
D35*
%TO.C,R70*%
X153972000Y-73662000D03*
X155797000Y-73662000D03*
%TD*%
D25*
%TO.C,R64*%
X158798000Y-100125000D03*
X158798000Y-98300000D03*
%TD*%
%TO.C,R37*%
X158798000Y-86917000D03*
X158798000Y-85092000D03*
%TD*%
D36*
%TO.C,R57*%
X176069000Y-121158000D03*
X174244000Y-121158000D03*
%TD*%
D31*
%TO.C,D2*%
X128674500Y-118110000D03*
X125374500Y-118110000D03*
%TD*%
D35*
%TO.C,R32*%
X153972000Y-89664000D03*
X155797000Y-89664000D03*
%TD*%
D58*
%TO.C,C4*%
X164370000Y-134366000D03*
D23*
X166370000Y-134366000D03*
%TD*%
D25*
%TO.C,R62*%
X158798000Y-126795000D03*
X158798000Y-124970000D03*
%TD*%
D41*
%TO.C,J7*%
X200406000Y-84392000D03*
X200406000Y-97892000D03*
D42*
X194406000Y-94742000D03*
D43*
X194406000Y-87542000D03*
%TD*%
D36*
%TO.C,R43*%
X176323000Y-107696000D03*
X174498000Y-107696000D03*
%TD*%
D59*
%TO.C,J1*%
X153542000Y-149359000D03*
X142542000Y-149359000D03*
D60*
X145542000Y-139359000D03*
D61*
X150542000Y-139359000D03*
%TD*%
D27*
%TO.C,C30*%
X152146000Y-64262000D03*
X150421000Y-64262000D03*
%TD*%
D38*
%TO.C,D17*%
X172212000Y-149860000D03*
X172212000Y-148110000D03*
%TD*%
D55*
%TO.C,D45*%
X196342000Y-102108000D03*
X198092000Y-102108000D03*
%TD*%
D27*
%TO.C,C29*%
X152146000Y-91186000D03*
X150421000Y-91186000D03*
%TD*%
D40*
%TO.C,D46*%
X198092000Y-105156000D03*
X196342000Y-105156000D03*
%TD*%
D35*
%TO.C,R1*%
X126849500Y-120142000D03*
X128674500Y-120142000D03*
%TD*%
D18*
%TO.C,D54*%
X153972000Y-78234000D03*
X157272000Y-78234000D03*
%TD*%
D24*
%TO.C,U9*%
X141224000Y-56642000D03*
X141224000Y-57592000D03*
X141224000Y-58542000D03*
X143924000Y-58542000D03*
X143924000Y-56642000D03*
%TD*%
D34*
%TO.C,C58*%
X185166000Y-94234000D03*
X186891000Y-94234000D03*
%TD*%
D19*
%TO.C,U17*%
X146850000Y-125700000D03*
X146850000Y-126970000D03*
X146850000Y-128240000D03*
X146850000Y-129510000D03*
X151800000Y-129510000D03*
X151800000Y-128240000D03*
X151800000Y-126970000D03*
X151800000Y-125700000D03*
%TD*%
D25*
%TO.C,R63*%
X158798000Y-131574000D03*
X158798000Y-129749000D03*
%TD*%
%TO.C,R13*%
X110744000Y-148082000D03*
X110744000Y-146257000D03*
%TD*%
D34*
%TO.C,C50*%
X186637000Y-54102000D03*
X184912000Y-54102000D03*
%TD*%
D25*
%TO.C,R12*%
X196088000Y-135532500D03*
X196088000Y-133707500D03*
%TD*%
D62*
%TO.C,J9*%
X130048000Y-64262000D03*
D63*
X130048000Y-61722000D03*
X127508000Y-64262000D03*
X127508000Y-61722000D03*
X124968000Y-64262000D03*
X124968000Y-61722000D03*
X122428000Y-64262000D03*
X122428000Y-61722000D03*
X119888000Y-64262000D03*
X119888000Y-61722000D03*
X117348000Y-64262000D03*
X117348000Y-61722000D03*
%TD*%
D53*
%TO.C,C21*%
X136398000Y-88138000D03*
X136398000Y-86413000D03*
%TD*%
D40*
%TO.C,D44*%
X198092000Y-130048000D03*
X196342000Y-130048000D03*
%TD*%
D31*
%TO.C,D13*%
X134366000Y-112776000D03*
X131066000Y-112776000D03*
%TD*%
D28*
%TO.C,D75*%
X135382000Y-82698000D03*
X135382000Y-79398000D03*
%TD*%
D36*
%TO.C,R47*%
X176069000Y-54102000D03*
X174244000Y-54102000D03*
%TD*%
D20*
%TO.C,Q12*%
X174157000Y-69469000D03*
X174157000Y-70739000D03*
X174157000Y-72009000D03*
X174157000Y-73279000D03*
D21*
X176882000Y-71374000D03*
%TD*%
D35*
%TO.C,R75*%
X142748000Y-104394000D03*
X144573000Y-104394000D03*
%TD*%
D36*
%TO.C,R44*%
X183341000Y-79502000D03*
X185166000Y-79502000D03*
%TD*%
D34*
%TO.C,C49*%
X172622500Y-79502000D03*
X174347500Y-79502000D03*
%TD*%
D27*
%TO.C,C27*%
X181557000Y-91440000D03*
X179832000Y-91440000D03*
%TD*%
D18*
%TO.C,D51*%
X153972000Y-71630000D03*
X157272000Y-71630000D03*
%TD*%
D31*
%TO.C,D8*%
X167386000Y-138430000D03*
X164086000Y-138430000D03*
%TD*%
D34*
%TO.C,C81*%
X132842000Y-64262000D03*
X134567000Y-64262000D03*
%TD*%
D35*
%TO.C,R49*%
X198092000Y-103632000D03*
X199917000Y-103632000D03*
%TD*%
D25*
%TO.C,R10*%
X130556000Y-146351000D03*
X130556000Y-144526000D03*
%TD*%
D34*
%TO.C,C57*%
X172519000Y-119634000D03*
X174244000Y-119634000D03*
%TD*%
D36*
%TO.C,R46*%
X184912000Y-52578000D03*
X183087000Y-52578000D03*
%TD*%
D24*
%TO.C,U10*%
X141224000Y-113792000D03*
X141224000Y-114742000D03*
X141224000Y-115692000D03*
X143924000Y-115692000D03*
X143924000Y-113792000D03*
%TD*%
D27*
%TO.C,C26*%
X181557000Y-118364000D03*
X179832000Y-118364000D03*
%TD*%
D34*
%TO.C,C46*%
X185166000Y-107696000D03*
X186891000Y-107696000D03*
%TD*%
D25*
%TO.C,R36*%
X158798000Y-118157000D03*
X158798000Y-116332000D03*
%TD*%
D20*
%TO.C,Q10*%
X174157000Y-96139000D03*
X174157000Y-97409000D03*
X174157000Y-98679000D03*
X174157000Y-99949000D03*
D21*
X176882000Y-98044000D03*
%TD*%
D35*
%TO.C,R29*%
X153972000Y-113540000D03*
X155797000Y-113540000D03*
%TD*%
D18*
%TO.C,D37*%
X153972000Y-111508000D03*
X157272000Y-111508000D03*
%TD*%
D28*
%TO.C,D72*%
X132842000Y-82698000D03*
X132842000Y-79398000D03*
%TD*%
D62*
%TO.C,J10*%
X108458000Y-77216000D03*
D63*
X108458000Y-74676000D03*
X108458000Y-72136000D03*
X108458000Y-69596000D03*
X108458000Y-67056000D03*
X108458000Y-64516000D03*
X108458000Y-61976000D03*
X108458000Y-59436000D03*
%TD*%
D24*
%TO.C,U7*%
X141224000Y-109982000D03*
X141224000Y-110932000D03*
X141224000Y-111882000D03*
X143924000Y-111882000D03*
X143924000Y-109982000D03*
%TD*%
D17*
%TO.C,REF\u002A\u002A*%
X198600000Y-54054000D03*
%TD*%
M02*
